{"glyphs":{"0":{"ha":789,"x_min":42,"x_max":747,"o":"m 139 583 q 188 630 139 583 q 394 678 236 678 q 650 583 553 678 q 747 332 747 488 q 650 81 747 176 q 394 -14 553 -14 q 139 81 236 -14 q 42 332 42 176 q 139 583 42 488 m 314 332 q 314 172 314 332 q 394 11 314 11 q 475 332 475 11 q 394 653 475 653 q 314 332 314 653 z "},"1":{"ha":585,"x_min":43,"x_max":567,"o":"m 185 35 l 185 447 q 69 390 131 408 l 50 385 l 43 408 q 275 651 242 469 q 421 672 349 654 l 447 678 l 447 35 l 567 35 l 567 13 l 65 13 l 65 35 l 185 35 z "},"2":{"ha":761,"x_min":36,"x_max":714,"o":"m 325 228 l 618 228 q 674 243 657 228 q 693 293 690 258 l 714 293 l 714 13 l 36 13 q 190 286 36 206 q 264 321 219 301 q 327 351 308 340 q 367 380 346 361 q 397 424 389 399 q 404 502 404 450 q 369 595 404 554 q 266 636 335 636 q 144 591 197 636 q 90 488 90 546 q 103 471 90 471 q 115 485 113 471 q 142 545 118 522 q 206 568 165 568 q 274 538 247 568 q 300 463 300 507 q 268 387 300 418 q 184 356 236 356 q 99 393 132 356 q 65 483 65 431 q 149 627 65 576 q 364 678 232 678 q 585 631 496 678 q 675 501 675 585 q 626 376 675 417 q 577 342 601 356 q 511 321 553 329 q 340 297 439 307 q 104 175 161 282 l 113 168 q 325 228 183 228 z "},"3":{"ha":710,"x_min":33,"x_max":668,"o":"m 58 -89 q 105 -189 58 -149 q 200 -229 151 -229 q 344 -166 297 -229 q 392 -12 392 -103 q 257 204 392 204 q 168 174 236 204 l 157 197 q 399 457 399 304 q 353 578 399 526 q 244 631 308 631 q 135 587 179 631 q 92 486 92 543 q 99 443 92 461 q 119 425 107 425 q 131 436 131 425 q 123 454 131 440 q 115 496 115 468 q 142 548 115 524 q 211 572 168 572 q 283 542 254 572 q 313 464 313 511 q 281 385 313 417 q 197 353 250 353 q 105 391 143 353 q 67 476 67 429 q 88 561 67 524 q 332 678 154 678 q 533 623 449 678 q 617 464 617 568 q 542 328 617 383 q 329 253 468 272 l 333 240 q 414 250 375 250 q 567 204 499 250 q 668 14 668 138 q 577 -195 668 -110 q 301 -281 486 -281 q 108 -225 183 -281 q 33 -87 33 -169 q 67 13 33 -26 q 157 53 101 53 q 242 19 213 53 q 272 -58 272 -14 q 243 -133 272 -103 q 178 -162 214 -162 q 117 -146 143 -162 q 85 -79 85 -125 q 74 -65 85 -65 q 58 -89 58 -65 z "},"4":{"ha":807,"x_min":-24,"x_max":799,"o":"m -24 -46 l -24 -22 q 19 13 -8 -10 q 115 109 46 36 q 240 257 185 182 q 347 441 296 332 q 413 653 399 550 q 593 678 511 658 l 593 26 l 799 26 l 799 -46 l 593 -46 l 593 -269 l 331 -269 l 331 -46 l -24 -46 m 75 26 l 331 26 l 331 335 l 324 335 q 205 173 267 249 q 108 64 143 97 l 75 32 l 75 26 z "},"5":{"ha":740,"x_min":72,"x_max":686,"o":"m 97 -101 q 139 -199 97 -160 q 238 -239 181 -239 q 407 14 407 -239 q 369 173 407 114 q 274 232 331 232 q 124 125 189 232 l 99 125 l 99 651 l 518 651 q 574 667 557 651 q 593 717 590 682 l 618 717 l 618 422 l 126 422 l 126 183 l 136 183 q 252 267 181 238 q 403 297 324 297 q 603 227 519 297 q 686 20 686 157 q 589 -201 686 -117 q 325 -285 492 -285 q 135 -229 197 -285 q 72 -99 72 -174 q 105 -8 72 -46 q 193 29 138 29 q 280 -1 249 29 q 311 -78 311 -31 q 280 -154 311 -126 q 213 -182 249 -182 q 126 -117 142 -182 q 121 -93 122 -100 q 108 -86 119 -86 q 97 -101 97 -86 z "},"6":{"ha":821,"x_min":43,"x_max":782,"o":"m 324 414 l 324 274 q 344 70 324 129 q 414 11 365 11 q 483 70 463 11 q 504 274 504 129 q 484 474 504 418 q 414 529 464 529 q 354 496 385 529 q 324 414 324 463 m 693 760 q 643 861 693 813 q 501 910 593 910 q 375 858 411 910 q 346 806 357 831 q 331 738 335 782 q 324 597 324 681 l 324 504 l 328 504 q 502 581 390 581 q 698 509 614 581 q 782 301 782 438 q 681 76 782 165 q 415 -14 579 -14 q 237 26 313 -14 q 121 135 161 65 q 43 477 43 269 q 144 815 43 685 q 451 946 244 946 q 647 890 576 946 q 718 756 718 833 q 685 665 718 703 q 599 628 651 628 q 516 660 547 628 q 485 738 485 693 q 510 811 485 782 q 577 840 536 840 q 642 817 618 840 q 668 757 665 794 q 681 743 671 743 q 693 760 693 743 z "},"7":{"ha":665,"x_min":69,"x_max":621,"o":"m 69 651 l 521 651 q 576 667 560 651 q 596 717 593 682 l 621 717 l 621 582 q 538 286 621 399 q 469 192 503 240 q 410 64 435 144 q 386 -128 386 -17 q 356 -237 386 -194 q 260 -281 325 -281 q 160 -238 196 -281 q 124 -128 124 -196 q 156 3 124 -49 q 186 50 172 31 q 231 94 200 69 q 277 129 261 118 q 333 166 293 140 q 400 210 372 192 q 453 251 428 229 q 511 306 479 272 q 590 489 574 372 q 574 471 585 482 q 514 442 563 460 q 403 424 465 424 l 168 424 q 113 408 129 424 q 93 358 96 393 l 69 358 l 69 651 z "},"8":{"ha":738,"x_min":40,"x_max":697,"o":"m 363 -14 q 287 -14 363 -14 q 126 61 211 -14 q 40 263 40 136 q 154 472 40 390 q 60 694 60 574 q 142 879 60 815 q 359 943 225 943 q 568 881 493 943 q 643 719 643 818 q 549 544 643 621 q 697 279 697 428 q 606 71 697 156 q 363 -14 515 -14 m 311 15 q 419 51 376 15 q 461 150 461 88 q 419 258 461 213 q 294 360 376 303 q 174 454 213 417 q 94 362 122 417 q 67 257 67 307 q 135 85 67 156 q 311 15 204 15 m 372 683 q 394 661 372 683 q 464 606 417 639 q 526 561 511 572 q 618 714 618 628 q 568 850 618 800 q 444 900 518 900 q 360 871 394 900 q 326 785 326 842 q 372 683 326 728 z "},"9":{"ha":821,"x_min":39,"x_max":778,"o":"m 497 250 l 497 390 q 476 594 497 535 q 407 653 456 653 q 338 594 358 653 q 317 390 317 535 q 337 190 317 246 q 407 135 357 135 q 467 168 436 135 q 497 250 497 201 m 128 -96 q 178 -197 128 -149 q 319 -246 228 -246 q 444 -194 410 -246 q 475 -142 464 -167 q 492 -74 486 -118 q 497 67 497 -17 l 497 160 l 493 160 q 319 83 431 83 q 123 155 207 83 q 39 363 39 226 q 140 588 39 499 q 406 678 242 678 q 584 638 508 678 q 700 529 660 599 q 778 187 778 394 q 677 -151 778 -21 q 369 -282 576 -282 q 174 -226 244 -282 q 103 -92 103 -169 q 136 -1 103 -39 q 222 36 169 36 q 305 3 274 36 q 336 -74 336 -29 q 310 -147 336 -118 q 244 -176 285 -176 q 179 -153 203 -176 q 153 -93 156 -131 q 140 -79 150 -79 q 128 -96 128 -79 z "},"\u0000":{"ha":0,"x_min":0,"x_max":0,"o":""}," ":{"ha":347,"x_min":0,"x_max":0,"o":""},"!":{"ha":392,"x_min":42,"x_max":350,"o":"m 208 311 l 183 311 q 161 508 183 422 q 113 636 139 593 q 42 828 42 751 q 81 952 42 906 q 196 999 121 999 q 310 952 271 999 q 350 845 350 906 q 328 732 350 785 q 279 636 306 679 q 231 508 253 593 q 208 311 208 422 m 102 24 q 83 43 102 24 q 64 118 64 63 q 102 212 64 174 q 196 250 140 250 q 290 212 251 250 q 328 118 328 174 q 290 24 328 63 q 196 -14 251 -14 q 102 24 140 -14 z "},"\"":{"ha":275,"x_min":56,"x_max":211,"o":"m 56 972 l 82 972 l 82 678 l 56 678 l 56 972 m 185 972 l 211 972 l 211 678 l 185 678 l 185 972 z "},"#":{"ha":1013,"x_min":99,"x_max":901,"o":"m 99 194 l 99 224 l 315 224 l 388 439 l 188 439 l 188 468 l 397 468 l 469 678 l 500 678 l 428 468 l 668 468 l 740 678 l 771 678 l 699 468 l 901 468 l 901 439 l 689 439 l 617 224 l 813 224 l 813 194 l 607 194 l 536 -14 l 506 -14 l 576 194 l 336 194 l 265 -14 l 235 -14 l 306 194 l 99 194 m 418 439 l 346 224 l 586 224 l 658 439 l 418 439 z "},"$":{"ha":651,"x_min":56,"x_max":624,"o":"m 133 28 q 76 -7 100 28 l 56 -7 l 56 257 l 76 257 q 160 68 103 124 q 315 11 217 13 l 315 208 q 114 335 160 279 q 58 485 58 401 q 133 649 58 592 q 322 706 207 706 l 328 706 l 328 792 l 356 792 l 356 703 q 440 685 381 700 q 520 669 499 669 q 553 678 542 669 q 568 704 564 686 l 590 704 l 590 464 l 568 464 q 497 614 556 557 q 356 679 439 671 l 356 474 q 465 422 408 453 q 535 381 522 392 q 569 350 547 369 q 600 313 590 331 q 624 217 624 264 q 547 44 624 100 q 343 -14 469 -11 l 343 -86 l 315 -86 l 315 -14 q 203 8 263 -11 q 133 28 143 28 m 219 603 q 328 486 219 539 l 328 681 q 250 660 281 679 q 219 603 219 640 m 453 99 q 425 148 453 126 q 343 196 397 169 l 343 11 q 453 99 453 19 z "},"%":{"ha":1364,"x_min":42,"x_max":1322,"o":"m 991 585 q 983 575 991 585 q 963 495 975 564 q 951 308 951 426 q 963 120 951 189 q 991 31 975 51 q 1032 11 1007 11 q 1073 32 1057 11 q 1101 122 1089 53 q 1113 309 1113 190 q 1101 497 1113 428 q 1073 586 1089 565 q 1032 607 1057 607 q 991 585 1007 607 m 824 76 q 783 120 824 76 q 742 308 742 165 q 824 542 742 451 q 1032 632 906 632 q 1240 542 1158 632 q 1322 308 1322 451 q 1240 76 1322 165 q 1032 -14 1158 -14 q 824 76 906 -14 m 332 326 q 269 326 332 326 q 124 416 206 326 q 42 648 42 506 q 122 881 42 790 q 325 972 201 972 q 506 908 411 972 q 594 865 542 885 q 699 846 646 846 q 869 894 803 846 q 958 988 936 942 l 971 1010 l 994 1000 l 407 -24 l 388 -11 l 899 882 q 699 821 807 821 q 567 849 635 821 q 622 649 622 763 q 540 416 622 506 q 332 326 458 326 m 291 926 q 283 915 291 926 q 263 835 275 904 q 251 648 251 767 q 263 460 251 529 q 291 372 275 392 q 332 351 307 351 q 373 372 357 351 q 401 462 389 393 q 413 649 413 531 q 401 837 413 768 q 373 926 389 906 q 332 947 357 947 q 291 926 307 947 z "},"&":{"ha":918,"x_min":32,"x_max":1033,"o":"m 592 876 q 465 924 539 924 q 317 729 317 924 q 347 613 317 663 q 433 563 376 563 q 503 578 464 563 l 517 582 l 524 557 q 370 450 411 510 q 329 278 329 390 q 385 102 329 165 q 532 39 440 39 q 693 95 624 39 q 763 238 763 151 q 719 367 763 325 q 615 408 676 408 q 508 374 553 408 q 463 278 463 340 q 507 182 463 215 q 528 174 519 174 q 540 186 540 174 q 531 200 540 193 q 519 208 522 207 q 492 271 492 232 q 520 335 492 310 q 592 361 549 361 q 665 330 636 361 q 694 249 694 299 q 658 167 694 199 q 564 135 622 135 q 463 182 506 135 q 419 300 419 229 q 503 464 419 408 q 699 528 588 519 q 904 558 854 539 q 994 685 993 594 q 950 779 994 746 q 929 788 938 788 q 917 775 917 788 q 926 761 917 768 q 938 753 935 754 q 965 690 965 729 q 937 626 965 651 q 865 600 908 600 q 792 631 821 600 q 763 713 763 663 q 799 794 763 763 q 892 826 835 826 q 992 777 950 826 q 1033 660 1033 728 q 1001 544 1033 593 q 922 469 968 494 q 750 407 822 417 l 718 403 q 770 342 750 385 q 790 251 790 299 q 772 159 790 203 q 714 75 753 115 q 603 10 675 35 q 427 -14 532 -14 q 239 11 322 -14 q 113 78 156 36 q 32 260 32 158 q 107 432 32 363 q 318 528 182 501 l 315 542 q 128 596 192 542 q 65 734 65 650 q 156 888 65 818 q 403 957 247 957 q 626 879 558 957 q 660 791 660 842 q 628 704 660 740 q 546 668 596 668 q 464 697 496 668 q 432 770 432 726 q 458 842 432 814 q 524 871 485 871 q 586 843 563 871 q 609 822 597 822 q 621 835 621 822 q 592 876 621 849 z "},"'":{"ha":586,"x_min":246,"x_max":272,"o":"m 246 972 l 272 972 l 272 678 l 246 678 l 246 972 z "},"(":{"ha":615,"x_min":97,"x_max":615,"o":"m 615 950 q 311 344 311 950 q 615 -262 311 -262 l 615 -285 q 335 -194 456 -285 q 156 37 215 -104 q 97 344 97 178 q 156 651 97 510 q 335 882 215 792 q 615 972 456 972 l 615 950 z "},")":{"ha":615,"x_min":0,"x_max":518,"o":"m 0 -262 q 304 344 304 -262 q 0 950 304 950 l 0 972 q 280 882 160 972 q 459 651 400 792 q 518 344 518 510 q 459 37 518 178 q 280 -194 400 -104 q 0 -285 160 -285 l 0 -262 z "},"*":{"ha":456,"x_min":28,"x_max":428,"o":"m 228 999 q 242 999 228 999 q 275 979 256 999 q 294 931 294 960 q 262 858 294 901 q 228 800 229 814 q 194 857 226 813 q 161 931 161 901 q 181 979 161 960 q 228 999 200 999 m 183 788 l 110 783 q 50 803 72 783 q 28 852 28 822 q 48 901 28 882 q 98 919 68 919 q 149 890 128 919 q 183 826 169 861 q 210 783 196 792 q 183 788 199 788 m 344 783 l 272 788 q 246 783 256 788 q 273 826 260 792 q 307 890 286 861 q 358 919 328 919 q 408 901 388 919 q 428 852 428 882 q 405 803 428 822 q 344 783 382 783 m 110 767 l 183 761 q 210 767 196 761 q 183 724 196 758 q 149 660 169 689 q 98 631 128 631 q 48 649 68 631 q 28 697 28 668 q 50 747 28 726 q 110 767 72 767 m 228 553 q 214 553 228 553 q 181 572 200 553 q 161 619 161 590 q 194 692 161 649 q 228 750 226 736 q 262 691 229 735 q 294 619 294 647 q 275 572 294 590 q 228 553 256 553 m 272 761 l 344 767 q 405 747 382 767 q 428 697 428 726 q 408 649 428 668 q 358 631 388 631 q 307 660 328 631 q 273 724 286 689 q 246 767 260 758 q 272 761 260 761 z "},"+":{"ha":824,"x_min":115,"x_max":774,"o":"m 115 314 l 115 343 l 431 343 l 431 658 l 458 658 l 458 343 l 774 343 l 774 314 l 458 314 l 458 0 l 431 0 l 431 314 l 115 314 z "},",":{"ha":458,"x_min":75,"x_max":393,"o":"m 368 64 q 293 206 368 160 q 259 218 271 218 q 247 207 247 218 q 263 190 247 196 q 321 97 321 165 q 285 17 321 47 q 198 -14 250 -14 q 110 23 146 -14 q 75 115 75 60 q 115 210 75 171 q 219 250 154 250 q 339 202 285 250 q 393 63 393 154 q 203 -200 393 -110 l 192 -178 q 368 64 368 -94 z "},"-":{"ha":429,"x_min":72,"x_max":347,"o":"m 72 314 l 72 343 l 347 343 l 347 314 l 72 314 z "},".":{"ha":410,"x_min":74,"x_max":336,"o":"m 205 -14 q 177 -14 205 -14 q 112 24 150 -14 q 74 117 74 63 q 112 210 74 172 q 206 249 150 249 q 299 210 261 249 q 336 117 336 172 q 298 24 336 63 q 205 -14 260 -14 z "},"/":{"ha":483,"x_min":46,"x_max":469,"o":"m 46 -158 l 443 972 l 469 964 l 74 -168 l 46 -158 z "},":":{"ha":408,"x_min":65,"x_max":329,"o":"m 103 24 q 84 43 103 24 q 65 118 65 63 q 103 212 65 174 q 197 250 142 250 q 291 212 253 250 q 329 118 329 174 q 291 24 329 63 q 197 -14 253 -14 q 103 24 142 -14 m 103 452 q 84 471 103 452 q 65 546 65 490 q 103 640 65 601 q 197 678 142 678 q 291 640 253 678 q 329 546 329 601 q 291 452 329 490 q 197 414 253 414 q 103 452 142 414 z "},";":{"ha":458,"x_min":69,"x_max":385,"o":"m 288 206 q 253 218 265 218 q 242 207 242 218 q 257 190 242 196 q 315 97 315 165 q 280 17 315 47 q 192 -14 244 -14 q 105 23 140 -14 q 69 115 69 60 q 109 210 69 169 q 215 250 149 250 q 333 203 281 250 q 385 65 385 157 q 199 -201 385 -112 l 188 -179 q 281 -115 239 -156 q 360 61 360 -39 q 288 206 360 161 m 110 452 q 91 471 110 452 q 72 546 72 490 q 110 640 72 601 q 204 678 149 678 q 298 640 260 678 q 336 546 336 601 q 298 452 336 490 q 204 414 260 414 q 110 452 149 414 z "},"<":{"ha":654,"x_min":19,"x_max":664,"o":"m 19 306 l 19 333 l 653 568 l 664 540 l 67 319 l 664 99 l 653 71 l 19 306 z "},"=":{"ha":892,"x_min":115,"x_max":774,"o":"m 115 200 l 115 229 l 774 229 l 774 200 l 115 200 m 774 458 l 774 429 l 115 429 l 115 458 l 774 458 z "},">":{"ha":708,"x_min":3,"x_max":647,"o":"m 647 333 l 647 306 l 14 71 l 3 99 l 600 319 l 3 540 l 14 568 l 647 333 z "},"?":{"ha":700,"x_min":3,"x_max":631,"o":"m 345 -14 q 323 -14 345 -14 q 268 18 300 -14 q 236 95 236 50 q 268 172 236 140 q 345 204 300 204 q 422 172 390 204 q 454 95 454 140 q 422 18 454 50 q 345 -14 390 -14 m 350 251 q 259 283 299 251 q 219 367 219 315 q 240 458 219 419 q 284 522 260 496 q 328 605 308 547 q 349 742 349 663 q 203 949 349 949 q 81 903 135 949 q 28 793 28 857 q 39 744 28 761 q 58 726 50 726 q 71 739 71 726 q 63 757 71 743 q 54 801 54 771 q 82 857 54 832 q 152 882 110 882 q 225 851 194 882 q 256 772 256 819 q 222 690 256 724 q 133 657 188 657 q 40 695 78 657 q 3 792 3 733 q 87 941 3 882 q 299 1000 171 1000 q 550 933 469 1000 q 631 763 631 865 q 592 636 631 690 q 497 551 553 582 q 384 496 440 521 q 289 439 328 471 q 250 365 250 407 q 279 300 250 324 q 349 276 308 276 q 478 347 422 276 l 496 331 q 350 251 436 251 z "},"@":{"ha":1158,"x_min":69,"x_max":1089,"o":"m 1050 351 q 914 681 1050 553 q 581 810 778 810 q 247 671 385 810 q 108 338 108 532 q 247 4 108 143 q 579 -135 385 -135 q 803 -79 699 -135 l 822 -111 q 579 -172 708 -172 q 219 -23 368 -172 q 69 338 69 126 q 219 698 69 549 q 581 847 368 847 q 942 708 794 847 q 1089 351 1089 569 q 1013 138 1089 221 q 817 54 938 54 q 717 94 757 54 q 672 186 676 133 l 665 186 q 610 90 650 125 q 490 54 571 54 q 353 90 408 54 q 297 206 297 126 q 647 376 297 376 l 647 414 q 622 557 647 524 q 518 596 592 596 q 393 561 444 596 q 358 503 358 538 q 370 490 358 490 q 385 506 382 490 q 450 551 397 551 q 503 528 479 551 q 528 467 528 504 q 501 406 528 431 q 432 382 475 382 q 360 412 389 382 q 331 483 331 442 q 560 625 331 625 q 801 564 739 625 q 864 361 864 503 l 864 168 q 899 118 864 118 q 999 182 947 118 q 1050 351 1050 246 m 647 249 l 647 351 q 636 351 642 351 q 514 229 514 351 q 531 142 514 171 q 580 113 549 113 q 629 156 611 113 q 647 249 647 199 z "},"A":{"ha":869,"x_min":-46,"x_max":897,"o":"m 897 35 l 897 13 l 450 13 l 450 35 l 540 35 l 433 343 l 204 343 l 156 200 q 138 119 138 146 q 170 53 138 71 q 263 35 203 35 l 311 35 l 311 13 l -46 13 l -46 35 q 23 44 -4 35 q 69 80 50 53 q 98 128 89 107 q 125 201 107 149 l 365 882 q 386 932 376 914 q 427 969 396 950 q 507 988 458 988 l 839 35 l 897 35 m 319 674 l 213 365 l 426 365 l 319 674 z "},"B":{"ha":1008,"x_min":42,"x_max":964,"o":"m 607 546 l 607 538 q 847 481 744 535 q 933 404 901 453 q 964 293 964 356 q 514 13 964 13 l 42 13 l 42 35 l 144 35 l 144 950 l 42 950 l 42 972 l 519 972 q 828 926 731 972 q 925 767 925 879 q 831 601 925 656 q 622 546 738 546 l 607 546 m 468 35 q 628 101 585 35 q 672 294 672 167 q 614 472 672 421 q 460 522 556 522 l 426 522 l 426 35 l 468 35 m 457 546 q 586 606 540 546 q 632 749 632 665 q 589 892 632 833 q 450 950 546 950 l 426 950 l 426 546 l 457 546 z "},"C":{"ha":904,"x_min":42,"x_max":863,"o":"m 550 972 q 397 858 443 972 q 350 500 350 744 q 397 137 350 256 q 550 18 443 18 q 703 74 636 18 q 802 203 771 131 q 833 342 833 276 l 863 342 q 756 81 853 176 q 525 -14 658 -14 q 163 124 285 -14 q 42 496 42 263 q 154 833 42 682 q 304 953 210 907 q 518 999 399 999 q 656 974 592 999 q 747 950 721 950 q 790 962 774 950 q 815 999 806 974 l 833 999 l 833 604 l 815 604 q 796 672 801 651 q 774 739 790 692 q 744 810 757 786 q 710 872 732 835 q 667 926 688 908 q 550 972 611 972 z "},"D":{"ha":1058,"x_min":46,"x_max":1019,"o":"m 418 35 l 464 35 q 650 141 589 35 q 711 500 711 247 q 649 851 711 753 q 474 949 588 949 l 418 949 l 418 35 m 492 13 l 46 13 l 46 35 l 135 35 l 135 949 l 46 949 l 46 972 l 478 972 q 890 847 760 972 q 1019 504 1019 721 q 900 158 1019 292 q 735 51 839 89 q 492 13 631 13 z "},"E":{"ha":953,"x_min":42,"x_max":856,"o":"m 42 13 l 42 35 l 131 35 l 131 950 l 42 950 l 42 972 l 829 972 l 829 656 l 807 656 q 743 879 807 808 q 518 950 679 950 l 414 950 l 414 522 l 465 522 q 649 721 649 522 l 672 721 l 672 297 l 649 297 q 599 449 649 397 q 460 500 550 500 l 414 500 l 414 35 l 499 35 q 775 142 708 35 q 822 257 810 196 q 833 408 833 318 l 856 408 l 856 13 l 42 13 z "},"F":{"ha":871,"x_min":42,"x_max":829,"o":"m 503 35 l 503 13 l 42 13 l 42 35 l 131 35 l 131 950 l 42 950 l 42 972 l 829 972 l 829 642 l 807 642 q 742 874 807 797 q 518 950 678 950 l 414 950 l 414 522 l 479 522 q 663 721 663 522 l 685 721 l 685 297 l 663 297 q 613 449 663 397 q 474 500 564 500 l 414 500 l 414 35 l 503 35 z "},"G":{"ha":990,"x_min":42,"x_max":963,"o":"m 894 -3 q 793 19 849 19 q 662 3 738 19 q 525 -14 586 -14 q 114 189 235 -14 q 42 496 42 313 q 154 833 42 682 q 304 953 210 907 q 518 999 399 999 q 656 974 592 999 q 747 950 721 950 q 790 962 774 950 q 815 999 806 974 l 833 999 l 833 604 l 815 604 q 796 672 801 651 q 774 739 790 692 q 744 810 757 786 q 710 872 732 835 q 667 926 688 908 q 550 972 611 972 q 397 860 444 972 q 350 501 350 747 q 397 135 350 254 q 556 17 443 17 q 619 22 592 17 l 619 410 l 539 410 l 539 432 l 963 432 l 963 410 l 894 410 l 894 -3 z "},"H":{"ha":1096,"x_min":42,"x_max":1057,"o":"m 144 950 l 42 950 l 42 972 l 517 972 l 517 950 l 428 950 l 428 519 l 671 519 l 671 950 l 582 950 l 582 972 l 1057 972 l 1057 950 l 954 950 l 954 35 l 1057 35 l 1057 13 l 582 13 l 582 35 l 671 35 l 671 497 l 428 497 l 428 35 l 517 35 l 517 13 l 42 13 l 42 35 l 144 35 l 144 950 z "},"I":{"ha":589,"x_min":42,"x_max":547,"o":"m 547 35 l 547 13 l 42 13 l 42 35 l 144 35 l 144 950 l 42 950 l 42 972 l 544 972 l 544 950 l 428 950 l 428 35 l 547 35 z "},"J":{"ha":639,"x_min":14,"x_max":597,"o":"m 196 -285 q 71 -240 128 -285 q 14 -126 14 -196 q 57 -11 14 -56 q 157 33 100 33 q 253 -3 214 33 q 292 -92 292 -39 q 259 -183 292 -146 q 172 -219 226 -219 q 119 -208 142 -219 q 90 -186 97 -197 l 83 -174 q 67 -157 75 -157 q 54 -169 54 -157 q 63 -192 54 -172 q 108 -235 72 -212 q 190 -258 144 -258 q 310 -209 269 -258 q 351 -103 351 -160 q 335 -10 351 -46 q 297 47 319 26 q 211 97 250 88 l 196 101 l 196 950 l 94 950 l 94 972 l 597 972 l 597 950 l 481 950 l 481 56 q 403 -197 481 -108 q 196 -285 326 -285 z "},"K":{"ha":1058,"x_min":42,"x_max":1079,"o":"m 1079 35 l 1079 13 l 608 13 l 608 35 l 696 35 l 483 478 l 414 392 l 414 35 l 501 35 l 501 13 l 42 13 l 42 35 l 131 35 l 131 950 l 42 950 l 42 972 l 479 972 l 479 950 l 414 950 l 414 438 l 732 828 q 769 903 769 875 q 742 941 769 932 q 647 950 715 950 l 574 950 l 574 972 l 982 972 l 982 950 q 797 864 868 950 l 668 704 l 1024 35 l 1079 35 z "},"L":{"ha":846,"x_min":42,"x_max":804,"o":"m 42 13 l 42 35 l 131 35 l 131 950 l 42 950 l 42 972 l 531 972 l 531 950 l 414 950 l 414 35 l 463 35 q 696 159 615 35 q 776 492 776 283 l 804 492 l 804 13 l 42 13 z "},"M":{"ha":1265,"x_min":-42,"x_max":1224,"o":"m 158 828 l 158 282 q 168 119 158 163 q 194 64 178 76 q 315 35 232 35 l 349 35 l 349 13 l -42 13 l -42 35 l -26 35 q 94 69 54 38 q 128 186 122 94 q 131 283 131 219 l 131 850 q 100 929 131 908 q 3 950 69 950 l 3 972 l 424 972 l 664 344 l 868 972 l 1224 972 l 1224 950 l 1135 950 l 1135 35 l 1224 35 l 1224 13 l 771 13 l 771 35 l 860 35 l 860 828 l 850 828 l 585 13 l 558 13 q 439 115 478 13 l 164 828 l 158 828 z "},"N":{"ha":957,"x_min":-47,"x_max":997,"o":"m -17 950 l -17 972 l 268 972 q 362 953 325 972 q 439 871 399 935 l 790 306 l 796 306 l 796 647 q 760 903 796 858 q 639 950 719 950 l 593 950 l 593 972 l 997 972 l 997 950 l 981 950 q 872 908 901 947 q 845 866 856 888 q 831 804 835 844 q 824 646 824 738 l 824 13 l 742 13 q 648 31 685 13 q 571 114 611 50 l 160 761 l 160 310 q 196 72 160 107 q 317 35 236 35 l 343 35 l 343 13 l -47 13 l -47 35 l -25 35 q 96 79 57 38 q 132 311 132 118 l 132 806 l 108 843 q 99 859 107 844 q 86 880 90 874 q 72 899 82 886 q 54 919 63 913 q 35 935 46 926 q -17 950 14 950 z "},"O":{"ha":1036,"x_min":42,"x_max":994,"o":"m 694 17 q 518 -14 614 -14 q 342 16 422 -14 q 206 95 261 46 q 114 211 151 144 q 42 496 42 338 q 154 833 42 682 q 304 953 210 907 q 518 999 399 999 q 732 955 638 999 q 882 839 826 911 q 994 496 994 690 q 922 211 994 338 q 694 17 843 71 m 425 52 q 442 32 425 52 q 518 13 460 13 q 611 52 576 13 q 666 199 646 92 q 686 496 686 307 q 666 791 686 685 q 611 935 646 897 q 518 972 576 972 q 425 935 460 972 q 370 791 390 897 q 350 496 350 685 q 370 199 350 307 q 425 52 390 92 z "},"P":{"ha":881,"x_min":42,"x_max":922,"o":"m 550 425 l 414 425 l 414 35 l 501 35 l 501 13 l 42 13 l 42 35 l 131 35 l 131 950 l 42 950 l 42 972 l 517 972 q 819 917 715 972 q 922 721 922 863 q 828 491 922 557 q 550 425 735 425 m 414 950 l 414 449 l 478 449 q 583 492 554 449 q 608 536 599 515 q 622 594 618 557 q 628 714 628 643 q 585 900 628 850 q 460 950 542 950 l 414 950 z "},"Q":{"ha":1036,"x_min":42,"x_max":994,"o":"m 644 -225 q 662 -244 644 -225 q 722 -288 681 -262 q 806 -314 764 -314 q 878 -294 847 -314 q 918 -255 908 -274 q 928 -225 928 -236 q 917 -214 928 -214 q 899 -233 907 -214 q 817 -282 876 -282 q 726 -247 758 -282 q 694 -160 694 -212 q 733 -71 694 -107 q 830 -35 772 -35 q 925 -75 888 -35 q 963 -181 963 -115 q 920 -292 963 -246 q 801 -339 878 -339 q 576 -277 725 -339 q 350 -215 428 -215 q 232 -276 232 -215 q 257 -339 232 -301 l 235 -351 q 193 -236 193 -300 q 265 -84 193 -146 q 457 -17 338 -22 l 457 -10 q 271 49 353 1 q 140 169 189 97 q 42 496 42 314 q 154 833 42 682 q 304 953 210 907 q 518 999 399 999 q 732 955 638 999 q 882 839 826 911 q 994 499 994 690 q 898 175 994 307 q 606 -10 801 43 q 411 -46 514 -35 l 411 -50 q 571 -150 485 -58 q 644 -225 607 -187 m 425 52 q 442 32 425 52 q 518 13 460 13 q 611 52 576 13 q 666 199 646 92 q 686 496 686 307 q 666 791 686 685 q 611 935 646 897 q 518 972 576 972 q 425 935 460 972 q 370 791 390 897 q 350 496 350 685 q 370 199 350 307 q 425 52 390 92 z "},"R":{"ha":1029,"x_min":42,"x_max":1029,"o":"m 649 475 q 861 411 786 475 q 910 324 897 379 q 922 151 922 269 l 922 129 q 953 54 922 54 q 983 92 969 54 q 1004 189 997 131 l 1029 186 q 1015 106 1024 136 q 988 44 1007 75 q 836 -14 950 -14 q 665 63 722 -14 q 635 131 643 93 q 626 267 626 169 q 600 406 626 364 q 481 456 571 456 l 414 456 l 414 35 l 501 35 l 501 13 l 42 13 l 42 35 l 131 35 l 131 950 l 42 950 l 42 972 l 517 972 q 819 917 715 972 q 922 718 922 861 q 649 481 922 515 l 649 475 m 414 950 l 414 479 l 478 479 q 596 525 557 479 q 628 706 628 563 q 585 899 628 849 q 460 950 542 950 l 414 950 z "},"S":{"ha":893,"x_min":65,"x_max":838,"o":"m 838 299 q 724 66 838 146 q 446 -14 611 -14 q 284 13 372 -14 q 169 39 196 39 q 124 26 143 39 q 96 0 104 13 l 88 -14 l 65 -14 l 65 381 l 88 381 q 133 267 114 310 q 184 169 151 224 q 250 85 217 115 q 334 33 283 54 q 447 11 385 11 q 556 49 510 11 q 601 165 601 88 q 551 265 601 224 q 468 320 514 297 q 391 358 422 343 q 322 390 360 372 q 244 433 283 408 q 161 494 204 457 q 74 704 74 571 q 177 918 74 838 q 438 999 281 999 q 594 974 511 999 q 703 950 676 950 q 745 962 729 950 q 771 999 761 974 l 793 999 l 793 658 l 771 658 q 650 878 735 782 q 453 974 565 974 q 304 833 304 974 q 356 718 304 763 q 576 594 414 668 q 756 490 721 529 q 797 442 775 469 q 838 299 838 389 z "},"T":{"ha":933,"x_min":42,"x_max":892,"o":"m 222 13 l 222 35 l 325 35 l 325 950 q 213 913 263 950 q 135 826 163 876 q 92 714 108 775 q 63 538 63 613 l 42 538 l 42 972 l 892 972 l 892 538 l 871 538 q 848 694 871 613 q 798 826 825 775 q 721 913 771 876 q 608 950 671 950 l 608 35 l 711 35 l 711 13 l 222 13 z "},"U":{"ha":1019,"x_min":42,"x_max":1061,"o":"m 617 972 l 1061 972 l 1061 950 q 879 694 879 950 l 879 419 q 804 88 879 189 q 532 -14 729 -14 q 242 72 336 -14 q 139 314 161 146 q 131 485 131 385 l 131 950 l 42 950 l 42 972 l 503 972 l 503 950 l 414 950 l 414 494 q 443 185 414 269 q 536 50 479 81 q 619 31 571 31 q 707 45 668 31 q 772 88 746 60 q 814 151 797 117 q 839 232 831 185 q 854 421 854 318 l 854 694 q 799 888 854 825 q 617 950 743 950 l 617 972 z "},"V":{"ha":850,"x_min":-28,"x_max":933,"o":"m 744 793 q 758 862 758 835 q 747 907 758 889 q 722 933 735 925 q 685 946 710 942 q 653 950 661 950 l 578 950 l 578 972 l 933 972 l 933 950 q 870 942 886 950 q 844 931 854 935 q 826 915 835 928 q 812 898 817 903 q 799 874 807 893 q 790 849 792 854 q 779 817 788 843 q 768 783 771 792 l 503 0 l 468 0 q 349 103 383 0 l 53 950 l -28 950 l -28 972 l 471 972 l 471 950 l 351 950 l 575 307 l 579 307 l 744 793 z "},"W":{"ha":1469,"x_min":0,"x_max":1553,"o":"m 1332 699 q 1358 807 1358 778 q 1355 855 1358 836 q 1339 897 1351 874 q 1222 950 1314 950 l 1169 950 l 1169 972 l 1553 972 l 1553 950 q 1383 774 1439 950 l 1122 0 l 1088 0 q 968 103 1003 0 l 764 688 l 531 0 l 496 0 q 376 103 411 0 l 81 950 l 0 950 l 0 972 l 499 972 l 499 950 l 379 950 l 603 307 l 607 307 l 750 728 l 672 950 l 592 950 l 592 972 l 1090 972 l 1090 950 l 971 950 l 1194 307 l 1199 307 l 1332 699 z "},"X":{"ha":890,"x_min":-69,"x_max":939,"o":"m 931 972 l 931 950 q 817 924 863 947 q 744 836 772 900 l 599 506 l 849 35 l 939 35 l 939 13 l 438 13 l 438 35 l 529 35 l 290 483 l 181 229 q 147 115 147 150 q 272 35 147 35 l 311 35 l 311 13 l -69 13 l -69 35 q 44 61 -1 38 q 117 149 89 85 l 276 511 l 43 950 l -44 950 l -44 972 l 457 972 l 457 950 l 363 950 l 583 533 l 681 753 q 714 869 714 832 q 589 950 714 950 l 521 950 l 521 972 l 931 972 z "},"Y":{"ha":815,"x_min":-56,"x_max":935,"o":"m 715 858 q 571 950 715 950 l 532 950 l 532 972 l 935 972 l 935 950 q 767 865 808 950 l 569 414 l 569 35 l 658 35 l 658 13 l 197 13 l 197 35 l 286 35 l 286 392 l 25 950 l -56 950 l -56 972 l 446 972 l 446 950 l 325 950 l 556 454 l 688 757 q 715 858 715 817 z "},"Z":{"ha":907,"x_min":28,"x_max":865,"o":"m 81 538 l 81 972 l 865 972 l 343 35 l 431 35 q 736 139 631 35 q 842 483 842 243 l 861 483 l 861 13 l 28 13 l 543 946 l 454 946 q 194 842 275 946 q 100 538 114 739 l 81 538 z "},"[":{"ha":425,"x_min":83,"x_max":425,"o":"m 425 972 l 425 950 l 264 950 l 264 -275 l 425 -275 l 425 -297 l 83 -297 l 83 972 l 425 972 z "},"\\":{"ha":483,"x_min":14,"x_max":438,"o":"m 40 972 l 438 -158 l 410 -168 l 14 964 l 40 972 z "},"]":{"ha":425,"x_min":0,"x_max":342,"o":"m 161 -275 l 161 950 l 0 950 l 0 972 l 342 972 l 342 -297 l 0 -297 l 0 -275 l 161 -275 z "},"^":{"ha":663,"x_min":119,"x_max":599,"o":"m 599 206 l 576 193 l 358 606 l 140 193 l 119 207 l 350 651 l 365 651 l 599 206 z "},"_":{"ha":608,"x_min":-36,"x_max":650,"o":"m 650 -268 l 650 -297 l -36 -297 l -36 -268 l 650 -268 z "},"`":{"ha":489,"x_min":42,"x_max":463,"o":"m 42 849 l 49 874 l 463 760 l 456 736 l 42 849 z "},"a":{"ha":839,"x_min":42,"x_max":849,"o":"m 468 222 l 468 351 q 458 351 463 351 q 349 316 393 351 q 304 203 304 281 q 326 91 304 126 q 386 56 349 56 q 446 108 424 56 q 468 222 468 161 m 756 65 q 824 204 808 65 l 849 201 q 656 -14 822 -14 q 543 33 586 -14 q 494 144 500 79 l 486 144 q 421 28 467 69 q 276 -14 375 -14 q 109 30 176 -14 q 42 169 42 74 q 468 376 42 376 l 468 422 q 435 600 468 557 q 390 635 419 619 q 318 650 360 650 q 178 614 239 650 q 118 535 118 578 q 131 522 118 522 q 142 527 139 522 q 146 537 144 532 q 149 545 147 542 q 155 557 150 549 q 179 579 160 565 q 232 593 199 593 q 290 563 265 593 q 314 490 314 533 q 282 417 314 447 q 201 388 250 388 q 119 422 153 388 q 85 504 85 456 q 158 631 85 585 q 370 678 232 678 q 590 642 508 678 q 701 540 672 606 q 731 358 731 474 l 731 122 q 756 65 731 65 z "},"b":{"ha":861,"x_min":6,"x_max":819,"o":"m 367 85 l 367 13 l 18 13 l 18 35 l 104 35 l 104 950 l 6 950 l 6 972 l 89 972 q 367 999 240 972 l 367 556 l 374 556 q 447 650 400 622 q 568 678 493 678 q 759 581 699 678 q 819 333 819 485 q 751 84 819 182 q 552 -14 682 -14 q 374 85 422 -14 l 367 85 m 361 332 l 361 294 q 393 105 361 172 q 467 38 425 38 q 539 332 539 38 q 524 547 539 479 q 467 615 510 615 q 389 527 417 615 q 361 332 361 439 z "},"c":{"ha":683,"x_min":42,"x_max":664,"o":"m 453 25 q 487 25 453 25 q 571 79 521 25 q 636 214 621 133 l 639 228 l 664 228 q 581 53 651 121 q 406 -14 510 -14 q 139 76 236 -14 q 42 331 42 167 q 141 587 42 496 q 408 678 240 678 q 590 619 526 678 q 653 497 653 561 q 620 399 653 433 q 538 364 588 364 q 456 394 488 364 q 425 469 425 425 q 451 541 425 513 q 518 569 476 569 q 594 514 576 569 q 610 496 600 496 q 622 510 622 496 q 619 525 622 514 q 454 639 581 639 q 390 619 417 639 q 351 572 364 599 q 331 500 338 546 q 322 358 322 443 q 324 231 322 274 q 333 144 326 188 q 354 78 340 101 q 453 25 385 25 z "},"d":{"ha":863,"x_min":56,"x_max":857,"o":"m 771 35 l 857 35 l 857 13 l 508 13 l 508 108 l 501 108 q 428 14 475 42 q 307 -14 382 -14 q 120 85 185 -14 q 56 332 56 183 q 326 678 56 678 q 501 579 453 678 l 508 579 l 508 950 l 410 950 l 410 972 l 493 972 q 771 999 644 972 l 771 35 m 514 332 l 514 369 q 482 559 514 492 q 408 626 450 626 q 353 556 369 626 q 336 340 336 485 q 351 122 336 194 q 408 49 365 49 q 486 137 458 49 q 514 332 514 225 z "},"e":{"ha":744,"x_min":42,"x_max":724,"o":"m 324 276 q 355 85 324 150 q 470 19 386 19 q 616 74 554 19 q 696 219 678 128 l 699 232 l 724 228 q 628 50 704 114 q 429 -14 551 -14 q 143 74 244 -14 q 42 328 42 163 q 139 585 42 493 q 403 678 236 678 q 630 627 539 678 q 721 471 721 576 q 636 321 721 365 q 415 276 551 276 l 324 276 m 322 401 l 322 301 l 357 301 q 444 344 419 301 q 468 468 468 386 q 403 653 468 653 q 341 603 360 653 q 322 401 322 553 z "},"f":{"ha":490,"x_min":14,"x_max":467,"o":"m 407 844 q 419 831 407 831 q 435 858 435 831 q 398 942 435 910 q 310 974 361 974 q 215 931 258 974 q 171 824 171 889 q 399 651 171 651 l 467 651 l 467 629 l 363 629 l 363 35 l 467 35 l 467 13 l 14 13 l 14 35 l 100 35 l 100 629 l 14 629 l 14 651 l 100 651 l 100 726 q 122 853 100 801 q 167 933 143 906 q 314 999 221 999 q 419 956 378 999 q 461 856 461 913 q 426 759 461 800 q 335 718 390 718 q 247 753 281 718 q 213 831 213 788 q 241 907 213 875 q 313 939 269 939 q 378 916 356 939 q 406 863 401 893 l 407 844 z "},"g":{"ha":754,"x_min":28,"x_max":731,"o":"m 61 406 q 154 607 61 536 q 381 678 247 678 q 465 669 424 678 q 431 764 431 708 q 469 860 431 819 q 562 900 507 900 q 653 868 617 900 q 689 786 689 836 q 660 705 689 736 q 587 674 631 674 q 515 699 543 674 q 486 765 486 725 q 514 829 486 806 q 535 851 535 839 q 522 864 535 864 q 501 856 514 864 q 456 763 456 821 q 540 646 456 689 q 700 406 700 576 q 607 204 700 275 q 381 133 514 133 q 217 165 289 133 q 128 88 128 128 q 150 51 128 60 q 226 42 172 42 q 399 69 281 42 q 556 97 518 97 q 683 56 636 97 q 731 -54 731 14 q 640 -236 731 -161 q 424 -311 550 -311 q 179 -193 274 -311 q 69 -142 111 -187 q 28 -31 28 -96 q 70 90 28 33 q 189 181 113 147 q 61 406 61 253 m 349 167 q 356 163 349 167 q 381 158 363 158 q 412 167 399 158 q 433 197 425 176 q 445 235 440 217 q 451 289 450 254 q 453 344 453 324 q 454 406 454 365 q 453 467 454 446 q 451 522 453 488 q 445 576 450 557 q 433 615 440 594 q 412 644 425 635 q 381 653 399 653 q 349 644 363 653 q 328 615 336 635 q 316 576 321 594 q 310 522 311 557 q 308 467 308 488 q 307 406 307 446 q 308 344 307 365 q 310 289 308 324 q 316 235 311 254 q 328 197 321 217 q 349 167 336 176 m 547 -140 q 383 -165 508 -140 q 214 -193 258 -190 q 424 -286 292 -286 q 559 -258 496 -286 q 622 -192 622 -229 q 547 -140 622 -140 z "},"h":{"ha":885,"x_min":14,"x_max":879,"o":"m 113 950 l 14 950 l 14 972 l 97 972 q 375 999 249 972 l 375 556 l 382 556 q 455 650 408 622 q 576 678 501 678 q 744 603 696 678 q 793 392 793 529 l 793 35 l 879 35 l 879 13 l 450 13 l 450 35 l 536 35 l 536 333 q 524 542 536 476 q 468 608 511 608 q 394 520 419 608 q 369 313 369 432 l 369 13 l 26 13 l 26 35 l 113 35 l 113 950 z "},"i":{"ha":481,"x_min":19,"x_max":467,"o":"m 118 629 l 19 629 l 19 651 l 103 651 q 381 678 254 651 l 381 35 l 467 35 l 467 13 l 32 13 l 32 35 l 118 35 l 118 629 m 249 736 q 222 736 249 736 q 156 774 194 736 q 118 867 118 813 q 156 960 118 922 q 250 999 194 999 q 343 960 306 999 q 381 867 381 922 q 342 774 381 813 q 249 736 304 736 z "},"j":{"ha":481,"x_min":19,"x_max":381,"o":"m 381 -14 q 340 -211 381 -126 q 274 -284 318 -257 q 167 -311 229 -311 q 63 -271 104 -311 q 21 -174 21 -231 q 53 -81 21 -118 q 138 -43 86 -43 q 222 -74 190 -43 q 253 -149 253 -104 q 226 -224 253 -194 q 159 -253 200 -253 q 94 -225 118 -253 q 72 -204 83 -204 q 60 -217 60 -204 q 68 -237 60 -225 q 167 -286 104 -286 q 267 -242 231 -286 q 304 -135 304 -199 q 259 -27 304 -71 q 140 17 214 17 q 118 15 129 17 l 118 629 l 19 629 l 19 651 l 103 651 q 381 678 254 651 l 381 -14 m 244 736 q 216 736 244 736 q 151 774 189 736 q 113 867 113 813 q 151 960 113 922 q 244 999 189 999 q 338 960 300 999 q 375 867 375 922 q 337 774 375 813 q 244 736 299 736 z "},"k":{"ha":853,"x_min":14,"x_max":882,"o":"m 851 21 l 879 22 l 882 1 q 692 -15 732 -15 q 613 1 653 -15 q 552 41 574 17 q 519 106 531 65 q 501 272 501 163 q 439 383 501 381 q 375 378 411 381 l 375 35 l 469 35 l 469 13 l 21 13 l 21 35 l 113 35 l 113 950 l 14 950 l 14 972 l 97 972 q 375 999 249 972 l 375 404 q 612 462 522 415 q 701 593 701 508 q 657 688 701 654 q 636 696 644 696 q 624 683 624 696 q 633 669 624 676 q 644 661 642 663 q 672 599 672 638 q 644 535 672 560 q 573 510 617 510 q 499 541 529 510 q 469 622 469 572 q 506 703 469 672 q 596 735 542 735 q 688 694 650 735 q 726 592 726 653 q 582 421 726 479 l 583 415 q 717 374 664 415 q 758 317 740 356 q 776 210 776 278 q 788 94 776 142 q 813 34 799 47 q 851 21 828 21 z "},"l":{"ha":483,"x_min":19,"x_max":469,"o":"m 118 35 l 118 950 l 19 950 l 19 972 l 103 972 q 381 999 254 972 l 381 35 l 469 35 l 469 13 l 32 13 l 32 35 l 118 35 z "},"m":{"ha":1279,"x_min":14,"x_max":1274,"o":"m 971 678 q 1139 603 1090 678 q 1188 392 1188 529 l 1188 35 l 1274 35 l 1274 13 l 844 13 l 844 35 l 931 35 l 931 333 q 918 539 931 475 q 863 603 906 603 q 789 499 814 603 q 764 271 764 396 l 764 13 l 450 13 l 450 35 l 536 35 l 536 333 q 524 539 536 475 q 468 603 511 603 q 394 499 419 603 q 369 271 369 396 l 369 13 l 26 13 l 26 35 l 113 35 l 113 629 l 14 629 l 14 651 l 97 651 q 375 678 249 651 l 375 542 l 382 542 q 577 678 436 678 q 768 540 718 678 l 769 542 l 776 542 q 971 678 831 678 z "},"n":{"ha":885,"x_min":14,"x_max":879,"o":"m 113 629 l 14 629 l 14 651 l 97 651 q 375 678 249 651 l 375 542 l 382 542 q 576 678 436 678 q 744 603 696 678 q 793 392 793 529 l 793 35 l 879 35 l 879 13 l 450 13 l 450 35 l 536 35 l 536 333 q 524 539 536 475 q 468 603 511 603 q 394 499 419 603 q 369 271 369 396 l 369 13 l 26 13 l 26 35 l 113 35 l 113 629 z "},"o":{"ha":817,"x_min":42,"x_max":775,"o":"m 674 81 q 623 34 674 81 q 408 -14 572 -14 q 143 81 244 -14 q 42 332 42 176 q 143 583 42 488 q 408 678 244 678 q 674 583 572 678 q 775 332 775 488 q 674 81 775 176 m 476 81 q 485 116 476 81 q 494 332 494 151 q 476 583 494 513 q 408 653 457 653 q 341 583 360 653 q 322 332 322 513 q 341 81 322 151 q 408 11 360 11 q 476 81 457 11 z "},"p":{"ha":878,"x_min":8,"x_max":822,"o":"m 369 86 l 369 -262 l 474 -262 l 474 -285 l 21 -285 l 21 -262 l 107 -262 l 107 629 l 8 629 l 8 651 l 92 651 q 369 678 243 651 l 369 556 l 376 556 q 449 650 403 622 q 571 678 496 678 q 762 582 701 678 q 822 335 822 486 q 753 85 822 183 q 555 -12 685 -12 q 376 86 425 -12 l 369 86 m 364 333 l 364 296 q 396 106 364 174 q 469 39 428 39 q 542 333 542 39 q 527 548 542 481 q 469 615 513 615 q 392 528 419 615 q 364 333 364 440 z "},"q":{"ha":875,"x_min":56,"x_max":869,"o":"m 508 579 l 508 678 q 786 651 635 651 l 869 651 l 869 629 l 771 629 l 771 -262 l 857 -262 l 857 -285 l 404 -285 l 404 -262 l 508 -262 l 508 110 l 501 110 q 428 15 475 43 q 307 -12 382 -12 q 119 85 183 -12 q 56 332 56 183 q 326 678 56 678 q 501 579 453 678 l 508 579 m 514 332 l 514 369 q 482 559 514 492 q 408 626 450 626 q 353 556 369 626 q 336 340 336 485 q 351 122 336 194 q 408 50 365 50 q 486 138 458 50 q 514 332 514 225 z "},"r":{"ha":663,"x_min":14,"x_max":682,"o":"m 375 565 l 382 565 q 444 647 404 615 q 542 678 485 678 q 641 640 600 678 q 682 547 682 601 q 650 457 682 493 q 568 421 618 421 q 487 450 518 421 q 456 523 456 479 q 481 595 456 567 q 546 624 507 624 q 608 596 585 624 q 631 575 619 575 q 643 588 643 575 q 635 608 643 596 q 540 653 601 653 q 369 311 369 653 l 369 35 l 474 35 l 474 13 l 26 13 l 26 35 l 113 35 l 113 629 l 14 629 l 14 651 l 97 651 q 375 678 249 651 l 375 565 z "},"s":{"ha":722,"x_min":53,"x_max":681,"o":"m 594 603 q 586 611 594 603 q 535 634 578 619 q 432 649 493 649 q 331 622 371 649 q 290 551 290 594 q 331 474 290 507 q 428 416 371 442 q 542 360 485 390 q 640 285 600 331 q 681 181 681 239 q 590 39 681 92 q 317 -14 499 -14 q 150 15 235 -14 q 80 63 107 31 q 53 144 53 96 q 85 228 53 193 q 167 264 117 264 q 247 235 217 264 q 278 163 278 207 q 252 91 278 118 q 190 64 226 64 q 126 90 153 64 q 122 95 124 93 q 119 99 121 97 q 117 101 118 100 q 107 104 111 104 q 96 92 96 104 q 117 61 96 79 q 189 28 139 43 q 302 13 239 13 q 410 34 365 13 q 456 97 456 56 q 415 173 456 138 q 317 238 375 208 q 201 300 260 268 q 103 377 143 332 q 63 475 63 422 q 144 619 63 563 q 397 676 225 676 q 589 634 525 676 q 653 522 653 592 q 621 435 653 471 q 540 400 589 400 q 460 429 490 400 q 429 502 429 458 q 454 574 429 546 q 517 601 479 601 q 573 581 556 601 q 599 561 590 561 q 611 574 611 561 q 594 603 611 586 z "},"t":{"ha":511,"x_min":28,"x_max":492,"o":"m 388 65 q 456 204 440 65 l 481 201 q 422 42 468 99 q 286 -14 376 -14 q 100 189 100 -14 l 100 629 l 28 629 l 28 651 l 38 651 q 200 701 103 651 q 289 776 249 726 q 344 890 329 826 l 363 890 l 363 651 l 492 651 l 492 629 l 363 629 l 363 122 q 388 65 363 65 z "},"u":{"ha":885,"x_min":6,"x_max":871,"o":"m 785 35 l 871 35 l 871 13 l 522 13 l 522 121 l 515 121 q 321 -15 461 -15 q 153 59 201 -15 q 104 271 104 133 l 104 629 l 6 629 l 6 651 l 89 651 q 361 678 235 651 l 361 329 q 374 127 361 189 q 429 65 386 65 q 503 160 478 65 q 528 378 528 256 l 528 628 l 429 628 l 429 651 l 513 651 q 785 678 658 651 l 785 35 z "},"v":{"ha":707,"x_min":-43,"x_max":682,"o":"m 378 -14 q 227 32 292 -14 q 126 158 163 78 q 56 553 56 317 l 56 629 l -43 629 l -43 651 l 40 651 q 325 678 199 651 l 325 617 q 369 233 325 367 q 490 100 414 100 q 607 210 558 100 q 656 419 656 319 q 626 576 656 519 q 550 647 597 633 q 535 650 539 650 q 521 638 521 650 q 539 622 521 628 q 594 543 594 604 q 566 476 594 501 q 494 450 538 450 q 419 481 450 450 q 389 563 389 513 q 424 645 389 613 q 522 678 458 678 q 634 615 586 678 q 682 431 682 551 q 597 125 682 264 q 378 -14 511 -14 z "},"w":{"ha":1169,"x_min":-43,"x_max":1146,"o":"m 842 -14 q 603 135 686 -14 q 378 -14 513 -14 q 227 32 292 -14 q 126 158 163 78 q 56 553 56 317 l 56 629 l -43 629 l -43 651 l 40 651 q 325 678 199 651 l 325 617 q 369 233 325 367 q 490 100 414 100 q 585 169 542 100 q 519 553 519 315 l 519 629 l 421 629 l 421 651 l 504 651 q 789 678 663 651 l 789 617 q 833 233 789 367 q 954 100 878 100 q 1071 210 1022 100 q 1119 419 1119 319 q 1090 576 1119 519 q 1014 647 1061 633 q 999 650 1003 650 q 985 638 985 650 q 1003 622 985 628 q 1058 543 1058 604 q 1030 476 1058 501 q 958 450 1001 450 q 883 481 914 450 q 853 563 853 513 q 888 645 853 613 q 986 678 922 678 q 1098 615 1050 678 q 1146 431 1146 551 q 1060 125 1146 264 q 842 -14 975 -14 z "},"x":{"ha":818,"x_min":14,"x_max":799,"o":"m 486 514 l 596 281 q 694 97 672 114 q 719 88 706 88 q 747 102 733 88 q 768 131 761 117 l 775 144 l 799 139 q 717 33 776 81 q 576 -14 657 -14 q 453 24 496 -14 q 365 160 411 63 l 353 183 q 149 -14 275 -14 q 51 22 88 -14 q 14 108 14 57 q 44 195 14 160 q 124 231 74 231 q 203 200 175 231 q 232 132 232 169 q 208 67 232 94 q 140 38 183 40 q 124 24 124 38 q 149 11 124 11 q 293 117 232 11 q 339 215 313 149 l 251 403 q 177 551 196 521 q 138 581 158 581 q 100 565 117 581 q 75 535 83 550 l 68 519 l 43 524 q 124 631 68 585 q 258 678 179 678 q 385 646 336 678 q 472 542 433 614 q 547 640 501 601 q 650 678 593 678 q 744 642 707 678 q 781 556 781 607 q 751 469 781 504 q 670 433 721 433 q 591 464 619 433 q 563 532 563 494 q 587 597 563 569 q 654 626 611 624 q 671 640 671 626 q 636 653 671 653 q 557 613 601 653 q 486 514 513 574 z "},"y":{"ha":719,"x_min":-21,"x_max":699,"o":"m 536 678 q 658 619 617 678 q 699 471 699 560 q 557 140 699 261 q 473 78 531 118 q 377 11 415 39 q 307 -62 339 -17 q 275 -157 275 -108 q 342 -276 275 -239 q 357 -282 350 -282 q 369 -269 369 -282 q 358 -256 369 -262 q 315 -185 315 -228 q 342 -113 315 -142 q 412 -85 368 -85 q 488 -115 456 -85 q 519 -197 519 -146 q 485 -281 519 -249 q 393 -314 450 -314 q 293 -272 336 -314 q 250 -163 250 -229 q 281 -53 250 -97 q 368 36 313 -8 q 138 226 197 92 q 79 607 79 360 l 79 629 l -21 629 l -21 651 l 63 651 q 351 678 225 651 q 349 535 349 614 q 365 376 349 457 q 406 250 381 294 q 503 163 454 163 q 642 299 581 163 q 674 474 674 371 q 618 624 674 576 q 577 647 594 647 q 560 635 560 647 q 572 621 560 626 q 619 553 619 599 q 591 480 619 507 q 519 453 563 453 q 447 484 476 453 q 417 564 417 515 q 451 645 417 613 q 536 678 485 678 z "},"z":{"ha":747,"x_min":40,"x_max":733,"o":"m 528 11 q 692 86 650 11 q 696 103 696 92 q 683 114 696 114 q 673 108 676 114 q 665 95 669 101 q 659 86 661 89 q 652 78 657 83 q 642 69 647 72 q 631 64 638 67 q 586 57 618 57 q 529 87 554 57 q 504 160 504 117 q 536 233 504 203 q 617 263 568 263 q 699 228 665 263 q 733 146 733 194 q 678 30 733 74 q 528 -14 622 -14 q 387 1 499 -14 q 201 15 275 15 q 40 0 126 15 l 40 19 l 425 633 q 250 653 263 653 q 86 578 128 653 q 82 561 82 572 q 94 550 82 550 q 105 556 101 550 q 113 569 108 563 q 119 578 117 575 q 126 586 121 581 q 135 594 131 592 q 147 600 140 597 q 192 607 160 607 q 249 577 224 607 q 274 503 274 547 q 242 431 274 460 q 162 401 211 401 q 78 435 113 401 q 44 518 44 469 q 100 634 44 590 q 250 678 156 678 q 390 663 279 678 q 580 649 501 649 q 708 657 658 649 l 708 638 l 329 33 q 528 11 514 11 z "},"{":{"ha":350,"x_min":-4,"x_max":350,"o":"m 153 343 q 220 297 203 328 q 238 220 238 267 q 206 86 238 174 q 174 -62 174 -1 q 281 -256 174 -231 q 350 -262 308 -262 l 350 -285 q 94 -217 192 -285 q -4 -17 -4 -149 q 27 90 -4 44 q 94 158 58 136 q 194 265 194 218 q 90 332 194 332 l 90 353 q 194 422 194 353 q 94 529 194 469 q 27 597 58 551 q -4 704 -4 643 q 94 904 -4 836 q 350 972 192 972 l 350 950 q 281 943 308 950 q 174 750 174 918 q 206 601 174 689 q 238 467 238 514 q 219 389 238 421 q 153 343 201 357 z "},"|":{"ha":503,"x_min":236,"x_max":267,"o":"m 267 999 l 267 -285 l 236 -285 l 236 999 l 267 999 z "},"}":{"ha":354,"x_min":0,"x_max":354,"o":"m 197 344 q 130 390 147 360 q 113 467 113 421 q 144 601 113 514 q 176 750 176 689 q 69 943 176 918 q 0 950 42 950 l 0 972 q 256 904 158 972 q 354 704 354 836 q 323 597 354 643 q 256 529 292 551 q 156 422 156 469 q 260 354 156 354 l 260 336 q 156 265 156 336 q 256 158 156 218 q 323 90 292 136 q 354 -17 354 44 q 256 -217 354 -149 q 0 -285 158 -285 l 0 -262 q 69 -256 42 -262 q 176 -62 176 -231 q 144 86 176 -1 q 113 220 113 174 q 131 299 113 267 q 197 344 149 331 z "},"~":{"ha":814,"x_min":72,"x_max":739,"o":"m 739 383 q 650 333 686 346 q 562 319 614 319 q 408 350 510 319 q 263 381 306 381 q 83 315 176 381 l 72 338 q 265 406 176 406 q 415 375 318 406 q 564 344 511 344 q 722 403 650 344 l 739 383 z "},"":{"ha":0,"x_min":0,"x_max":0,"o":""}," ":{"ha":347,"x_min":0,"x_max":0,"o":""},"¡":{"ha":392,"x_min":43,"x_max":351,"o":"m 185 353 l 210 353 q 232 156 210 242 q 281 28 254 71 q 351 -165 351 -87 q 312 -288 351 -242 q 197 -335 272 -335 q 83 -288 122 -335 q 43 -181 43 -242 q 65 -68 43 -121 q 114 28 88 -15 q 163 156 140 71 q 185 353 185 242 m 102 452 q 83 471 102 452 q 64 546 64 490 q 102 640 64 601 q 196 678 140 678 q 290 640 251 678 q 328 546 328 601 q 290 452 328 490 q 196 414 251 414 q 102 452 140 414 z "},"¢":{"ha":736,"x_min":51,"x_max":674,"o":"m 418 -86 l 390 -86 l 390 26 q 140 123 228 33 q 51 345 51 213 q 139 567 51 478 q 390 664 226 657 l 390 792 l 418 792 l 418 665 q 599 607 536 665 q 663 485 663 549 q 630 386 663 421 q 547 351 597 351 q 466 382 497 351 q 435 456 435 413 q 460 528 435 500 q 528 557 486 557 q 604 501 586 557 q 619 483 610 483 q 632 497 632 483 q 629 513 632 501 q 464 626 590 626 q 359 562 392 626 q 326 350 326 497 q 457 65 326 65 q 581 119 531 65 q 646 254 631 174 l 649 268 l 674 268 q 591 94 661 161 q 418 26 521 28 l 418 -86 z "},"£":{"ha":707,"x_min":28,"x_max":665,"o":"m 551 351 l 551 322 l 406 322 q 419 237 419 274 q 410 164 419 200 q 525 142 476 142 q 604 158 574 142 q 639 225 635 175 l 664 225 q 664 185 664 213 q 656 114 664 158 q 611 28 647 69 q 517 -14 575 -14 q 340 58 436 -14 q 174 1 274 1 q 75 31 122 1 q 28 111 28 61 q 73 194 28 161 q 172 228 118 228 q 281 210 226 228 q 186 322 261 244 l 58 322 l 58 351 l 158 351 q 83 494 83 429 q 178 652 83 599 q 403 706 272 706 q 597 660 535 706 q 658 552 658 614 q 626 456 658 490 q 543 421 593 421 q 462 451 493 421 q 431 526 431 482 q 456 598 431 569 q 524 626 482 626 q 600 571 582 626 q 615 553 606 553 q 628 567 628 553 q 625 582 628 571 q 567 647 610 625 q 469 668 524 668 q 354 536 354 668 q 388 381 354 476 q 397 351 394 360 l 551 351 m 172 26 q 299 89 278 26 q 144 157 213 157 q 85 140 106 157 q 64 97 64 122 q 96 49 64 71 q 172 26 128 26 z "},"¤":{"ha":853,"x_min":69,"x_max":783,"o":"m 251 571 q 426 631 324 631 q 601 571 529 631 l 714 679 l 783 615 l 660 511 q 711 328 711 431 q 656 157 711 225 l 779 47 l 708 -15 l 599 97 q 426 32 529 32 q 254 97 324 32 l 144 -15 l 74 47 l 197 157 q 142 328 142 225 q 193 511 142 431 l 69 615 l 139 679 l 251 571 m 353 331 q 353 225 353 331 q 426 119 353 119 q 500 331 500 119 q 426 543 500 543 q 353 331 353 543 z "},"¥":{"ha":761,"x_min":14,"x_max":747,"o":"m 113 269 l 113 292 l 242 292 l 71 656 l 14 656 l 14 678 l 421 678 l 421 656 l 346 656 l 493 338 l 581 539 q 597 603 597 576 q 504 656 597 656 l 479 656 l 479 678 l 747 678 l 747 656 q 632 599 657 656 l 504 307 l 504 292 l 644 292 l 644 269 l 504 269 l 504 208 l 644 208 l 644 186 l 504 186 l 504 35 l 576 35 l 576 13 l 169 13 l 169 35 l 242 35 l 242 186 l 113 186 l 113 208 l 242 208 l 242 269 l 113 269 z "},"¦":{"ha":307,"x_min":139,"x_max":169,"o":"m 169 -167 l 139 -167 l 139 322 l 169 322 l 169 -167 m 169 510 l 139 510 l 139 999 l 169 999 l 169 510 z "},"§":{"ha":876,"x_min":65,"x_max":814,"o":"m 483 999 q 688 941 621 999 q 754 808 754 883 q 720 722 754 757 q 633 686 686 686 q 547 717 579 686 q 514 794 514 749 q 542 869 514 839 q 613 900 571 900 q 678 876 656 900 q 704 813 700 853 q 718 801 707 801 q 729 813 729 801 q 726 840 729 825 q 708 878 722 854 q 672 923 694 903 q 604 958 649 943 q 492 972 560 972 q 369 940 424 972 q 314 839 314 907 q 351 751 314 793 q 443 679 388 710 q 564 611 499 649 q 685 539 629 574 q 777 452 740 504 q 814 335 814 400 q 775 207 814 269 q 664 106 736 144 q 742 -64 742 28 q 652 -245 742 -179 q 376 -311 563 -311 q 169 -256 242 -311 q 97 -128 97 -201 q 131 -37 97 -75 q 219 1 165 1 q 305 -30 272 1 q 338 -106 338 -61 q 309 -182 338 -151 q 238 -212 281 -212 q 174 -189 196 -212 q 147 -125 151 -165 q 133 -114 144 -114 q 122 -126 122 -114 q 126 -153 122 -139 q 144 -192 129 -168 q 184 -237 160 -217 q 257 -272 208 -257 q 376 -286 306 -286 q 506 -251 446 -286 q 565 -151 565 -215 q 528 -64 565 -106 q 436 8 492 -22 q 315 76 381 39 q 194 149 250 114 q 102 235 139 183 q 65 352 65 288 q 103 478 65 417 q 214 579 142 540 q 138 757 138 650 q 222 931 138 864 q 483 999 307 999 m 233 563 q 188 482 188 531 q 238 388 188 433 q 356 307 289 342 q 644 124 565 196 q 692 203 692 157 q 644 294 692 250 q 533 372 596 339 q 249 550 333 479 l 233 563 z "},"¨":{"ha":1038,"x_min":311,"x_max":729,"o":"m 586 747 q 574 760 586 747 q 561 807 561 772 q 586 866 561 842 q 646 890 611 890 q 705 866 681 890 q 729 807 729 842 q 705 747 729 772 q 646 722 681 722 q 586 747 611 722 m 335 747 q 323 760 335 747 q 311 807 311 772 q 335 866 311 842 q 394 890 360 890 q 454 866 429 890 q 479 807 479 842 q 454 747 479 772 q 394 722 429 722 q 335 747 360 722 z "},"©":{"ha":1126,"x_min":69,"x_max":1057,"o":"m 758 629 q 794 667 783 629 l 813 667 l 813 403 l 794 403 q 783 444 792 413 q 770 490 775 475 q 756 533 765 506 q 735 576 746 561 q 711 608 725 592 q 639 640 685 640 q 519 329 519 640 q 560 106 519 169 q 701 43 601 43 q 928 133 838 43 q 1018 374 1018 224 q 894 689 1018 568 q 578 810 771 810 q 247 671 385 810 q 108 338 108 532 q 247 4 108 143 q 579 -135 385 -135 q 814 -78 707 -135 l 822 -111 q 579 -172 708 -172 q 219 -23 368 -172 q 69 338 69 126 q 219 698 69 549 q 577 847 368 847 q 922 717 786 847 q 1057 376 1057 586 q 953 108 1057 215 q 657 0 849 0 q 396 85 497 0 q 294 351 294 171 q 383 572 294 478 q 621 667 471 667 q 706 648 663 667 q 758 629 749 629 z "},"ª":{"ha":533,"x_min":33,"x_max":524,"o":"m 288 590 l 288 626 q 241 624 258 626 q 206 604 224 621 q 189 553 189 588 q 201 499 189 518 q 232 479 213 479 q 269 514 251 479 q 288 590 288 549 m 300 525 q 256 459 290 490 q 167 428 221 428 q 74 454 114 428 q 33 529 33 481 q 60 603 33 578 q 135 639 86 629 q 288 651 206 651 l 288 681 q 249 801 288 779 q 193 813 229 813 q 125 797 157 813 q 83 746 83 775 q 94 733 83 733 q 110 747 106 733 q 151 779 121 779 q 195 760 181 779 q 210 716 210 742 q 188 672 210 690 q 131 654 165 654 q 76 678 96 654 q 56 733 56 703 q 99 810 56 781 q 224 840 143 840 q 398 797 353 840 q 443 650 443 753 l 443 508 q 458 482 443 482 q 481 502 469 482 q 499 557 493 522 l 524 554 q 399 428 507 428 q 333 456 357 428 q 306 525 308 485 l 300 525 m 103 315 l 103 344 l 426 344 l 426 315 l 103 315 z "},"«":{"ha":435,"x_min":7,"x_max":365,"o":"m 7 329 l 186 568 l 210 550 l 44 329 l 210 108 l 186 90 l 7 329 m 200 329 l 163 329 l 342 568 l 365 550 l 200 329 m 163 329 l 200 329 l 365 108 l 342 90 l 163 329 z "},"¬":{"ha":713,"x_min":47,"x_max":664,"o":"m 47 336 l 47 365 l 664 365 l 664 133 l 633 133 l 633 336 l 47 336 z "},"®":{"ha":1158,"x_min":69,"x_max":1089,"o":"m 832 4 q 678 176 678 4 q 669 267 678 244 q 643 297 660 290 q 596 303 626 303 l 551 303 l 551 36 l 610 36 l 610 13 l 293 13 l 293 36 l 353 36 l 353 628 l 293 628 l 293 651 l 619 651 q 819 617 750 651 q 888 502 888 582 q 842 383 888 422 q 699 333 797 343 l 699 321 q 738 322 719 322 q 858 290 815 322 q 901 154 901 258 l 901 142 q 932 88 901 88 q 1013 159 976 88 q 1050 351 1050 231 q 914 681 1050 553 q 581 810 778 810 q 247 671 385 810 q 108 338 108 532 q 247 4 108 143 q 579 -135 385 -135 q 801 -81 700 -135 l 822 -111 q 579 -172 708 -172 q 219 -23 368 -172 q 69 338 69 126 q 219 698 69 549 q 581 847 368 847 q 942 708 794 847 q 1089 351 1089 569 q 1019 99 1089 193 q 832 4 950 4 m 551 628 l 551 329 l 594 329 q 679 471 679 329 q 658 597 679 567 q 581 628 636 628 l 551 628 z "},"¯":{"ha":393,"x_min":3,"x_max":390,"o":"m 3 792 l 3 818 l 390 818 l 390 792 l 3 792 z "},"°":{"ha":389,"x_min":33,"x_max":356,"o":"m 81 653 q 57 676 81 653 q 33 767 33 700 q 81 881 33 833 q 194 928 128 928 q 308 881 261 928 q 356 767 356 833 q 308 653 356 700 q 194 606 261 606 q 81 653 128 606 m 111 850 q 94 833 111 850 q 76 767 76 815 q 111 683 76 718 q 194 649 146 649 q 278 683 243 649 q 313 767 313 718 q 278 850 313 815 q 194 885 243 885 q 111 850 146 885 z "},"±":{"ha":854,"x_min":115,"x_max":774,"o":"m 115 383 l 115 413 l 431 413 l 431 658 l 458 658 l 458 413 l 774 413 l 774 383 l 458 383 l 458 139 l 431 139 l 431 383 l 115 383 m 774 71 l 774 42 l 115 42 l 115 71 l 774 71 z "},"²":{"ha":594,"x_min":69,"x_max":525,"o":"m 69 407 q 97 510 69 464 q 162 587 124 557 q 239 644 200 617 q 331 781 331 711 q 306 849 331 819 q 233 878 282 878 q 147 848 183 878 q 110 775 110 818 q 121 761 110 761 q 135 774 135 761 q 155 819 138 801 q 203 836 172 836 q 253 815 233 836 q 272 759 272 793 q 246 701 272 725 q 178 676 219 676 q 111 704 138 676 q 85 772 85 732 q 138 872 85 833 q 272 911 192 911 q 453 867 394 911 q 511 753 511 822 q 472 648 511 685 q 340 603 433 611 q 169 558 213 588 q 132 515 146 540 l 139 510 q 193 547 172 543 q 275 556 236 556 l 453 556 q 508 604 507 556 l 525 604 l 525 407 l 69 407 m 150 315 l 150 344 l 474 344 l 474 315 l 150 315 z "},"³":{"ha":572,"x_min":69,"x_max":503,"o":"m 251 393 q 116 425 163 393 q 69 507 69 457 q 98 582 69 557 q 165 607 126 607 q 226 584 203 607 q 250 531 250 561 q 230 478 250 501 q 178 456 210 456 q 124 486 147 456 q 114 493 119 493 q 101 481 101 493 q 104 472 101 478 q 188 426 131 426 q 277 456 246 426 q 308 531 308 485 q 288 610 308 578 q 228 643 267 643 q 168 628 214 643 l 161 651 q 204 666 172 651 q 247 687 236 681 q 272 704 258 693 q 293 726 285 715 q 313 794 313 753 q 288 860 313 836 q 223 883 263 883 q 153 862 183 883 q 122 810 122 840 q 135 797 122 797 q 149 814 143 797 q 210 856 164 856 q 260 833 240 856 q 279 778 279 810 q 255 721 279 746 q 190 696 231 696 q 122 724 149 696 q 96 801 96 753 q 144 880 96 849 q 277 911 193 911 q 413 881 361 911 q 464 801 464 850 q 424 722 464 753 q 307 686 385 692 l 313 674 q 340 675 322 675 q 455 642 407 675 q 503 546 503 610 q 445 438 503 482 q 251 393 388 393 m 136 315 l 136 344 l 460 344 l 460 315 l 136 315 z "},"´":{"ha":456,"x_min":24,"x_max":444,"o":"m 438 874 l 444 849 l 31 736 l 24 760 l 438 874 z "},"µ":{"ha":924,"x_min":14,"x_max":896,"o":"m 539 632 l 440 632 l 440 651 l 524 651 q 801 678 675 651 l 801 19 l 896 19 l 896 0 l 539 0 l 539 126 l 533 126 q 390 -6 490 21 q 355 -30 369 -11 q 340 -78 340 -49 q 375 -128 340 -108 l 374 -128 q 428 -218 428 -156 q 398 -291 428 -261 q 325 -321 368 -321 q 252 -291 282 -321 q 222 -218 222 -261 q 275 -128 222 -156 q 310 -71 310 -110 q 294 -30 310 -49 q 257 -6 279 -11 q 113 274 113 32 l 113 632 l 14 632 l 14 651 l 97 651 q 375 678 249 651 l 375 242 q 392 108 375 149 q 444 67 408 67 q 513 143 486 67 q 539 333 539 219 l 539 632 z "},"¶":{"ha":690,"x_min":-1,"x_max":675,"o":"m 364 -258 l 340 -257 q 326 -269 326 -257 q 364 -286 326 -286 q 500 -223 449 -286 q 551 -56 551 -160 l 551 950 q 460 957 500 953 l 460 -60 q 326 -3 415 -3 q 314 -3 321 -3 l 314 447 q 269 444 299 444 q 75 523 151 444 q -1 719 -1 601 q 82 917 -1 836 q 300 999 165 999 q 435 985 329 999 q 675 972 540 972 l 675 950 l 576 950 l 576 -49 q 515 -244 576 -176 q 357 -311 453 -311 q 247 -272 292 -311 q 203 -172 203 -233 q 242 -75 203 -111 q 333 -39 282 -39 q 423 -70 385 -39 q 461 -150 461 -101 q 432 -228 461 -199 q 364 -258 403 -258 z "},"·":{"ha":408,"x_min":69,"x_max":340,"o":"m 204 199 q 176 199 204 199 q 108 238 147 199 q 69 334 69 278 q 108 430 69 390 q 204 469 147 469 q 301 430 261 469 q 340 333 340 390 q 301 238 340 276 q 204 199 261 199 z "},"¸":{"ha":521,"x_min":142,"x_max":415,"o":"m 186 -97 q 277 -74 222 -74 q 374 -115 332 -74 q 415 -213 415 -156 q 375 -308 415 -271 q 285 -346 335 -346 q 204 -310 235 -346 q 174 -231 174 -275 q 205 -158 174 -186 q 271 -131 236 -131 q 333 -156 306 -131 q 363 -210 361 -181 q 376 -239 364 -239 q 389 -222 389 -239 q 360 -140 389 -181 q 275 -100 331 -100 q 212 -116 243 -100 q 165 -156 181 -132 l 142 -131 l 193 6 l 221 -6 l 186 -97 z "},"¹":{"ha":499,"x_min":69,"x_max":443,"o":"m 189 764 l 182 764 q 144 719 169 739 q 100 692 118 699 l 81 683 l 69 708 q 172 815 150 746 q 183 896 183 850 l 228 896 q 364 911 315 896 l 364 431 l 443 431 l 443 403 l 110 403 l 110 431 l 189 431 l 189 764 m 117 315 l 117 344 l 440 344 l 440 315 l 117 315 z "},"º":{"ha":507,"x_min":35,"x_max":472,"o":"m 88 315 l 88 344 l 411 344 l 411 315 l 88 315 m 472 634 q 472 588 472 634 q 411 485 472 542 q 252 428 350 428 q 94 484 154 428 q 35 633 35 540 q 94 783 35 726 q 252 840 154 840 q 411 783 350 840 q 472 634 472 726 m 253 453 q 267 453 253 453 q 293 491 282 453 q 304 634 304 529 q 293 777 304 739 q 253 815 282 815 q 213 777 224 815 q 203 634 203 739 q 213 491 203 529 q 253 453 224 453 z "},"»":{"ha":435,"x_min":69,"x_max":428,"o":"m 235 329 l 69 550 l 93 568 l 272 329 l 93 90 l 69 108 l 235 329 m 390 329 l 225 550 l 249 568 l 428 329 l 249 90 l 225 108 l 390 329 z "},"¼":{"ha":1151,"x_min":42,"x_max":1068,"o":"m 161 764 l 154 764 q 116 719 142 739 q 72 692 90 699 l 53 683 l 42 708 q 144 815 122 746 q 156 896 156 850 l 200 896 q 336 911 288 896 l 336 431 l 415 431 l 415 403 l 82 403 l 82 431 l 161 431 l 161 764 m 288 14 l 788 911 l 817 903 l 315 3 l 288 14 m 522 185 l 522 197 q 702 365 606 238 q 810 615 799 492 q 942 631 872 615 l 942 228 l 1068 228 l 1068 185 l 942 185 l 942 28 l 767 28 l 767 185 l 522 185 m 615 228 l 767 228 l 767 407 l 764 407 q 692 306 729 350 q 636 247 656 263 l 615 232 l 615 228 z "},"½":{"ha":1190,"x_min":43,"x_max":1133,"o":"m 678 90 q 705 194 678 147 q 770 270 732 240 q 847 328 808 300 q 939 464 939 394 q 915 532 939 503 q 841 561 890 561 q 755 531 792 561 q 718 458 718 501 q 729 444 718 444 q 743 457 743 444 q 763 502 746 485 q 811 519 781 519 q 861 498 842 519 q 881 442 881 476 q 854 384 881 408 q 787 360 828 360 q 719 388 746 360 q 693 456 693 415 q 747 556 693 517 q 881 594 800 594 q 1061 550 1003 594 q 1119 437 1119 506 q 1081 331 1119 368 q 949 286 1042 294 q 778 242 821 271 q 740 199 754 224 l 747 193 q 801 231 781 226 q 883 239 844 239 l 1061 239 q 1117 288 1115 239 l 1133 288 l 1133 90 l 678 90 m 288 14 l 788 911 l 817 903 l 315 3 l 288 14 m 163 764 l 156 764 q 117 719 143 739 q 72 692 92 699 l 54 683 l 43 708 q 146 815 124 746 q 157 896 157 850 l 201 896 q 336 911 288 896 l 336 431 l 415 431 l 415 403 l 83 403 l 83 431 l 163 431 l 163 764 z "},"¾":{"ha":1138,"x_min":3,"x_max":1068,"o":"m 185 393 q 49 425 96 393 q 3 507 3 457 q 31 582 3 557 q 98 607 60 607 q 160 584 136 607 q 183 531 183 561 q 163 478 183 501 q 112 456 143 456 q 57 486 81 456 q 47 493 53 493 q 35 481 35 493 q 38 472 35 478 q 122 426 64 426 q 210 456 179 426 q 242 531 242 485 q 221 610 242 578 q 161 643 200 643 q 101 628 147 643 l 94 651 q 138 666 106 651 q 181 687 169 681 q 205 704 192 693 q 226 726 218 715 q 246 794 246 753 q 221 860 246 836 q 156 883 196 883 q 86 862 117 883 q 56 810 56 840 q 68 797 56 797 q 82 814 76 797 q 143 856 97 856 q 193 833 174 856 q 213 778 213 810 q 188 721 213 746 q 123 696 164 696 q 56 724 82 696 q 29 801 29 753 q 78 880 29 849 q 210 911 126 911 q 346 881 294 911 q 397 801 397 850 q 358 722 397 753 q 240 686 318 692 l 246 674 q 274 675 263 675 q 388 642 340 675 q 436 546 436 610 q 378 438 436 482 q 185 393 321 393 m 288 14 l 788 911 l 817 903 l 315 3 l 288 14 m 522 185 l 522 197 q 702 365 606 238 q 810 615 799 492 q 942 631 872 615 l 942 228 l 1068 228 l 1068 185 l 942 185 l 942 28 l 767 28 l 767 185 l 522 185 m 615 228 l 767 228 l 767 407 l 764 407 q 692 306 729 350 q 636 247 656 263 l 615 232 l 615 228 z "},"¿":{"ha":725,"x_min":78,"x_max":706,"o":"m 363 678 q 386 678 363 678 q 440 646 408 678 q 472 569 472 614 q 440 492 472 524 q 363 460 408 460 q 286 492 318 460 q 254 569 254 524 q 286 646 254 614 q 363 678 318 678 m 358 413 q 449 381 410 413 q 489 297 489 349 q 469 206 489 244 q 424 142 449 168 q 380 59 400 117 q 360 -78 360 1 q 506 -285 360 -285 q 627 -239 574 -285 q 681 -129 681 -193 q 669 -80 681 -97 q 650 -62 658 -62 q 638 -75 638 -62 q 646 -93 638 -79 q 654 -137 654 -107 q 626 -193 654 -168 q 556 -218 599 -218 q 483 -187 514 -218 q 453 -108 453 -156 q 487 -26 453 -60 q 576 7 521 7 q 668 -31 631 7 q 706 -128 706 -69 q 622 -277 706 -218 q 410 -336 538 -336 q 158 -269 239 -336 q 78 -99 78 -201 q 117 28 78 -26 q 212 113 156 82 q 324 168 268 143 q 419 225 381 193 q 458 299 458 257 q 429 364 458 340 q 360 388 400 388 q 231 317 286 388 l 213 333 q 358 413 272 413 z "},"À":{"ha":850,"x_min":-65,"x_max":878,"o":"m 878 35 l 878 13 l 431 13 l 431 35 l 525 35 l 414 349 l 188 349 l 133 192 q 119 121 119 154 q 244 35 119 35 l 290 35 l 290 13 l -65 13 l -65 35 q 4 44 -24 35 q 51 79 32 53 q 81 128 71 106 q 108 201 90 151 l 343 874 q 386 954 363 932 q 488 988 424 988 l 825 35 l 878 35 m 301 669 l 194 368 l 407 368 l 301 669 m 219 1164 l 226 1189 l 640 1075 l 633 1051 l 219 1164 z "},"Á":{"ha":850,"x_min":-65,"x_max":878,"o":"m 878 35 l 878 13 l 431 13 l 431 35 l 525 35 l 414 349 l 188 349 l 133 192 q 119 121 119 154 q 244 35 119 35 l 290 35 l 290 13 l -65 13 l -65 35 q 4 44 -24 35 q 51 79 32 53 q 81 128 71 106 q 108 201 90 151 l 343 874 q 386 954 363 932 q 488 988 424 988 l 825 35 l 878 35 m 301 669 l 194 368 l 407 368 l 301 669 m 697 1189 l 704 1164 l 290 1051 l 283 1075 l 697 1189 z "},"Â":{"ha":850,"x_min":-65,"x_max":878,"o":"m 878 35 l 878 13 l 431 13 l 431 35 l 521 35 l 414 343 l 185 343 l 136 200 q 118 119 118 146 q 151 53 118 71 q 243 35 183 35 l 292 35 l 292 13 l -65 13 l -65 35 q 3 44 -24 35 q 50 80 31 53 q 78 128 69 107 q 106 201 88 149 l 346 882 q 367 932 357 914 q 408 969 376 950 q 488 988 439 988 l 819 35 l 878 35 m 300 674 l 193 365 l 407 365 l 300 674 m 422 1161 l 422 1189 l 679 1082 l 671 1058 l 422 1161 m 422 1189 l 422 1161 l 174 1058 l 165 1082 l 422 1189 z "},"Ã":{"ha":850,"x_min":-65,"x_max":878,"o":"m 878 35 l 878 13 l 431 13 l 431 35 l 525 35 l 414 349 l 188 349 l 133 192 q 119 121 119 154 q 244 35 119 35 l 290 35 l 290 13 l -65 13 l -65 35 q 4 44 -24 35 q 51 79 32 53 q 81 128 71 106 q 108 201 90 151 l 343 874 q 386 954 363 932 q 488 988 424 988 l 825 35 l 878 35 m 301 669 l 194 368 l 407 368 l 301 669 m 518 1076 q 415 1099 481 1076 q 314 1121 350 1121 q 249 1109 278 1121 q 208 1086 221 1097 l 194 1075 l 175 1096 q 310 1149 231 1149 q 422 1126 358 1149 q 519 1104 485 1104 q 581 1116 553 1104 q 622 1139 610 1128 l 636 1150 l 656 1129 q 518 1076 603 1076 z "},"Ä":{"ha":850,"x_min":-65,"x_max":878,"o":"m 878 35 l 878 13 l 431 13 l 431 35 l 525 35 l 414 349 l 188 349 l 133 192 q 119 121 119 154 q 244 35 119 35 l 290 35 l 290 13 l -65 13 l -65 35 q 4 44 -24 35 q 51 79 32 53 q 81 128 71 106 q 108 201 90 151 l 343 874 q 386 954 363 932 q 488 988 424 988 l 825 35 l 878 35 m 301 669 l 194 368 l 407 368 l 301 669 m 488 1074 q 475 1086 488 1074 q 463 1133 463 1099 q 488 1192 463 1168 q 547 1217 513 1217 q 606 1192 582 1217 q 631 1133 631 1168 q 606 1074 631 1099 q 547 1049 582 1049 q 488 1074 513 1049 m 237 1074 q 225 1086 237 1074 q 213 1133 213 1099 q 237 1192 213 1168 q 296 1217 261 1217 q 356 1192 331 1217 q 381 1133 381 1168 q 356 1074 381 1099 q 296 1049 331 1049 q 237 1074 261 1049 z "},"Å":{"ha":850,"x_min":-65,"x_max":878,"o":"m 878 35 l 878 13 l 431 13 l 431 35 l 525 35 l 414 349 l 188 349 l 133 192 q 119 121 119 154 q 244 35 119 35 l 290 35 l 290 13 l -65 13 l -65 35 q 4 44 -24 35 q 51 79 32 53 q 81 128 71 106 q 108 201 90 151 l 343 874 q 386 954 363 932 q 488 988 424 988 l 825 35 l 878 35 m 301 669 l 194 368 l 407 368 l 301 669 m 384 1174 q 375 1166 384 1174 q 367 1133 367 1157 q 384 1092 367 1110 q 424 1074 401 1074 q 465 1092 447 1074 q 482 1133 482 1110 q 465 1174 482 1157 q 424 1192 447 1192 q 384 1174 401 1192 m 424 1049 q 406 1049 424 1049 q 365 1073 389 1049 q 342 1133 342 1097 q 365 1192 342 1168 q 424 1217 389 1217 q 483 1192 458 1217 q 507 1133 507 1168 q 483 1073 507 1097 q 424 1049 458 1049 z "},"Æ":{"ha":1267,"x_min":-126,"x_max":1242,"o":"m 314 482 l 314 485 l 140 192 q 114 114 114 146 q 144 53 114 71 q 218 35 175 35 l 271 35 l 271 13 l -126 13 l -126 35 q 11 61 -35 35 q 103 167 57 88 l 526 883 q 592 952 554 932 q 692 972 631 972 l 1215 972 l 1215 651 l 1196 651 q 1131 878 1196 806 q 904 950 1065 950 l 800 950 l 800 501 l 851 501 q 1039 704 1039 501 l 1058 704 l 1058 275 l 1039 275 q 988 429 1039 376 q 846 482 936 482 l 800 482 l 800 35 l 885 35 q 1164 144 1096 35 q 1210 263 1197 200 q 1222 417 1222 325 l 1242 417 l 1242 13 l 414 13 l 414 35 l 517 35 l 517 482 l 314 482 m 517 501 l 517 813 l 507 813 l 324 501 l 517 501 z "},"Ç":{"ha":904,"x_min":42,"x_max":863,"o":"m 550 972 q 397 858 443 972 q 350 500 350 744 q 397 137 350 256 q 550 18 443 18 q 703 74 636 18 q 802 203 771 131 q 833 342 833 276 l 863 342 q 756 81 853 176 q 525 -14 658 -14 q 163 124 285 -14 q 42 496 42 263 q 154 833 42 682 q 304 953 210 907 q 518 999 399 999 q 656 974 592 999 q 747 950 721 950 q 790 962 774 950 q 815 999 806 974 l 833 999 l 833 604 l 815 604 q 796 672 801 651 q 774 739 790 692 q 744 810 757 786 q 710 872 732 835 q 667 926 688 908 q 550 972 611 972 m 408 -97 q 499 -74 444 -74 q 596 -115 554 -74 q 638 -213 638 -156 q 597 -308 638 -271 q 507 -346 557 -346 q 426 -310 457 -346 q 396 -231 396 -275 q 427 -158 396 -186 q 493 -131 458 -131 q 556 -156 528 -131 q 585 -210 583 -181 q 599 -239 586 -239 q 611 -222 611 -239 q 582 -140 611 -181 q 497 -100 553 -100 q 434 -116 465 -100 q 388 -156 403 -132 l 364 -131 l 415 6 l 443 -6 l 408 -97 z "},"È":{"ha":953,"x_min":42,"x_max":856,"o":"m 42 13 l 42 35 l 131 35 l 131 950 l 42 950 l 42 972 l 829 972 l 829 656 l 807 656 q 743 879 807 808 q 518 950 679 950 l 414 950 l 414 522 l 465 522 q 649 721 649 522 l 672 721 l 672 297 l 649 297 q 599 449 649 397 q 460 500 550 500 l 414 500 l 414 35 l 499 35 q 775 142 708 35 q 822 257 810 196 q 833 408 833 318 l 856 408 l 856 13 l 42 13 m 265 1175 l 272 1200 l 686 1086 l 679 1063 l 265 1175 z "},"É":{"ha":953,"x_min":42,"x_max":856,"o":"m 42 13 l 42 32 l 131 32 l 131 953 l 42 953 l 42 972 l 829 972 l 829 656 l 810 656 q 744 881 810 808 q 518 953 679 953 l 414 953 l 414 521 l 465 521 q 653 721 653 521 l 672 721 l 672 297 l 653 297 q 601 449 653 397 q 460 501 550 501 l 414 501 l 414 32 l 499 32 q 801 183 739 32 q 836 408 836 267 l 856 408 l 856 13 l 42 13 m 697 1189 l 704 1164 l 290 1051 l 283 1075 l 697 1189 z "},"Ê":{"ha":953,"x_min":42,"x_max":856,"o":"m 42 13 l 42 35 l 131 35 l 131 950 l 42 950 l 42 972 l 829 972 l 829 656 l 807 656 q 743 879 807 808 q 518 950 679 950 l 414 950 l 414 522 l 465 522 q 649 721 649 522 l 672 721 l 672 297 l 649 297 q 599 449 649 397 q 460 500 550 500 l 414 500 l 414 35 l 499 35 q 775 142 708 35 q 822 257 810 196 q 833 408 833 318 l 856 408 l 856 13 l 42 13 m 501 1161 l 501 1189 l 758 1082 l 750 1058 l 501 1161 m 501 1189 l 501 1161 l 253 1058 l 244 1082 l 501 1189 z "},"Ë":{"ha":953,"x_min":42,"x_max":856,"o":"m 42 13 l 42 32 l 131 32 l 131 953 l 42 953 l 42 972 l 829 972 l 829 656 l 810 656 q 744 881 810 808 q 518 953 679 953 l 414 953 l 414 521 l 465 521 q 653 721 653 521 l 672 721 l 672 297 l 653 297 q 601 449 653 397 q 460 501 550 501 l 414 501 l 414 32 l 499 32 q 801 183 739 32 q 836 408 836 267 l 856 408 l 856 13 l 42 13 m 543 1074 q 531 1086 543 1074 q 518 1133 518 1099 q 543 1192 518 1168 q 603 1217 568 1217 q 662 1192 638 1217 q 686 1133 686 1168 q 662 1074 686 1099 q 603 1049 638 1049 q 543 1074 568 1049 m 292 1074 q 280 1086 292 1074 q 268 1133 268 1099 q 292 1192 268 1168 q 351 1217 317 1217 q 411 1192 386 1217 q 436 1133 436 1168 q 411 1074 436 1099 q 351 1049 386 1049 q 292 1074 317 1049 z "},"Ì":{"ha":589,"x_min":42,"x_max":547,"o":"m 547 35 l 547 13 l 42 13 l 42 35 l 144 35 l 144 950 l 42 950 l 42 972 l 544 972 l 544 950 l 428 950 l 428 35 l 547 35 m 83 1181 l 90 1206 l 504 1092 l 497 1068 l 83 1181 z "},"Í":{"ha":589,"x_min":42,"x_max":547,"o":"m 547 35 l 547 13 l 42 13 l 42 35 l 144 35 l 144 950 l 42 950 l 42 972 l 544 972 l 544 950 l 428 950 l 428 35 l 547 35 m 517 1189 l 524 1164 l 110 1051 l 103 1075 l 517 1189 z "},"Î":{"ha":589,"x_min":35,"x_max":549,"o":"m 547 35 l 547 13 l 42 13 l 42 35 l 144 35 l 144 950 l 42 950 l 42 972 l 544 972 l 544 950 l 428 950 l 428 35 l 547 35 m 292 1161 l 292 1189 l 549 1082 l 540 1058 l 292 1161 m 292 1189 l 292 1161 l 43 1058 l 35 1082 l 292 1189 z "},"Ï":{"ha":589,"x_min":42,"x_max":547,"o":"m 547 32 l 547 13 l 42 13 l 42 32 l 144 32 l 144 953 l 42 953 l 42 972 l 544 972 l 544 953 l 428 953 l 428 32 l 547 32 m 351 1074 q 339 1086 351 1074 q 326 1133 326 1099 q 351 1192 326 1168 q 411 1217 376 1217 q 470 1192 446 1217 q 494 1133 494 1168 q 470 1074 494 1099 q 411 1049 446 1049 q 351 1074 376 1049 m 101 1074 q 89 1086 101 1074 q 76 1133 76 1099 q 101 1192 76 1168 q 160 1217 125 1217 q 219 1192 194 1217 q 244 1133 244 1168 q 219 1074 244 1099 q 160 1049 194 1049 q 101 1074 125 1049 z "},"Ð":{"ha":1058,"x_min":42,"x_max":1017,"o":"m 488 0 l 42 0 l 42 19 l 131 19 l 131 494 l 42 494 l 42 524 l 131 524 l 131 953 l 42 953 l 42 972 l 474 972 q 894 836 765 972 q 1017 491 1017 707 q 888 138 1017 275 q 488 0 760 0 m 414 19 l 460 19 q 647 128 585 19 q 708 492 708 236 q 646 850 708 747 q 469 953 583 953 l 414 953 l 414 524 l 564 524 l 564 494 l 414 494 l 414 19 z "},"Ñ":{"ha":957,"x_min":-42,"x_max":999,"o":"m 158 758 l 158 310 q 169 157 158 214 q 208 73 179 100 q 269 39 236 46 q 363 32 301 32 l 363 13 l -42 13 l -42 32 q 100 75 72 32 q 119 110 111 94 q 129 163 126 126 q 133 307 133 217 l 133 807 l 108 846 q 99 862 107 847 q 86 883 90 876 q 72 902 82 889 q 54 922 63 915 q 35 938 46 929 q -17 953 14 953 l -17 972 l 268 972 q 362 953 325 972 q 439 871 399 935 l 790 306 l 799 306 l 799 675 q 788 828 799 771 q 749 912 778 885 q 688 946 721 939 q 594 953 656 953 l 594 972 l 999 972 l 999 953 q 886 919 933 953 q 836 833 858 899 q 824 750 824 793 l 824 13 l 742 13 q 648 31 685 13 q 571 114 611 50 l 164 758 l 158 758 m 592 1085 q 489 1107 554 1085 q 388 1129 424 1129 q 323 1117 351 1129 q 281 1094 294 1106 l 268 1083 l 249 1104 q 383 1157 304 1157 q 495 1135 432 1157 q 592 1113 558 1113 q 655 1124 626 1113 q 697 1147 683 1136 l 710 1158 l 729 1138 q 592 1085 676 1085 z "},"Ò":{"ha":1036,"x_min":42,"x_max":994,"o":"m 694 17 q 518 -14 614 -14 q 342 16 422 -14 q 206 95 261 46 q 114 211 151 144 q 42 496 42 338 q 154 833 42 682 q 304 953 210 907 q 518 999 399 999 q 732 955 638 999 q 882 839 826 911 q 994 496 994 690 q 922 211 994 338 q 694 17 843 71 m 425 52 q 442 32 425 52 q 518 13 460 13 q 611 52 576 13 q 666 199 646 92 q 686 496 686 307 q 666 791 686 685 q 611 935 646 897 q 518 972 576 972 q 425 935 460 972 q 370 791 390 897 q 350 496 350 685 q 370 199 350 307 q 425 52 390 92 m 326 1164 l 333 1189 l 747 1075 l 740 1051 l 326 1164 z "},"Ó":{"ha":1036,"x_min":42,"x_max":994,"o":"m 694 17 q 518 -14 614 -14 q 342 16 422 -14 q 206 95 261 46 q 114 211 151 144 q 42 496 42 338 q 154 833 42 682 q 304 953 210 907 q 518 999 399 999 q 732 955 638 999 q 882 839 826 911 q 994 496 994 690 q 922 211 994 338 q 694 17 843 71 m 425 52 q 442 32 425 52 q 518 13 460 13 q 611 52 576 13 q 666 199 646 92 q 686 496 686 307 q 666 791 686 685 q 611 935 646 897 q 518 972 576 972 q 425 935 460 972 q 370 791 390 897 q 350 496 350 685 q 370 199 350 307 q 425 52 390 92 m 683 1189 l 690 1164 l 276 1051 l 269 1075 l 683 1189 z "},"Ô":{"ha":1036,"x_min":42,"x_max":994,"o":"m 694 17 q 518 -14 614 -14 q 342 16 422 -14 q 206 95 261 46 q 114 211 151 144 q 42 496 42 338 q 154 833 42 682 q 304 953 210 907 q 518 999 399 999 q 732 955 638 999 q 882 839 826 911 q 994 496 994 690 q 922 211 994 338 q 694 17 843 71 m 425 52 q 442 32 425 52 q 518 13 460 13 q 611 52 576 13 q 666 199 646 92 q 686 496 686 307 q 666 791 686 685 q 611 935 646 897 q 518 972 576 972 q 425 935 460 972 q 370 791 390 897 q 350 496 350 685 q 370 199 350 307 q 425 52 390 92 m 519 1161 l 519 1189 l 776 1082 l 768 1058 l 519 1161 m 519 1189 l 519 1161 l 271 1058 l 263 1082 l 519 1189 z "},"Õ":{"ha":1036,"x_min":42,"x_max":994,"o":"m 694 17 q 518 -14 614 -14 q 342 16 422 -14 q 206 95 261 46 q 114 211 151 144 q 42 496 42 338 q 154 833 42 682 q 304 953 210 907 q 518 999 399 999 q 732 955 638 999 q 882 839 826 911 q 994 496 994 690 q 922 211 994 338 q 694 17 843 71 m 425 52 q 442 32 425 52 q 518 13 460 13 q 611 52 576 13 q 666 199 646 92 q 686 496 686 307 q 666 791 686 685 q 611 935 646 897 q 518 972 576 972 q 425 935 460 972 q 370 791 390 897 q 350 496 350 685 q 370 199 350 307 q 425 52 390 92 m 625 1076 q 522 1099 588 1076 q 421 1121 457 1121 q 356 1109 385 1121 q 314 1086 328 1097 l 301 1075 l 282 1096 q 417 1149 338 1149 q 528 1126 465 1149 q 626 1104 592 1104 q 688 1116 660 1104 q 731 1139 717 1128 l 743 1150 l 763 1129 q 625 1076 710 1076 z "},"Ö":{"ha":1036,"x_min":42,"x_max":994,"o":"m 694 17 q 518 -14 614 -14 q 342 16 422 -14 q 206 95 261 46 q 114 211 151 144 q 42 496 42 338 q 154 833 42 682 q 304 953 210 907 q 518 999 399 999 q 732 955 638 999 q 882 839 826 911 q 994 496 994 690 q 922 211 994 338 q 694 17 843 71 m 425 52 q 442 32 425 52 q 518 13 460 13 q 611 52 576 13 q 666 199 646 92 q 686 496 686 307 q 666 791 686 685 q 611 935 646 897 q 518 972 576 972 q 425 935 460 972 q 370 791 390 897 q 350 496 350 685 q 370 199 350 307 q 425 52 390 92 m 585 1074 q 572 1086 585 1074 q 560 1133 560 1099 q 585 1192 560 1168 q 644 1217 610 1217 q 703 1192 679 1217 q 728 1133 728 1168 q 703 1074 728 1099 q 644 1049 679 1049 q 585 1074 610 1049 m 334 1074 q 322 1086 334 1074 q 310 1133 310 1099 q 334 1192 310 1168 q 393 1217 358 1217 q 453 1192 428 1217 q 478 1133 478 1168 q 453 1074 478 1099 q 393 1049 428 1049 q 334 1074 358 1049 z "},"×":{"ha":633,"x_min":86,"x_max":572,"o":"m 97 547 l 119 567 l 328 350 l 538 567 l 558 546 l 349 329 l 572 100 l 551 79 l 329 308 l 107 79 l 86 100 l 308 329 l 97 547 z "},"Ø":{"ha":1036,"x_min":42,"x_max":994,"o":"m 154 833 q 304 953 210 907 q 503 999 399 999 q 685 972 608 999 l 733 1110 l 764 1100 l 715 961 q 923 776 851 904 q 994 496 994 647 q 922 211 994 338 q 694 17 843 71 q 529 -14 614 -14 q 375 4 444 -14 l 322 -147 l 293 -137 l 346 14 q 119 201 197 67 q 42 509 42 336 q 154 833 42 682 m 425 935 q 408 916 425 935 q 370 791 390 897 q 350 463 350 685 q 386 126 350 242 l 647 867 q 518 972 611 972 q 425 935 460 972 m 518 13 q 611 53 576 13 q 686 496 686 138 q 663 813 686 701 l 404 83 q 518 13 442 13 z "},"Ù":{"ha":1019,"x_min":42,"x_max":1061,"o":"m 1061 972 l 1061 950 q 879 694 879 950 l 879 419 q 804 88 879 189 q 533 -14 729 -14 q 242 72 336 -14 q 131 485 131 172 l 131 950 l 42 950 l 42 972 l 503 972 l 503 950 l 414 950 l 414 494 q 424 283 414 388 q 443 185 429 225 q 478 107 457 144 q 535 50 500 69 q 619 31 571 31 q 707 44 668 31 q 814 150 775 71 q 854 421 854 233 l 854 694 q 799 888 854 825 q 617 950 743 950 l 617 972 l 1061 972 m 303 1164 l 310 1189 l 724 1075 l 717 1051 l 303 1164 z "},"Ú":{"ha":1019,"x_min":42,"x_max":1061,"o":"m 1061 972 l 1061 950 q 879 694 879 950 l 879 419 q 804 88 879 189 q 533 -14 729 -14 q 242 72 336 -14 q 131 485 131 172 l 131 950 l 42 950 l 42 972 l 503 972 l 503 950 l 414 950 l 414 494 q 424 283 414 388 q 443 185 429 225 q 478 107 457 144 q 535 50 500 69 q 619 31 571 31 q 707 44 668 31 q 814 150 775 71 q 854 421 854 233 l 854 694 q 799 888 854 825 q 617 950 743 950 l 617 972 l 1061 972 m 781 1189 l 788 1164 l 374 1051 l 367 1075 l 781 1189 z "},"Û":{"ha":1019,"x_min":42,"x_max":1061,"o":"m 1061 972 l 1061 950 q 879 694 879 950 l 879 419 q 804 88 879 189 q 533 -14 729 -14 q 242 72 336 -14 q 131 485 131 172 l 131 950 l 42 950 l 42 972 l 503 972 l 503 950 l 414 950 l 414 494 q 424 283 414 388 q 443 185 429 225 q 478 107 457 144 q 535 50 500 69 q 619 31 571 31 q 707 44 668 31 q 814 150 775 71 q 854 421 854 233 l 854 694 q 799 888 854 825 q 617 950 743 950 l 617 972 l 1061 972 m 574 1161 l 574 1189 l 831 1082 l 822 1058 l 574 1161 m 574 1189 l 574 1161 l 325 1058 l 317 1082 l 574 1189 z "},"Ü":{"ha":1019,"x_min":42,"x_max":1061,"o":"m 1061 972 l 1061 953 q 879 697 879 953 l 879 419 q 804 88 879 189 q 533 -12 729 -12 q 242 72 338 -12 q 131 485 131 172 l 131 953 l 42 953 l 42 972 l 503 972 l 503 953 l 414 953 l 414 494 q 425 265 414 386 q 478 107 433 186 q 617 32 522 32 q 792 111 735 32 q 854 421 854 197 l 854 697 q 799 890 854 828 q 617 953 743 953 l 617 972 l 1061 972 m 618 1074 q 606 1086 618 1074 q 593 1133 593 1099 q 618 1192 593 1168 q 678 1217 643 1217 q 737 1192 713 1217 q 761 1133 761 1168 q 737 1074 761 1099 q 678 1049 713 1049 q 618 1074 643 1049 m 367 1074 q 355 1086 367 1074 q 343 1133 343 1099 q 367 1192 343 1168 q 426 1217 392 1217 q 486 1192 461 1217 q 511 1133 511 1168 q 486 1074 511 1099 q 426 1049 461 1049 q 367 1074 392 1049 z "},"Ý":{"ha":893,"x_min":-56,"x_max":935,"o":"m 717 857 q 571 953 717 953 l 532 953 l 532 972 l 935 972 l 935 953 q 767 868 808 953 l 569 417 l 569 19 l 658 19 l 658 0 l 197 0 l 197 19 l 286 19 l 286 394 l 25 953 l -56 953 l -56 972 l 446 972 l 446 953 l 325 953 l 558 453 l 690 756 q 717 857 717 813 m 669 1189 l 676 1164 l 263 1051 l 256 1075 l 669 1189 z "},"Þ":{"ha":925,"x_min":38,"x_max":890,"o":"m 132 950 l 38 950 l 38 972 l 488 972 l 488 950 l 394 950 l 394 792 l 493 792 q 796 728 701 792 q 890 525 890 664 q 794 316 890 386 q 528 246 697 246 q 394 261 456 246 l 394 35 l 489 35 l 489 13 l 39 13 l 39 35 l 132 35 l 132 950 m 415 769 l 394 769 l 394 292 q 458 281 431 281 q 610 529 610 281 q 569 717 610 664 q 415 769 528 769 z "},"ß":{"ha":956,"x_min":10,"x_max":935,"o":"m 10 13 l 10 35 l 93 35 l 93 718 q 126 852 93 796 q 214 939 158 908 q 472 999 321 999 q 760 952 675 999 q 844 815 844 906 q 778 692 844 733 q 611 631 710 651 q 588 624 596 626 q 567 617 579 621 q 548 611 554 614 q 533 604 542 608 q 521 586 521 597 q 628 525 521 560 q 828 433 738 490 q 904 355 874 404 q 935 244 935 306 q 838 52 935 118 q 638 -14 740 -14 q 481 26 535 -14 q 428 126 428 67 q 460 222 428 186 q 542 258 492 258 q 623 229 592 258 q 654 156 654 200 q 628 84 654 113 q 564 56 603 56 q 501 83 525 56 q 479 104 492 104 q 467 92 467 104 q 475 71 467 83 q 608 13 519 13 q 710 44 668 13 q 751 130 751 76 q 718 217 751 183 q 637 275 685 251 q 541 324 589 299 q 460 390 493 349 q 426 478 426 431 q 447 558 426 526 q 496 611 467 589 q 553 657 525 633 q 622 811 622 714 q 479 972 622 972 q 381 920 407 972 q 356 731 356 868 l 356 35 l 439 35 l 439 13 l 10 13 z "},"à":{"ha":839,"x_min":42,"x_max":849,"o":"m 468 222 l 468 351 q 458 351 463 351 q 349 316 393 351 q 304 203 304 281 q 326 91 304 126 q 386 56 349 56 q 446 108 424 56 q 468 222 468 161 m 756 65 q 824 204 808 65 l 849 201 q 656 -14 822 -14 q 543 33 586 -14 q 494 144 500 79 l 486 144 q 421 28 467 69 q 276 -14 375 -14 q 109 30 176 -14 q 42 169 42 74 q 468 376 42 376 l 468 422 q 435 600 468 557 q 390 635 419 619 q 318 650 360 650 q 178 614 239 650 q 118 535 118 578 q 131 522 118 522 q 142 527 139 522 q 146 537 144 532 q 149 545 147 542 q 155 557 150 549 q 179 579 160 565 q 232 593 199 593 q 290 563 265 593 q 314 490 314 533 q 282 417 314 447 q 201 388 250 388 q 119 422 153 388 q 85 504 85 456 q 158 631 85 585 q 370 678 232 678 q 590 642 508 678 q 701 540 672 606 q 731 358 731 474 l 731 122 q 756 65 731 65 m 208 849 l 215 874 l 629 760 l 622 736 l 208 849 z "},"á":{"ha":839,"x_min":42,"x_max":849,"o":"m 468 222 l 468 351 q 458 351 463 351 q 349 316 393 351 q 304 203 304 281 q 326 91 304 126 q 386 56 349 56 q 446 108 424 56 q 468 222 468 161 m 756 65 q 824 204 808 65 l 849 201 q 656 -14 822 -14 q 543 33 586 -14 q 494 144 500 79 l 486 144 q 421 28 467 69 q 276 -14 375 -14 q 109 30 176 -14 q 42 169 42 74 q 468 376 42 376 l 468 422 q 435 600 468 557 q 390 635 419 619 q 318 650 360 650 q 178 614 239 650 q 118 535 118 578 q 131 522 118 522 q 142 527 139 522 q 146 537 144 532 q 149 545 147 542 q 155 557 150 549 q 179 579 160 565 q 232 593 199 593 q 290 563 265 593 q 314 490 314 533 q 282 417 314 447 q 201 388 250 388 q 119 422 153 388 q 85 504 85 456 q 158 631 85 585 q 370 678 232 678 q 590 642 508 678 q 701 540 672 606 q 731 358 731 474 l 731 122 q 756 65 731 65 m 622 874 l 629 849 l 215 736 l 208 760 l 622 874 z "},"â":{"ha":839,"x_min":42,"x_max":849,"o":"m 468 222 l 468 351 q 458 351 463 351 q 349 316 393 351 q 304 203 304 281 q 326 91 304 126 q 386 56 349 56 q 446 108 424 56 q 468 222 468 161 m 756 65 q 824 204 808 65 l 849 201 q 656 -14 822 -14 q 543 33 586 -14 q 494 144 500 79 l 486 144 q 421 28 467 69 q 276 -14 375 -14 q 109 30 176 -14 q 42 169 42 74 q 468 376 42 376 l 468 422 q 435 600 468 557 q 390 635 419 619 q 318 650 360 650 q 178 614 239 650 q 118 535 118 578 q 131 522 118 522 q 142 527 139 522 q 146 537 144 532 q 149 545 147 542 q 155 557 150 549 q 179 579 160 565 q 232 593 199 593 q 290 563 265 593 q 314 490 314 533 q 282 417 314 447 q 201 388 250 388 q 119 422 153 388 q 85 504 85 456 q 158 631 85 585 q 370 678 232 678 q 590 642 508 678 q 701 540 672 606 q 731 358 731 474 l 731 122 q 756 65 731 65 m 419 846 l 419 874 l 676 767 l 668 743 l 419 846 m 419 874 l 419 846 l 171 743 l 163 767 l 419 874 z "},"ã":{"ha":839,"x_min":42,"x_max":849,"o":"m 468 222 l 468 351 q 458 351 463 351 q 349 316 393 351 q 304 203 304 281 q 326 91 304 126 q 386 56 349 56 q 446 108 424 56 q 468 222 468 161 m 756 65 q 824 204 808 65 l 849 201 q 656 -14 822 -14 q 543 33 586 -14 q 494 144 500 79 l 486 144 q 421 28 467 69 q 276 -14 375 -14 q 109 30 176 -14 q 42 169 42 74 q 468 376 42 376 l 468 422 q 435 600 468 557 q 390 635 419 619 q 318 650 360 650 q 178 614 239 650 q 118 535 118 578 q 131 522 118 522 q 142 527 139 522 q 146 537 144 532 q 149 545 147 542 q 155 557 150 549 q 179 579 160 565 q 232 593 199 593 q 290 563 265 593 q 314 490 314 533 q 282 417 314 447 q 201 388 250 388 q 119 422 153 388 q 85 504 85 456 q 158 631 85 585 q 370 678 232 678 q 590 642 508 678 q 701 540 672 606 q 731 358 731 474 l 731 122 q 756 65 731 65 m 522 769 q 419 792 485 769 q 318 814 354 814 q 253 803 282 814 q 211 781 225 792 l 199 768 l 179 789 q 314 842 235 842 q 426 819 363 842 q 523 797 489 797 q 585 808 557 797 q 628 831 614 819 l 640 843 l 660 822 q 522 769 607 769 z "},"ä":{"ha":839,"x_min":42,"x_max":849,"o":"m 468 222 l 468 351 q 458 351 463 351 q 349 316 393 351 q 304 203 304 281 q 326 91 304 126 q 386 56 349 56 q 446 108 424 56 q 468 222 468 161 m 756 65 q 824 204 808 65 l 849 201 q 656 -14 822 -14 q 543 33 586 -14 q 494 144 500 79 l 486 144 q 421 28 467 69 q 276 -14 375 -14 q 109 30 176 -14 q 42 169 42 74 q 468 376 42 376 l 468 422 q 435 600 468 557 q 390 635 419 619 q 318 650 360 650 q 178 614 239 650 q 118 535 118 578 q 131 522 118 522 q 142 527 139 522 q 146 537 144 532 q 149 545 147 542 q 155 557 150 549 q 179 579 160 565 q 232 593 199 593 q 290 563 265 593 q 314 490 314 533 q 282 417 314 447 q 201 388 250 388 q 119 422 153 388 q 85 504 85 456 q 158 631 85 585 q 370 678 232 678 q 590 642 508 678 q 701 540 672 606 q 731 358 731 474 l 731 122 q 756 65 731 65 m 486 747 q 474 760 486 747 q 461 807 461 772 q 486 866 461 842 q 546 890 511 890 q 605 866 581 890 q 629 807 629 842 q 605 747 629 772 q 546 722 581 722 q 486 747 511 722 m 235 747 q 223 760 235 747 q 211 807 211 772 q 235 866 211 842 q 294 890 260 890 q 354 866 329 890 q 379 807 379 842 q 354 747 379 772 q 294 722 329 722 q 235 747 260 722 z "},"å":{"ha":839,"x_min":42,"x_max":849,"o":"m 468 222 l 468 351 q 458 351 463 351 q 349 316 393 351 q 304 203 304 281 q 326 91 304 126 q 386 56 349 56 q 446 108 424 56 q 468 222 468 161 m 756 65 q 824 204 808 65 l 849 201 q 656 -14 822 -14 q 543 33 586 -14 q 494 144 500 79 l 486 144 q 421 28 467 69 q 276 -14 375 -14 q 109 30 176 -14 q 42 169 42 74 q 468 376 42 376 l 468 422 q 435 600 468 557 q 390 635 419 619 q 318 650 360 650 q 178 614 239 650 q 118 535 118 578 q 131 522 118 522 q 142 527 139 522 q 146 537 144 532 q 149 545 147 542 q 155 557 150 549 q 179 579 160 565 q 232 593 199 593 q 290 563 265 593 q 314 490 314 533 q 282 417 314 447 q 201 388 250 388 q 119 422 153 388 q 85 504 85 456 q 158 631 85 585 q 370 678 232 678 q 590 642 508 678 q 701 540 672 606 q 731 358 731 474 l 731 122 q 756 65 731 65 m 363 848 q 355 839 363 848 q 346 807 346 831 q 363 765 346 783 q 403 747 381 747 q 444 765 426 747 q 461 807 461 783 q 444 848 461 831 q 403 865 426 865 q 363 848 381 865 m 403 722 q 385 722 403 722 q 344 747 368 722 q 321 806 321 771 q 344 866 321 842 q 403 890 368 890 q 462 866 438 890 q 486 806 486 842 q 462 747 486 771 q 403 722 438 722 z "},"æ":{"ha":1272,"x_min":108,"x_max":1218,"o":"m 151 504 q 225 631 151 585 q 440 678 299 678 q 667 632 581 678 q 859 678 751 678 q 1040 658 967 678 q 1165 588 1113 639 q 1218 472 1218 538 q 1194 368 1218 406 q 1125 311 1169 331 q 913 276 1043 276 l 797 276 l 797 254 q 834 69 797 122 q 944 15 871 15 q 1090 65 1017 15 q 1186 232 1163 114 l 1211 228 q 904 -14 1161 -14 q 667 76 744 -14 q 631 51 654 67 q 533 11 607 36 q 388 -14 460 -14 q 189 31 269 -14 q 108 169 108 76 q 535 376 108 376 l 535 422 q 501 600 535 557 q 456 635 486 619 q 385 650 426 650 q 245 614 306 650 q 185 535 185 578 q 197 522 185 522 q 208 527 206 522 q 213 537 211 532 q 215 545 214 542 q 222 557 217 549 q 246 579 226 565 q 299 593 265 593 q 356 563 332 593 q 381 490 381 533 q 349 417 381 447 q 268 388 317 388 q 185 422 219 388 q 151 504 151 456 m 797 468 l 797 301 l 821 301 q 929 344 893 301 q 965 482 965 388 q 882 653 965 653 q 816 606 835 653 q 797 468 797 560 m 371 185 q 449 18 371 18 q 535 185 535 18 l 535 351 q 521 351 528 351 q 414 315 457 351 q 371 185 371 279 z "},"ç":{"ha":715,"x_min":28,"x_max":650,"o":"m 439 25 q 473 25 439 25 q 557 79 507 25 q 622 214 607 133 l 625 228 l 650 228 q 567 53 638 121 q 392 -14 496 -14 q 125 76 222 -14 q 28 331 28 167 q 127 587 28 496 q 394 678 226 678 q 576 619 513 678 q 639 497 639 561 q 606 399 639 433 q 524 364 574 364 q 442 394 474 364 q 411 469 411 425 q 437 541 411 513 q 504 569 463 569 q 581 514 563 569 q 596 496 586 496 q 608 510 608 496 q 606 525 608 514 q 440 639 567 639 q 376 619 403 639 q 337 572 350 599 q 317 500 324 546 q 308 358 308 443 q 310 231 308 274 q 319 144 313 188 q 340 78 326 101 q 439 25 371 25 m 283 -97 q 374 -74 319 -74 q 471 -115 429 -74 q 513 -213 513 -156 q 472 -308 513 -271 q 382 -346 432 -346 q 301 -310 332 -346 q 271 -231 271 -275 q 302 -158 271 -186 q 368 -131 333 -131 q 431 -156 403 -131 q 460 -210 458 -181 q 474 -239 461 -239 q 486 -222 486 -239 q 457 -140 486 -181 q 372 -100 428 -100 q 309 -116 340 -100 q 263 -156 278 -132 l 239 -131 l 290 6 l 318 -6 l 283 -97 z "},"è":{"ha":754,"x_min":42,"x_max":724,"o":"m 324 276 q 355 85 324 150 q 470 19 386 19 q 616 74 554 19 q 696 219 678 128 l 699 232 l 724 228 q 628 50 704 114 q 429 -14 551 -14 q 143 74 244 -14 q 42 328 42 163 q 139 585 42 493 q 403 678 236 678 q 630 627 539 678 q 721 471 721 576 q 636 321 721 365 q 415 276 551 276 l 324 276 m 322 401 l 322 301 l 357 301 q 444 344 419 301 q 468 468 468 386 q 403 653 468 653 q 341 603 360 653 q 322 401 322 553 m 194 849 l 201 874 l 615 760 l 608 736 l 194 849 z "},"é":{"ha":765,"x_min":35,"x_max":717,"o":"m 349 85 q 365 52 349 85 q 464 19 381 19 q 609 74 547 19 q 689 219 671 128 l 692 232 l 717 228 q 621 50 697 114 q 422 -14 544 -14 q 136 74 238 -14 q 35 328 35 163 q 132 585 35 493 q 396 678 229 678 q 623 627 532 678 q 714 471 714 576 q 629 321 714 365 q 408 276 544 276 l 317 276 q 349 85 317 150 m 315 401 l 315 301 l 350 301 q 437 344 413 301 q 461 468 461 386 q 396 653 461 653 q 334 603 353 653 q 315 401 315 553 m 585 874 l 592 849 l 178 736 l 171 760 l 585 874 z "},"ê":{"ha":781,"x_min":35,"x_max":717,"o":"m 142 774 l 399 881 l 657 774 l 649 750 l 399 850 l 150 750 l 142 774 m 349 85 q 365 52 349 85 q 464 19 381 19 q 609 74 547 19 q 689 219 671 128 l 692 232 l 717 228 q 621 50 697 114 q 422 -14 544 -14 q 136 74 238 -14 q 35 328 35 163 q 132 585 35 493 q 396 678 229 678 q 623 627 532 678 q 714 471 714 576 q 629 321 714 365 q 408 276 544 276 l 317 276 q 349 85 317 150 m 315 401 l 315 301 l 350 301 q 437 344 413 301 q 461 468 461 386 q 396 653 461 653 q 334 603 353 653 q 315 401 315 553 z "},"ë":{"ha":758,"x_min":28,"x_max":710,"o":"m 310 276 q 341 85 310 150 q 456 19 372 19 q 602 74 540 19 q 682 219 664 128 l 685 232 l 710 228 q 614 50 690 114 q 415 -14 538 -14 q 129 74 231 -14 q 28 328 28 163 q 125 585 28 493 q 389 678 222 678 q 616 627 525 678 q 707 471 707 576 q 622 321 707 365 q 401 276 538 276 l 310 276 m 308 401 l 308 301 l 343 301 q 430 344 406 301 q 454 468 454 386 q 389 653 454 653 q 327 603 346 653 q 308 401 308 553 m 446 747 q 433 760 446 747 q 421 807 421 772 q 446 866 421 842 q 506 890 471 890 q 565 866 540 890 q 589 807 589 842 q 565 747 589 772 q 506 722 540 722 q 446 747 471 722 m 195 747 q 183 760 195 747 q 171 807 171 772 q 195 866 171 842 q 254 890 219 890 q 314 866 289 890 q 339 807 339 842 q 314 747 339 772 q 254 722 289 722 q 195 747 219 722 z "},"ì":{"ha":506,"x_min":26,"x_max":474,"o":"m 125 629 l 26 629 l 26 651 l 110 651 q 388 678 261 651 l 388 35 l 474 35 l 474 13 l 39 13 l 39 35 l 125 35 l 125 629 m 43 849 l 50 874 l 464 760 l 457 736 l 43 849 z "},"í":{"ha":506,"x_min":26,"x_max":474,"o":"m 125 629 l 26 629 l 26 651 l 110 651 q 388 678 261 651 l 388 35 l 474 35 l 474 13 l 39 13 l 39 35 l 125 35 l 125 629 m 465 874 l 472 849 l 58 736 l 51 760 l 465 874 z "},"î":{"ha":506,"x_min":-26,"x_max":489,"o":"m -26 774 l 231 881 l 489 774 l 481 750 l 231 850 l -18 750 l -26 774 m 125 629 l 26 629 l 26 651 l 110 651 q 388 678 261 651 l 388 35 l 474 35 l 474 13 l 39 13 l 39 35 l 125 35 l 125 629 z "},"ï":{"ha":506,"x_min":26,"x_max":474,"o":"m 125 629 l 26 629 l 26 651 l 110 651 q 388 678 261 651 l 388 35 l 474 35 l 474 13 l 39 13 l 39 35 l 125 35 l 125 629 m 315 747 q 303 760 315 747 q 290 807 290 772 q 315 866 290 842 q 375 890 340 890 q 434 866 410 890 q 458 807 458 842 q 434 747 458 772 q 375 722 410 722 q 315 747 340 722 m 65 747 q 52 760 65 747 q 40 807 40 772 q 65 866 40 842 q 124 890 89 890 q 183 866 158 890 q 208 807 208 842 q 183 747 208 772 q 124 722 158 722 q 65 747 89 722 z "},"ð":{"ha":849,"x_min":28,"x_max":749,"o":"m 749 404 q 694 181 749 285 q 521 13 633 60 q 383 -14 458 -14 q 127 69 226 -14 q 28 291 28 153 q 133 509 28 429 q 379 589 239 589 q 489 572 451 589 l 501 565 l 511 571 q 421 806 494 711 l 264 743 l 253 769 l 401 829 q 115 976 299 943 l 121 999 q 508 872 350 979 l 688 944 l 699 918 l 536 853 q 749 404 749 692 m 394 11 q 419 11 394 11 q 462 72 443 11 q 481 285 481 132 q 462 501 481 438 q 394 564 443 564 q 327 503 346 564 q 308 288 308 443 q 327 72 308 132 q 394 11 346 11 z "},"ñ":{"ha":882,"x_min":0,"x_max":865,"o":"m 99 629 l 0 629 l 0 651 l 83 651 q 361 678 235 651 l 361 542 l 368 542 q 563 678 422 678 q 731 603 682 678 q 779 392 779 529 l 779 35 l 865 35 l 865 13 l 436 13 l 436 35 l 522 35 l 522 333 q 510 539 522 475 q 454 603 497 603 q 381 499 406 603 q 356 271 356 396 l 356 13 l 13 13 l 13 35 l 99 35 l 99 629 m 526 769 q 424 792 489 769 q 322 814 358 814 q 258 803 286 814 q 217 781 229 792 l 203 768 l 183 789 q 318 842 239 842 q 430 819 367 842 q 527 797 493 797 q 590 808 561 797 q 631 831 618 819 l 644 843 l 664 822 q 526 769 611 769 z "},"ò":{"ha":803,"x_min":35,"x_max":768,"o":"m 667 81 q 616 34 667 81 q 401 -14 565 -14 q 136 81 238 -14 q 35 332 35 176 q 136 583 35 488 q 401 678 238 678 q 667 583 565 678 q 768 332 768 488 q 667 81 768 176 m 469 81 q 478 116 469 81 q 488 332 488 151 q 469 583 488 513 q 401 653 450 653 q 334 583 353 653 q 315 332 315 513 q 334 81 315 151 q 401 11 353 11 q 469 81 450 11 m 210 849 l 217 874 l 631 760 l 624 736 l 210 849 z "},"ó":{"ha":817,"x_min":42,"x_max":775,"o":"m 674 81 q 623 34 674 81 q 408 -14 572 -14 q 143 81 244 -14 q 42 332 42 176 q 143 583 42 488 q 408 678 244 678 q 674 583 572 678 q 775 332 775 488 q 674 81 775 176 m 476 81 q 485 116 476 81 q 494 332 494 151 q 476 583 494 513 q 408 653 457 653 q 341 583 360 653 q 322 332 322 513 q 341 81 322 151 q 408 11 360 11 q 476 81 457 11 m 639 874 l 646 849 l 232 736 l 225 760 l 639 874 z "},"ô":{"ha":803,"x_min":35,"x_max":768,"o":"m 142 774 l 399 881 l 657 774 l 649 750 l 399 850 l 150 750 l 142 774 m 667 81 q 616 34 667 81 q 401 -14 565 -14 q 136 81 238 -14 q 35 332 35 176 q 136 583 35 488 q 401 678 238 678 q 667 583 565 678 q 768 332 768 488 q 667 81 768 176 m 469 81 q 478 116 469 81 q 488 332 488 151 q 469 583 488 513 q 401 653 450 653 q 334 583 353 653 q 315 332 315 513 q 334 81 315 151 q 401 11 353 11 q 469 81 450 11 z "},"õ":{"ha":803,"x_min":35,"x_max":768,"o":"m 667 81 q 616 34 667 81 q 401 -14 565 -14 q 136 81 238 -14 q 35 332 35 176 q 136 583 35 488 q 401 678 238 678 q 667 583 565 678 q 768 332 768 488 q 667 81 768 176 m 469 81 q 478 116 469 81 q 488 332 488 151 q 469 583 488 513 q 401 653 450 653 q 334 583 353 653 q 315 332 315 513 q 334 81 315 151 q 401 11 353 11 q 469 81 450 11 m 504 769 q 401 792 467 769 q 300 814 336 814 q 235 803 264 814 q 194 781 207 792 l 181 768 l 161 789 q 296 842 217 842 q 408 819 344 842 q 505 797 471 797 q 567 808 539 797 q 608 831 596 819 l 622 843 l 642 822 q 504 769 589 769 z "},"ö":{"ha":803,"x_min":35,"x_max":768,"o":"m 667 81 q 616 34 667 81 q 401 -14 565 -14 q 136 81 238 -14 q 35 332 35 176 q 136 583 35 488 q 401 678 238 678 q 667 583 565 678 q 768 332 768 488 q 667 81 768 176 m 469 81 q 478 116 469 81 q 488 332 488 151 q 469 583 488 513 q 401 653 450 653 q 334 583 353 653 q 315 332 315 513 q 334 81 315 151 q 401 11 353 11 q 469 81 450 11 m 468 747 q 456 760 468 747 q 443 807 443 772 q 468 866 443 842 q 528 890 493 890 q 587 866 563 890 q 611 807 611 842 q 587 747 611 772 q 528 722 563 722 q 468 747 493 722 m 217 747 q 205 760 217 747 q 193 807 193 772 q 217 866 193 842 q 276 890 242 890 q 336 866 311 890 q 361 807 361 842 q 336 747 361 772 q 276 722 311 722 q 217 747 242 722 z "},"÷":{"ha":706,"x_min":24,"x_max":682,"o":"m 272 484 q 255 500 272 484 q 239 564 239 517 q 272 644 239 611 q 352 678 304 678 q 433 644 400 678 q 465 564 465 611 q 432 484 465 517 q 351 451 399 451 q 272 484 304 451 m 292 623 q 280 611 292 623 q 268 564 268 599 q 292 505 268 529 q 351 481 317 481 q 410 505 386 481 q 435 565 435 529 q 410 624 435 600 q 351 647 386 647 q 292 623 317 647 m 272 19 q 255 35 272 19 q 239 99 239 51 q 272 179 239 146 q 352 213 304 213 q 433 180 400 213 q 465 99 465 147 q 432 19 465 51 q 351 -14 399 -14 q 272 19 304 -14 m 292 158 q 280 145 292 158 q 268 99 268 133 q 292 40 268 64 q 351 15 317 15 q 410 40 386 15 q 435 99 435 64 q 410 158 435 133 q 351 182 386 182 q 292 158 317 182 m 682 343 l 682 314 l 24 314 l 24 343 l 682 343 z "},"ø":{"ha":789,"x_min":28,"x_max":761,"o":"m 210 -149 l 554 828 l 585 818 l 239 -158 l 210 -149 m 660 81 q 609 34 660 81 q 394 -14 558 -14 q 129 81 231 -14 q 28 332 28 176 q 129 583 28 488 q 394 678 231 678 q 660 583 558 678 q 761 332 761 488 q 660 81 761 176 m 462 81 q 471 116 462 81 q 481 332 481 151 q 462 583 481 513 q 394 653 443 653 q 327 583 346 653 q 308 332 308 513 q 327 81 308 151 q 394 11 346 11 q 462 81 443 11 z "},"ù":{"ha":885,"x_min":6,"x_max":871,"o":"m 785 35 l 871 35 l 871 13 l 522 13 l 522 121 l 515 121 q 321 -15 461 -15 q 153 59 201 -15 q 104 271 104 133 l 104 629 l 6 629 l 6 651 l 89 651 q 361 678 235 651 l 361 329 q 374 127 361 189 q 429 65 386 65 q 503 160 478 65 q 528 378 528 256 l 528 628 l 429 628 l 429 651 l 513 651 q 785 678 658 651 l 785 35 m 228 849 l 235 874 l 649 760 l 642 736 l 228 849 z "},"ú":{"ha":885,"x_min":6,"x_max":871,"o":"m 785 35 l 871 35 l 871 13 l 522 13 l 522 121 l 515 121 q 321 -15 461 -15 q 153 59 201 -15 q 104 271 104 133 l 104 629 l 6 629 l 6 651 l 89 651 q 361 678 235 651 l 361 329 q 374 127 361 189 q 429 65 386 65 q 503 160 478 65 q 528 378 528 256 l 528 628 l 429 628 l 429 651 l 513 651 q 785 678 658 651 l 785 35 m 707 874 l 714 849 l 300 736 l 293 760 l 707 874 z "},"û":{"ha":885,"x_min":6,"x_max":871,"o":"m 172 774 l 429 881 l 688 774 l 679 750 l 429 850 l 181 750 l 172 774 m 785 35 l 871 35 l 871 13 l 522 13 l 522 121 l 515 121 q 321 -15 461 -15 q 153 59 201 -15 q 104 271 104 133 l 104 629 l 6 629 l 6 651 l 89 651 q 361 678 235 651 l 361 329 q 374 127 361 189 q 429 65 386 65 q 503 160 478 65 q 528 378 528 256 l 528 628 l 429 628 l 429 651 l 513 651 q 785 678 658 651 l 785 35 z "},"ü":{"ha":899,"x_min":19,"x_max":885,"o":"m 799 35 l 885 35 l 885 13 l 536 13 l 536 121 l 529 121 q 335 -15 475 -15 q 167 59 215 -15 q 118 271 118 133 l 118 629 l 19 629 l 19 651 l 103 651 q 375 678 249 651 l 375 329 q 388 127 375 189 q 443 65 400 65 q 517 160 492 65 q 542 378 542 256 l 542 628 l 443 628 l 443 651 l 526 651 q 799 678 672 651 l 799 35 m 529 747 q 517 760 529 747 q 504 807 504 772 q 529 866 504 842 q 589 890 554 890 q 648 866 624 890 q 672 807 672 842 q 648 747 672 772 q 589 722 624 722 q 529 747 554 722 m 278 747 q 266 760 278 747 q 254 807 254 772 q 278 866 254 842 q 338 890 303 890 q 397 866 372 890 q 422 807 422 842 q 397 747 422 772 q 338 722 372 722 q 278 747 303 722 z "},"ý":{"ha":708,"x_min":-61,"x_max":658,"o":"m 496 678 q 617 619 576 678 q 658 471 658 560 q 517 140 658 261 q 433 78 490 118 q 337 11 375 39 q 267 -62 299 -17 q 235 -157 235 -108 q 301 -276 235 -239 q 317 -282 310 -282 q 329 -269 329 -282 q 318 -256 329 -262 q 275 -185 275 -228 q 301 -113 275 -142 q 372 -85 328 -85 q 447 -115 415 -85 q 479 -197 479 -146 q 444 -281 479 -249 q 353 -314 410 -314 q 253 -272 296 -314 q 210 -163 210 -229 q 241 -53 210 -97 q 328 36 272 -8 q 98 226 157 92 q 39 607 39 360 l 39 629 l -61 629 l -61 651 l 22 651 q 311 678 185 651 q 308 535 308 614 q 324 376 308 457 q 364 250 340 294 q 463 163 414 163 q 601 299 540 163 q 633 474 633 371 q 578 624 633 576 q 537 647 554 647 q 519 635 519 647 q 532 621 519 626 q 579 553 579 599 q 551 480 579 507 q 479 453 522 453 q 406 484 436 453 q 376 564 376 515 q 410 645 376 613 q 496 678 444 678 m 531 874 l 538 849 l 124 736 l 117 760 l 531 874 z "},"þ":{"ha":918,"x_min":54,"x_max":868,"o":"m 415 86 l 415 -262 l 510 -262 l 510 -285 l 61 -285 l 61 -262 l 153 -262 l 153 950 l 54 950 l 54 972 l 138 972 q 415 999 289 972 l 415 556 l 422 556 q 495 650 449 622 q 617 678 542 678 q 808 582 747 678 q 868 335 868 486 q 799 85 868 183 q 601 -12 731 -12 q 422 86 471 -12 l 415 86 m 410 333 l 410 296 q 442 106 410 174 q 515 39 474 39 q 588 333 588 39 q 573 548 588 481 q 515 615 558 615 q 438 528 465 615 q 410 333 410 440 z "},"ÿ":{"ha":708,"x_min":-61,"x_max":658,"o":"m 496 678 q 617 619 576 678 q 658 471 658 560 q 517 140 658 261 q 433 78 490 118 q 337 11 375 39 q 267 -62 299 -17 q 235 -157 235 -108 q 301 -276 235 -239 q 317 -282 310 -282 q 329 -269 329 -282 q 318 -256 329 -262 q 275 -185 275 -228 q 301 -113 275 -142 q 372 -85 328 -85 q 447 -115 415 -85 q 479 -197 479 -146 q 444 -281 479 -249 q 353 -314 410 -314 q 253 -272 296 -314 q 210 -163 210 -229 q 241 -53 210 -97 q 328 36 272 -8 q 98 226 157 92 q 39 607 39 360 l 39 629 l -61 629 l -61 651 l 22 651 q 311 678 185 651 q 308 535 308 614 q 324 376 308 457 q 364 250 340 294 q 463 163 414 163 q 601 299 540 163 q 633 474 633 371 q 578 624 633 576 q 537 647 554 647 q 519 635 519 647 q 532 621 519 626 q 579 553 579 599 q 551 480 579 507 q 479 453 522 453 q 406 484 436 453 q 376 564 376 515 q 410 645 376 613 q 496 678 444 678 m 399 747 q 386 760 399 747 q 374 807 374 772 q 399 866 374 842 q 458 890 424 890 q 517 866 493 890 q 542 807 542 842 q 517 747 542 772 q 458 722 493 722 q 399 747 424 722 m 148 747 q 136 760 148 747 q 124 807 124 772 q 148 866 124 842 q 207 890 172 890 q 267 866 242 890 q 292 807 292 842 q 267 747 292 772 q 207 722 242 722 q 148 747 172 722 z "},"ħ":{"ha":882,"x_min":0,"x_max":865,"o":"m 0 769 l 0 796 l 540 796 l 540 769 l 0 769 m 99 950 l 0 950 l 0 972 l 83 972 q 361 999 235 972 l 361 556 l 368 556 q 441 650 394 622 q 563 678 488 678 q 731 603 682 678 q 779 392 779 529 l 779 35 l 865 35 l 865 13 l 436 13 l 436 35 l 522 35 l 522 333 q 510 542 522 476 q 454 608 497 608 q 381 520 406 608 q 356 313 356 432 l 356 13 l 13 13 l 13 35 l 99 35 l 99 950 z "},"Ĩ":{"ha":589,"x_min":42,"x_max":547,"o":"m 547 35 l 547 13 l 42 13 l 42 35 l 144 35 l 144 950 l 42 950 l 42 972 l 544 972 l 544 950 l 428 950 l 428 35 l 547 35 m 393 1076 q 290 1099 356 1076 q 189 1121 225 1121 q 124 1109 153 1121 q 83 1086 96 1097 l 69 1075 l 50 1096 q 185 1149 106 1149 q 297 1126 233 1149 q 394 1104 360 1104 q 456 1116 428 1104 q 497 1139 485 1128 l 511 1150 l 531 1129 q 393 1076 478 1076 z "},"ĩ":{"ha":417,"x_min":-44,"x_max":436,"o":"m 85 629 l -14 629 l -14 651 l 69 651 q 347 678 221 651 l 347 35 l 433 35 l 433 13 l -1 13 l -1 35 l 85 35 l 85 629 m 299 769 q 196 792 261 769 q 94 814 131 814 q 30 803 58 814 q -11 781 1 792 l -25 768 l -44 789 q 90 842 11 842 q 202 819 139 842 q 299 797 265 797 q 362 808 333 797 q 403 831 390 819 l 417 843 l 436 822 q 299 769 383 769 z "},"ı":{"ha":417,"x_min":-14,"x_max":433,"o":"m 85 629 l -14 629 l -14 651 l 69 651 q 347 678 221 651 l 347 35 l 433 35 l 433 13 l -1 13 l -1 35 l 85 35 l 85 629 z "},"ĳ":{"ha":981,"x_min":19,"x_max":883,"o":"m 118 629 l 19 629 l 19 651 l 103 651 q 381 678 254 651 l 381 35 l 467 35 l 467 13 l 32 13 l 32 35 l 118 35 l 118 629 m 249 736 q 222 736 249 736 q 156 774 194 736 q 118 867 118 813 q 156 960 118 922 q 250 999 194 999 q 343 960 306 999 q 381 867 381 922 q 342 774 381 813 q 249 736 304 736 m 883 -14 q 843 -211 883 -126 q 776 -284 821 -257 q 669 -311 732 -311 q 565 -271 607 -311 q 524 -174 524 -231 q 556 -81 524 -118 q 641 -43 589 -43 q 724 -74 693 -43 q 756 -149 756 -104 q 729 -224 756 -194 q 662 -253 703 -253 q 597 -225 621 -253 q 574 -204 586 -204 q 563 -217 563 -204 q 571 -237 563 -225 q 670 -286 607 -286 q 770 -242 733 -286 q 807 -135 807 -199 q 762 -27 807 -71 q 643 17 717 17 q 621 15 632 17 l 621 629 l 522 629 l 522 651 l 606 651 q 883 678 757 651 l 883 -14 m 747 736 q 719 736 747 736 q 653 774 692 736 q 615 867 615 813 q 653 960 615 922 q 747 999 692 999 q 840 960 803 999 q 878 867 878 922 q 840 774 878 813 q 747 736 801 736 z "},"Ĵ":{"ha":639,"x_min":14,"x_max":604,"o":"m 89 1111 l 346 1218 l 604 1111 l 596 1088 l 346 1188 l 97 1088 l 89 1111 m 196 -285 q 71 -240 128 -285 q 14 -126 14 -196 q 57 -11 14 -56 q 157 33 100 33 q 253 -3 214 33 q 292 -92 292 -39 q 259 -183 292 -146 q 172 -219 226 -219 q 119 -208 142 -219 q 90 -186 97 -197 l 83 -174 q 67 -157 75 -157 q 54 -169 54 -157 q 63 -192 54 -172 q 108 -235 72 -212 q 190 -258 144 -258 q 310 -209 269 -258 q 351 -103 351 -160 q 335 -10 351 -46 q 297 47 319 26 q 211 97 250 88 l 196 101 l 196 953 l 94 953 l 94 972 l 597 972 l 597 953 l 481 953 l 481 56 q 403 -197 481 -108 q 196 -285 326 -285 z "},"ĵ":{"ha":500,"x_min":-7,"x_max":507,"o":"m 403 -14 q 363 -211 403 -126 q 296 -284 340 -257 q 189 -311 251 -311 q 85 -271 126 -311 q 43 -174 43 -231 q 76 -81 43 -118 q 160 -43 108 -43 q 244 -74 213 -43 q 275 -149 275 -104 q 249 -224 275 -194 q 181 -253 222 -253 q 117 -225 140 -253 q 94 -204 106 -204 q 82 -217 82 -204 q 90 -237 82 -225 q 190 -286 126 -286 q 290 -242 253 -286 q 326 -135 326 -199 q 281 -27 326 -71 q 163 17 236 17 q 140 15 151 17 l 140 629 l 42 629 l 42 651 l 125 651 q 403 678 276 651 l 403 -14 m 250 846 l 250 874 l 507 767 l 499 743 l 250 846 m 250 874 l 250 846 l 1 743 l -7 767 l 250 874 z "},"ķ":{"ha":853,"x_min":14,"x_max":882,"o":"m 422 -97 q 513 -74 458 -74 q 610 -115 568 -74 q 651 -213 651 -156 q 611 -308 651 -271 q 521 -346 571 -346 q 440 -310 471 -346 q 410 -231 410 -275 q 441 -158 410 -186 q 507 -131 472 -131 q 569 -156 542 -131 q 599 -210 597 -181 q 613 -239 600 -239 q 625 -222 625 -239 q 596 -140 625 -181 q 511 -100 567 -100 q 448 -116 479 -100 q 401 -156 417 -132 l 378 -131 l 442 22 l 469 13 l 422 -97 m 851 21 l 879 22 l 882 1 q 692 -15 732 -15 q 613 1 653 -15 q 552 41 574 17 q 519 106 531 65 q 501 272 501 163 q 439 383 501 381 q 375 378 411 381 l 375 35 l 469 35 l 469 13 l 21 13 l 21 35 l 113 35 l 113 950 l 14 950 l 14 972 l 97 972 q 375 999 249 972 l 375 404 q 612 462 522 415 q 701 593 701 508 q 657 688 701 654 q 636 696 644 696 q 624 683 624 696 q 633 669 624 676 q 644 661 642 663 q 672 599 672 638 q 644 535 672 560 q 573 510 617 510 q 499 541 529 510 q 469 622 469 572 q 506 703 469 672 q 596 735 542 735 q 688 694 650 735 q 726 592 726 653 q 582 421 726 479 l 583 415 q 717 374 664 415 q 758 317 740 356 q 776 210 776 278 q 788 94 776 142 q 813 34 799 47 q 851 21 828 21 z "},"ĸ":{"ha":853,"x_min":14,"x_max":882,"o":"m 851 21 l 879 22 l 882 1 q 686 -15 732 -15 q 596 4 640 -15 q 533 60 551 24 q 501 203 501 119 q 483 307 501 288 q 439 328 464 326 q 375 322 411 325 l 375 35 l 469 35 l 469 13 l 21 13 l 21 35 l 113 35 l 113 629 l 14 629 l 14 651 l 97 651 q 375 678 249 651 l 375 349 q 612 406 522 360 q 701 538 701 453 q 657 632 701 599 q 636 640 644 640 q 624 628 624 640 q 633 614 624 621 q 644 606 642 607 q 672 543 672 582 q 644 479 672 504 q 573 454 617 454 q 499 485 529 454 q 469 567 469 517 q 506 648 469 617 q 596 679 542 679 q 688 638 650 679 q 726 536 726 597 q 582 365 726 424 l 583 360 q 689 331 624 360 q 751 272 726 314 q 776 178 776 231 q 780 97 776 126 q 786 52 783 68 q 799 28 789 36 q 813 19 810 21 q 833 19 817 18 q 851 21 849 21 z "},"ŀ":{"ha":919,"x_min":28,"x_max":740,"o":"m 126 35 l 126 950 l 28 950 l 28 972 l 111 972 q 389 999 263 972 l 389 35 l 478 35 l 478 13 l 40 13 l 40 35 l 126 35 m 508 456 q 489 475 508 456 q 469 551 469 494 q 508 648 469 608 q 604 688 547 688 q 701 648 661 688 q 740 551 740 608 q 701 456 740 494 q 604 417 661 417 q 508 456 547 417 z "},"Ł":{"ha":846,"x_min":42,"x_max":804,"o":"m 42 13 l 42 32 l 131 32 l 131 442 l 43 407 l 43 438 l 131 472 l 131 953 l 42 953 l 42 972 l 531 972 l 531 953 l 414 953 l 414 586 l 643 678 l 643 647 l 414 556 l 414 32 l 463 32 q 701 158 615 32 q 786 492 786 285 l 804 492 l 804 13 l 42 13 z "},"ł":{"ha":511,"x_min":28,"x_max":478,"o":"m 476 647 l 476 619 l 50 457 l 50 486 l 476 647 m 126 35 l 126 950 l 28 950 l 28 972 l 111 972 q 389 999 263 972 l 389 35 l 478 35 l 478 13 l 40 13 l 40 35 l 126 35 z "},"Ń":{"ha":957,"x_min":-42,"x_max":999,"o":"m 158 758 l 158 310 q 169 157 158 214 q 208 73 179 100 q 269 39 236 46 q 363 32 301 32 l 363 13 l -42 13 l -42 32 q 100 75 72 32 q 119 110 111 94 q 129 163 126 126 q 133 307 133 217 l 133 807 l 108 846 q 99 862 107 847 q 86 883 90 876 q 72 902 82 889 q 54 922 63 915 q 35 938 46 929 q -17 953 14 953 l -17 972 l 268 972 q 362 953 325 972 q 439 871 399 935 l 790 306 l 799 306 l 799 675 q 788 828 799 771 q 749 912 778 885 q 688 946 721 939 q 594 953 656 953 l 594 972 l 999 972 l 999 953 q 886 919 933 953 q 836 833 858 899 q 824 750 824 793 l 824 13 l 742 13 q 648 31 685 13 q 571 114 611 50 l 164 758 l 158 758 m 753 1189 l 760 1164 l 346 1051 l 339 1075 l 753 1189 z "},"ń":{"ha":910,"x_min":28,"x_max":893,"o":"m 126 629 l 28 629 l 28 651 l 111 651 q 389 678 263 651 l 389 542 l 396 542 q 590 678 450 678 q 758 603 710 678 q 807 392 807 529 l 807 35 l 893 35 l 893 13 l 464 13 l 464 35 l 550 35 l 550 333 q 538 539 550 475 q 482 603 525 603 q 408 499 433 603 q 383 271 383 396 l 383 13 l 40 13 l 40 35 l 126 35 l 126 629 m 672 874 l 679 849 l 265 736 l 258 760 l 672 874 z "},"Œ":{"ha":1551,"x_min":86,"x_max":1454,"o":"m 560 972 l 1428 972 l 1428 651 l 1407 651 q 1342 878 1407 807 q 1117 950 1278 950 l 1013 950 l 1013 517 l 1064 517 q 1250 718 1250 517 l 1271 718 l 1271 289 l 1250 289 q 1199 442 1250 390 q 1058 494 1149 494 l 1013 494 l 1013 35 l 1097 35 q 1375 136 1308 35 q 1422 249 1410 189 q 1433 401 1433 310 l 1454 401 l 1454 13 l 561 13 q 348 55 442 13 q 199 167 254 97 q 86 494 86 310 q 197 814 86 672 q 347 928 253 885 q 560 972 442 972 m 468 75 q 561 38 503 38 q 654 75 619 38 q 728 494 728 154 q 654 911 728 835 q 561 947 619 947 q 468 911 503 947 q 393 494 393 835 q 468 75 393 156 z "},"œ":{"ha":1218,"x_min":42,"x_max":1197,"o":"m 892 -14 q 632 49 731 -14 q 408 -14 539 -14 q 143 81 244 -14 q 42 332 42 176 q 143 583 42 488 q 408 678 244 678 q 632 615 539 678 q 860 678 728 678 q 1144 589 1051 678 q 1197 472 1197 538 q 1173 368 1197 406 q 1103 311 1149 331 q 892 276 1022 276 l 776 276 l 776 254 q 813 69 776 122 q 923 15 850 15 q 1069 65 996 15 q 1165 232 1142 114 l 1190 228 q 1092 51 1169 117 q 892 -14 1015 -14 m 341 81 q 350 46 341 81 q 408 11 360 11 q 476 81 457 11 q 494 329 494 150 l 494 344 q 474 585 493 517 q 408 653 456 653 q 341 583 360 653 q 322 332 322 513 q 341 81 322 151 m 776 468 l 776 301 l 800 301 q 908 344 872 301 q 944 482 944 388 q 861 653 944 653 q 795 606 814 653 q 776 468 776 560 z "},"Ŕ":{"ha":1029,"x_min":42,"x_max":1029,"o":"m 481 458 l 414 458 l 414 32 l 501 32 l 501 13 l 42 13 l 42 32 l 131 32 l 131 953 l 42 953 l 42 972 l 517 972 q 819 917 715 972 q 922 718 922 861 q 618 475 922 503 q 642 475 629 475 q 861 401 774 475 q 910 318 899 368 q 922 151 922 268 l 922 129 q 953 54 922 54 q 983 92 969 54 q 1004 189 997 131 l 1029 186 q 1015 106 1024 136 q 988 44 1007 75 q 836 -14 950 -14 q 665 63 722 -14 q 635 131 643 93 q 626 268 626 169 q 600 408 626 367 q 481 458 571 458 m 414 953 l 414 478 l 478 478 q 583 514 554 478 q 609 549 600 532 q 622 599 618 565 q 628 711 628 643 q 585 901 628 849 q 460 953 542 953 l 414 953 m 697 1189 l 704 1164 l 290 1051 l 283 1075 l 697 1189 z "},"Ŗ":{"ha":1029,"x_min":42,"x_max":1029,"o":"m 617 -168 l 622 -196 q 601 -254 622 -228 q 536 -281 579 -281 q 462 -249 493 -281 q 431 -174 431 -218 q 466 -97 431 -131 q 551 -64 501 -64 q 637 -102 600 -64 q 674 -197 674 -140 q 627 -297 674 -253 q 521 -344 581 -342 l 515 -319 l 519 -319 q 611 -278 574 -319 q 649 -197 649 -237 q 631 -156 649 -156 q 617 -168 617 -156 m 649 475 q 861 411 786 475 q 910 324 897 379 q 922 151 922 269 l 922 129 q 953 54 922 54 q 983 92 969 54 q 1004 189 997 131 l 1029 186 q 1015 106 1024 136 q 988 44 1007 75 q 836 -14 950 -14 q 665 63 722 -14 q 635 131 643 93 q 626 267 626 169 q 600 406 626 364 q 481 456 571 456 l 414 456 l 414 35 l 501 35 l 501 13 l 42 13 l 42 35 l 131 35 l 131 950 l 42 950 l 42 972 l 517 972 q 819 917 715 972 q 922 718 922 861 q 649 481 922 515 l 649 475 m 414 950 l 414 479 l 478 479 q 596 525 557 479 q 628 706 628 563 q 585 899 628 849 q 460 950 542 950 l 414 950 z "},"ŗ":{"ha":663,"x_min":14,"x_max":682,"o":"m 310 -168 l 315 -196 q 294 -254 315 -228 q 229 -281 272 -281 q 155 -249 186 -281 q 124 -174 124 -218 q 159 -97 124 -131 q 244 -64 194 -64 q 330 -102 293 -64 q 367 -197 367 -140 q 320 -297 367 -253 q 214 -344 274 -342 l 208 -319 l 213 -319 q 304 -278 267 -319 q 342 -197 342 -237 q 324 -156 342 -156 q 310 -168 310 -156 m 375 565 l 382 565 q 444 647 404 615 q 542 678 485 678 q 641 640 600 678 q 682 547 682 601 q 650 457 682 493 q 568 421 618 421 q 487 450 518 421 q 456 523 456 479 q 481 595 456 567 q 546 624 507 624 q 608 596 585 624 q 631 575 619 575 q 643 588 643 575 q 635 608 643 596 q 540 653 601 653 q 369 311 369 653 l 369 35 l 474 35 l 474 13 l 26 13 l 26 35 l 113 35 l 113 629 l 14 629 l 14 651 l 97 651 q 375 678 249 651 l 375 565 z "},"Ř":{"ha":1029,"x_min":42,"x_max":1029,"o":"m 481 458 l 414 458 l 414 32 l 501 32 l 501 13 l 42 13 l 42 32 l 131 32 l 131 953 l 42 953 l 42 972 l 517 972 q 819 917 715 972 q 922 718 922 861 q 618 475 922 503 q 642 475 629 475 q 861 401 774 475 q 910 318 899 368 q 922 151 922 268 l 922 129 q 953 54 922 54 q 983 92 969 54 q 1004 189 997 131 l 1029 186 q 1015 106 1024 136 q 988 44 1007 75 q 836 -14 950 -14 q 665 63 722 -14 q 635 131 643 93 q 626 268 626 169 q 600 408 626 367 q 481 458 571 458 m 414 953 l 414 478 l 478 478 q 583 514 554 478 q 609 549 600 532 q 622 599 618 565 q 628 711 628 643 q 585 901 628 849 q 460 953 542 953 l 414 953 m 764 1192 l 507 1085 l 249 1192 l 257 1215 l 507 1115 l 756 1215 l 764 1192 z "},"ř":{"ha":715,"x_min":14,"x_max":682,"o":"m 375 565 l 382 565 q 444 647 404 615 q 542 678 485 678 q 641 640 600 678 q 682 547 682 601 q 650 457 682 493 q 568 421 618 421 q 487 450 518 421 q 456 523 456 479 q 481 595 456 567 q 546 624 507 624 q 608 596 585 624 q 631 575 619 575 q 643 588 643 575 q 635 608 643 596 q 540 653 601 653 q 369 311 369 653 l 369 35 l 474 35 l 474 13 l 26 13 l 26 35 l 113 35 l 113 629 l 14 629 l 14 651 l 97 651 q 375 678 249 651 l 375 565 m 533 838 l 276 731 l 18 838 l 26 861 l 276 761 l 525 861 l 533 838 z "},"ś":{"ha":738,"x_min":53,"x_max":681,"o":"m 594 603 q 586 611 594 603 q 535 634 578 619 q 432 649 493 649 q 331 622 371 649 q 290 551 290 594 q 331 474 290 507 q 428 416 371 442 q 542 360 485 390 q 640 285 600 331 q 681 181 681 239 q 590 39 681 92 q 317 -14 499 -14 q 150 15 235 -14 q 80 63 107 31 q 53 144 53 96 q 85 228 53 193 q 167 264 117 264 q 247 235 217 264 q 278 163 278 207 q 252 91 278 118 q 190 64 226 64 q 126 90 153 64 q 122 95 124 93 q 119 99 121 97 q 117 101 118 100 q 107 104 111 104 q 96 92 96 104 q 117 61 96 79 q 189 28 139 43 q 302 13 239 13 q 410 34 365 13 q 456 97 456 56 q 415 173 456 138 q 317 238 375 208 q 201 300 260 268 q 103 377 143 332 q 63 475 63 422 q 144 619 63 563 q 397 676 225 676 q 589 634 525 676 q 653 522 653 592 q 621 435 653 471 q 540 400 589 400 q 460 429 490 400 q 429 502 429 458 q 454 574 429 546 q 517 601 479 601 q 573 581 556 601 q 599 561 590 561 q 611 574 611 561 q 594 603 611 586 m 586 874 l 593 849 l 179 736 l 172 760 l 586 874 z "},"ŝ":{"ha":738,"x_min":53,"x_max":681,"o":"m 111 774 l 368 881 l 626 774 l 618 750 l 368 850 l 119 750 l 111 774 m 594 603 q 586 611 594 603 q 535 634 578 619 q 432 649 493 649 q 331 622 371 649 q 290 551 290 594 q 331 474 290 507 q 428 416 371 442 q 542 360 485 390 q 640 285 600 331 q 681 181 681 239 q 590 39 681 92 q 317 -14 499 -14 q 150 15 235 -14 q 80 63 107 31 q 53 144 53 96 q 85 228 53 193 q 167 264 117 264 q 247 235 217 264 q 278 163 278 207 q 252 91 278 118 q 190 64 226 64 q 126 90 153 64 q 122 95 124 93 q 119 99 121 97 q 117 101 118 100 q 107 104 111 104 q 96 92 96 104 q 117 61 96 79 q 189 28 139 43 q 302 13 239 13 q 410 34 365 13 q 456 97 456 56 q 415 173 456 138 q 317 238 375 208 q 201 300 260 268 q 103 377 143 332 q 63 475 63 422 q 144 619 63 563 q 397 676 225 676 q 589 634 525 676 q 653 522 653 592 q 621 435 653 471 q 540 400 589 400 q 460 429 490 400 q 429 502 429 458 q 454 574 429 546 q 517 601 479 601 q 573 581 556 601 q 599 561 590 561 q 611 574 611 561 q 594 603 611 586 z "},"Š":{"ha":893,"x_min":65,"x_max":838,"o":"m 838 299 q 724 66 838 146 q 446 -14 611 -14 q 284 13 372 -14 q 169 39 196 39 q 124 26 143 39 q 96 0 104 13 l 88 -14 l 65 -14 l 65 381 l 88 381 q 133 267 114 310 q 184 169 151 224 q 250 85 217 115 q 334 33 283 54 q 447 11 385 11 q 556 49 510 11 q 601 165 601 88 q 551 265 601 224 q 468 320 514 297 q 391 358 422 343 q 322 390 360 372 q 244 433 283 408 q 161 494 204 457 q 74 704 74 571 q 177 918 74 838 q 438 999 281 999 q 594 974 511 999 q 703 950 676 950 q 745 962 729 950 q 771 999 761 974 l 793 999 l 793 658 l 771 658 q 650 878 735 782 q 453 974 565 974 q 304 833 304 974 q 356 718 304 763 q 576 594 414 668 q 756 490 721 529 q 797 442 775 469 q 838 299 838 389 m 704 1192 l 447 1085 l 189 1192 l 197 1215 l 447 1115 l 696 1215 l 704 1192 z "},"š":{"ha":721,"x_min":60,"x_max":688,"o":"m 601 603 q 593 611 601 603 q 542 634 585 619 q 439 649 500 649 q 338 622 378 649 q 297 551 297 594 q 338 474 297 507 q 435 416 378 442 q 549 360 492 390 q 647 285 607 331 q 688 181 688 239 q 597 39 688 92 q 324 -14 506 -14 q 158 15 242 -14 q 87 63 114 31 q 60 144 60 96 q 92 228 60 193 q 174 264 124 264 q 254 235 224 264 q 285 163 285 207 q 259 91 285 118 q 197 64 233 64 q 133 90 160 64 q 129 95 131 93 q 126 99 128 97 q 122 101 125 100 q 114 104 119 104 q 103 92 103 104 q 124 61 103 79 q 196 28 146 43 q 309 13 246 13 q 417 34 372 13 q 463 97 463 56 q 422 173 463 138 q 324 238 382 208 q 208 300 267 268 q 110 377 150 332 q 69 475 69 422 q 151 619 69 563 q 404 676 232 676 q 596 634 532 676 q 660 522 660 592 q 628 435 660 471 q 547 400 596 400 q 467 429 497 400 q 436 502 436 458 q 461 574 436 546 q 524 601 486 601 q 580 581 563 601 q 606 561 597 561 q 618 574 618 561 q 601 603 618 586 m 638 838 l 381 731 l 122 838 l 131 861 l 381 761 l 629 861 l 638 838 z "},"Ÿ":{"ha":893,"x_min":-56,"x_max":935,"o":"m 715 858 q 571 950 715 950 l 532 950 l 532 972 l 935 972 l 935 950 q 767 865 808 950 l 569 414 l 569 35 l 658 35 l 658 13 l 197 13 l 197 35 l 286 35 l 286 392 l 25 950 l -56 950 l -56 972 l 446 972 l 446 950 l 325 950 l 556 454 l 688 757 q 715 858 715 817 m 501 1074 q 489 1086 501 1074 q 476 1133 476 1099 q 501 1192 476 1168 q 561 1217 526 1217 q 620 1192 596 1217 q 644 1133 644 1168 q 620 1074 644 1099 q 561 1049 596 1049 q 501 1074 526 1049 m 251 1074 q 239 1086 251 1074 q 226 1133 226 1099 q 251 1192 226 1168 q 310 1217 275 1217 q 369 1192 344 1217 q 394 1133 394 1168 q 369 1074 394 1099 q 310 1049 344 1049 q 251 1074 275 1049 z "},"Ž":{"ha":907,"x_min":28,"x_max":865,"o":"m 81 538 l 81 972 l 865 972 l 343 35 l 431 35 q 736 139 631 35 q 842 483 842 243 l 861 483 l 861 13 l 28 13 l 543 946 l 454 946 q 194 842 275 946 q 100 538 114 739 l 81 538 m 739 1192 l 482 1085 l 224 1192 l 232 1215 l 482 1115 l 731 1215 l 739 1192 z "},"ž":{"ha":747,"x_min":40,"x_max":733,"o":"m 528 11 q 692 86 650 11 q 696 103 696 92 q 683 114 696 114 q 673 108 676 114 q 665 95 669 101 q 659 86 661 89 q 652 78 657 83 q 642 69 647 72 q 631 64 638 67 q 586 57 618 57 q 529 87 554 57 q 504 160 504 117 q 536 233 504 203 q 617 263 568 263 q 699 228 665 263 q 733 146 733 194 q 678 30 733 74 q 528 -14 622 -14 q 387 1 499 -14 q 201 15 275 15 q 40 0 126 15 l 40 19 l 425 633 q 250 653 263 653 q 86 578 128 653 q 82 561 82 572 q 94 550 82 550 q 105 556 101 550 q 113 569 108 563 q 119 578 117 575 q 126 586 121 581 q 135 594 131 592 q 147 600 140 597 q 192 607 160 607 q 249 577 224 607 q 274 503 274 547 q 242 431 274 460 q 162 401 211 401 q 78 435 113 401 q 44 518 44 469 q 100 634 44 590 q 250 678 156 678 q 390 663 279 678 q 580 649 501 649 q 708 657 658 649 l 708 638 l 329 33 q 528 11 514 11 m 679 858 l 422 751 l 164 858 l 172 882 l 422 782 l 671 882 l 679 858 z "},"ƒ":{"ha":740,"x_min":-139,"x_max":796,"o":"m 208 54 l 193 435 l 193 444 l 14 444 l 14 474 l 193 474 q 381 919 208 775 q 596 997 472 997 q 740 956 685 997 q 796 856 796 915 q 765 760 796 797 q 683 724 733 724 q 601 753 633 724 q 569 828 569 783 q 596 901 569 872 q 653 929 622 929 q 700 920 683 929 q 722 900 717 911 q 747 872 738 872 q 761 883 761 872 q 722 941 761 914 q 633 968 682 968 q 464 697 464 968 q 471 474 464 664 l 646 474 l 646 444 l 472 444 l 474 358 q 361 -94 474 110 q 222 -251 307 -192 q 32 -311 136 -311 q -90 -274 -42 -311 q -139 -178 -139 -236 q -108 -84 -139 -121 q -26 -47 -76 -47 q 56 -76 24 -47 q 88 -149 88 -104 q 63 -223 88 -194 q 2 -251 38 -251 q -51 -237 -33 -251 q -75 -209 -68 -224 q -89 -194 -82 -194 q -103 -210 -103 -194 q -96 -228 -103 -214 q 22 -287 -61 -287 q 139 -226 83 -287 q 189 -121 169 -193 q 208 54 208 -49 z "},"ȷ":{"ha":500,"x_min":42,"x_max":403,"o":"m 403 -14 q 363 -211 403 -126 q 296 -284 340 -257 q 189 -311 251 -311 q 85 -271 126 -311 q 43 -174 43 -231 q 76 -81 43 -118 q 160 -43 108 -43 q 244 -74 213 -43 q 275 -149 275 -104 q 249 -224 275 -194 q 181 -253 222 -253 q 117 -225 140 -253 q 94 -204 106 -204 q 82 -217 82 -204 q 90 -237 82 -225 q 190 -286 126 -286 q 290 -242 253 -286 q 326 -135 326 -199 q 281 -27 326 -71 q 163 17 236 17 q 140 15 151 17 l 140 629 l 42 629 l 42 651 l 125 651 q 403 678 276 651 l 403 -14 z "},"ˆ":{"ha":507,"x_min":-3,"x_max":511,"o":"m 254 846 l 254 874 l 511 767 l 503 743 l 254 846 m 254 874 l 254 846 l 6 743 l -3 767 l 254 874 z "},"ˇ":{"ha":643,"x_min":60,"x_max":575,"o":"m 575 836 l 318 729 l 60 836 l 68 860 l 318 760 l 567 860 l 575 836 z "},"˘":{"ha":399,"x_min":71,"x_max":338,"o":"m 298 776 q 279 757 298 776 q 204 738 260 738 q 110 776 149 738 q 71 868 72 814 l 99 868 q 131 795 101 825 q 204 765 161 765 q 277 795 247 765 q 310 868 307 825 l 338 868 q 298 776 336 814 z "},"˙":{"ha":285,"x_min":10,"x_max":272,"o":"m 141 736 q 114 736 141 736 q 48 774 86 736 q 10 867 10 813 q 48 960 10 922 q 142 999 86 999 q 235 960 197 999 q 272 867 272 922 q 234 774 272 813 q 141 736 196 736 z "},"˚":{"ha":235,"x_min":35,"x_max":200,"o":"m 77 848 q 68 839 77 848 q 60 807 60 831 q 77 765 60 783 q 117 747 94 747 q 158 765 140 747 q 175 807 175 783 q 158 848 175 831 q 117 865 140 865 q 77 848 94 865 m 117 722 q 99 722 117 722 q 58 747 82 722 q 35 806 35 771 q 58 866 35 842 q 117 890 82 890 q 176 866 151 890 q 200 806 200 842 q 176 747 200 771 q 117 722 151 722 z "},"˛":{"ha":446,"x_min":81,"x_max":376,"o":"m 149 -196 q 183 -126 153 -156 q 263 -97 213 -97 q 344 -135 313 -97 q 375 -226 375 -172 q 333 -317 375 -279 q 229 -356 290 -356 q 124 -315 168 -356 q 81 -199 81 -274 q 142 -58 81 -124 q 289 36 204 7 l 290 14 q 154 -81 203 -19 q 106 -203 106 -142 q 143 -298 106 -265 q 232 -331 181 -331 q 315 -300 283 -331 q 329 -281 329 -287 q 318 -268 332 -268 q 301 -275 313 -268 q 238 -299 268 -299 q 174 -269 200 -299 q 149 -204 149 -240 q 149 -196 149 -200 z "},"˜":{"ha":651,"x_min":86,"x_max":567,"o":"m 429 769 q 326 792 392 769 q 225 814 261 814 q 160 803 189 814 q 119 781 132 792 l 106 768 l 86 789 q 221 842 142 842 q 333 819 269 842 q 430 797 396 797 q 492 808 464 797 q 533 831 521 819 l 547 843 l 567 822 q 429 769 514 769 z "},"˝":{"ha":604,"x_min":-11,"x_max":646,"o":"m 638 963 l 646 939 l 301 821 l 293 844 l 638 963 m 333 963 l 342 939 l -3 821 l -11 844 l 333 963 z "},"π":{"ha":826,"x_min":31,"x_max":821,"o":"m 722 65 q 790 204 775 65 l 815 201 q 757 42 803 99 q 622 -14 711 -14 q 440 189 440 -14 l 440 522 l 306 529 l 307 193 q 263 43 307 99 q 147 -12 219 -12 q 65 22 99 -12 q 31 105 31 56 q 61 185 31 154 q 135 217 92 217 q 208 192 179 217 q 236 125 236 168 q 197 56 236 81 q 185 48 192 51 q 179 38 179 44 q 192 25 179 25 q 207 29 200 25 q 282 193 282 71 l 282 531 l 261 532 q 211 533 244 533 q 125 467 125 533 q 129 424 125 447 l 107 419 q 94 514 94 467 q 149 631 94 593 q 281 669 203 669 q 297 669 289 669 l 656 651 q 706 650 672 650 q 765 663 740 650 q 790 717 790 676 q 786 758 790 736 l 808 764 q 821 669 821 719 q 697 517 821 532 l 697 122 q 722 65 697 65 z "},"–":{"ha":672,"x_min":7,"x_max":665,"o":"m 665 343 l 665 314 l 7 314 l 7 343 l 665 343 z "},"—":{"ha":1325,"x_min":1,"x_max":1317,"o":"m 1317 343 l 1317 314 l 1 314 l 1 343 l 1317 343 z "},"‘":{"ha":397,"x_min":38,"x_max":357,"o":"m 300 975 q 182 921 243 958 q 92 828 121 883 q 63 716 63 772 q 85 617 63 660 q 151 557 107 575 q 167 553 163 553 q 179 565 179 553 q 165 581 179 574 q 108 679 108 603 q 144 763 108 731 q 233 794 181 794 q 321 756 285 794 q 357 660 357 717 q 315 563 357 603 q 201 522 274 522 q 83 576 128 522 q 38 719 38 631 q 101 883 38 807 q 297 999 164 958 l 300 975 z "},"’":{"ha":408,"x_min":39,"x_max":358,"o":"m 96 546 q 214 600 153 563 q 304 693 275 638 q 333 805 333 749 q 311 903 333 861 q 244 964 289 946 q 229 968 233 968 q 217 956 217 968 q 231 940 217 947 q 288 842 288 918 q 251 758 288 790 q 163 726 215 726 q 75 765 111 726 q 39 861 39 804 q 81 958 39 918 q 195 999 122 999 q 313 944 268 999 q 358 802 358 890 q 295 638 358 714 q 99 522 232 563 l 96 546 z "},"‚":{"ha":401,"x_min":43,"x_max":356,"o":"m 331 83 q 268 204 331 167 q 249 213 254 213 q 236 203 236 213 q 246 186 236 193 q 289 104 289 157 q 254 19 289 51 q 166 -14 219 -14 q 78 26 113 -14 q 43 121 43 65 q 86 215 43 176 q 190 254 129 254 q 303 209 251 254 q 356 85 356 164 q 335 -15 356 31 q 286 -90 314 -61 q 219 -140 258 -118 q 104 -189 167 -172 l 99 -162 q 267 -69 207 -131 q 312 -4 293 -44 q 331 83 331 36 z "},"“":{"ha":778,"x_min":49,"x_max":729,"o":"m 311 975 q 193 921 254 958 q 103 828 132 883 q 74 716 74 772 q 96 617 74 660 q 163 557 118 575 q 178 553 174 553 q 190 565 190 553 q 176 581 190 574 q 119 679 119 603 q 156 763 119 731 q 244 794 192 794 q 332 756 296 794 q 368 660 368 717 q 326 563 368 603 q 212 522 285 522 q 94 576 139 522 q 49 719 49 631 q 112 883 49 807 q 308 999 175 958 l 311 975 m 672 975 q 554 921 615 958 q 464 828 493 883 q 435 716 435 772 q 457 617 435 660 q 524 557 479 575 q 539 553 533 553 q 551 565 551 553 q 538 581 551 574 q 481 679 481 603 q 517 763 481 731 q 605 794 553 794 q 693 756 657 794 q 729 660 729 717 q 688 563 729 603 q 573 522 646 522 q 455 576 500 522 q 410 719 410 631 q 473 883 410 807 q 669 999 536 958 l 672 975 z "},"”":{"ha":778,"x_min":49,"x_max":729,"o":"m 467 546 q 585 600 524 563 q 675 693 646 638 q 704 805 704 749 q 682 903 704 861 q 615 964 660 946 q 600 968 606 968 q 588 956 588 968 q 601 940 588 947 q 658 842 658 918 q 622 758 658 790 q 534 726 586 726 q 446 765 482 726 q 410 861 410 804 q 451 958 410 918 q 566 999 493 999 q 684 944 639 999 q 729 802 729 890 q 666 638 729 714 q 469 522 603 563 l 467 546 m 106 546 q 224 600 163 563 q 314 693 285 638 q 343 805 343 749 q 321 903 343 861 q 254 964 299 946 q 239 968 244 968 q 226 956 226 968 q 240 940 226 947 q 297 842 297 918 q 261 758 297 790 q 173 726 225 726 q 85 765 121 726 q 49 861 49 804 q 90 958 49 918 q 205 999 132 999 q 323 944 278 999 q 368 802 368 890 q 305 638 368 714 q 108 522 242 563 l 106 546 z "},"„":{"ha":794,"x_min":43,"x_max":733,"o":"m 331 83 q 268 204 331 167 q 249 213 254 213 q 236 203 236 213 q 246 186 236 193 q 289 104 289 157 q 254 19 289 51 q 166 -14 219 -14 q 78 26 113 -14 q 43 121 43 65 q 86 215 43 176 q 190 254 129 254 q 303 209 251 254 q 356 85 356 164 q 335 -15 356 31 q 286 -90 314 -61 q 219 -140 258 -118 q 104 -189 167 -172 l 99 -162 q 267 -69 207 -131 q 312 -4 293 -44 q 331 83 331 36 m 708 83 q 646 204 708 167 q 626 213 632 213 q 614 203 614 213 q 624 186 614 193 q 667 104 667 157 q 632 19 667 51 q 544 -14 597 -14 q 456 26 490 -14 q 421 121 421 65 q 464 215 421 176 q 568 254 507 254 q 681 209 629 254 q 733 85 733 164 q 713 -15 733 31 q 664 -90 692 -61 q 597 -140 636 -118 q 482 -189 544 -172 l 476 -162 q 644 -69 585 -131 q 690 -4 671 -44 q 708 83 708 36 z "},"†":{"ha":760,"x_min":38,"x_max":735,"o":"m 335 497 q 321 577 332 553 q 287 601 310 601 q 244 578 264 601 q 198 532 224 556 q 135 508 172 508 q 67 538 97 508 q 38 611 38 568 q 67 684 38 654 q 133 714 97 714 q 189 700 168 714 q 221 669 210 686 q 255 639 232 653 q 309 625 278 625 q 357 647 340 625 q 374 690 374 668 q 328 781 374 713 q 283 894 283 850 q 313 969 283 939 q 386 999 343 999 q 459 969 429 999 q 489 894 489 939 q 444 781 489 850 q 399 690 399 713 q 415 647 399 668 q 463 625 432 625 q 517 639 494 625 q 551 669 540 653 q 628 714 581 714 q 705 684 675 714 q 735 611 735 654 q 705 538 735 568 q 638 508 675 508 q 574 532 600 508 q 528 578 549 556 q 485 601 508 601 q 451 577 463 601 q 438 497 440 553 l 399 -162 l 374 -162 l 335 497 z "},"‡":{"ha":846,"x_min":38,"x_max":735,"o":"m 275 414 q 343 522 343 482 q 323 582 343 563 q 283 601 303 601 q 244 578 264 601 q 198 532 224 556 q 135 508 172 508 q 67 538 97 508 q 38 611 38 568 q 67 684 38 654 q 133 714 97 714 q 189 700 168 714 q 221 669 210 686 q 255 639 232 653 q 309 625 278 625 q 357 647 340 625 q 374 690 374 668 q 328 781 374 713 q 283 894 283 850 q 313 969 283 939 q 386 999 343 999 q 459 969 429 999 q 489 894 489 939 q 444 781 489 850 q 399 690 399 713 q 415 647 399 668 q 463 625 432 625 q 517 639 494 625 q 551 669 540 653 q 628 714 581 714 q 705 684 675 714 q 735 611 735 654 q 705 538 735 568 q 638 508 675 508 q 574 532 600 508 q 528 578 549 556 q 489 601 508 601 q 448 583 469 601 q 426 524 426 564 q 497 414 426 485 q 426 303 426 343 q 448 245 426 264 q 489 226 469 226 q 528 249 508 226 q 574 296 549 272 q 638 319 600 319 q 705 290 675 319 q 735 217 735 260 q 705 144 735 174 q 640 114 675 114 q 583 128 604 114 q 551 158 563 142 q 517 189 540 175 q 463 203 494 203 q 415 181 432 203 q 399 138 399 160 q 444 47 399 115 q 489 -67 489 -22 q 459 -141 489 -111 q 386 -171 429 -171 q 313 -141 343 -171 q 283 -67 283 -111 q 328 47 283 -22 q 374 138 374 115 q 357 181 374 160 q 309 203 340 203 q 255 189 278 203 q 221 158 232 175 q 144 114 192 114 q 67 144 97 114 q 38 217 38 174 q 67 290 38 260 q 135 319 97 319 q 198 296 172 319 q 244 249 224 272 q 283 226 264 226 q 323 246 303 226 q 343 306 343 265 q 275 414 343 346 z "},"•":{"ha":757,"x_min":169,"x_max":585,"o":"m 169 526 q 169 571 169 526 q 231 680 169 617 q 376 743 292 743 q 522 680 460 743 q 585 526 585 617 q 523 374 585 436 q 376 311 461 311 q 230 373 290 311 q 169 526 169 435 z "},"…":{"ha":1133,"x_min":74,"x_max":1060,"o":"m 834 24 q 815 43 834 24 q 796 118 796 63 q 834 212 796 174 q 928 250 872 250 q 1022 212 983 250 q 1060 118 1060 174 q 1022 24 1060 63 q 928 -14 983 -14 q 834 24 872 -14 m 473 24 q 454 43 473 24 q 435 118 435 63 q 473 212 435 174 q 567 250 511 250 q 660 212 622 250 q 699 118 699 174 q 660 24 699 63 q 567 -14 622 -14 q 473 24 511 -14 m 112 24 q 93 43 112 24 q 74 118 74 63 q 112 212 74 174 q 206 250 150 250 q 299 212 261 250 q 338 118 338 174 q 299 24 338 63 q 206 -14 261 -14 q 112 24 150 -14 z "},"‰":{"ha":1963,"x_min":28,"x_max":1935,"o":"m 1603 585 q 1595 575 1603 585 q 1576 495 1588 564 q 1564 308 1564 426 q 1576 120 1564 189 q 1603 31 1588 51 q 1644 11 1619 11 q 1685 32 1669 11 q 1713 122 1701 53 q 1725 309 1725 190 q 1713 497 1725 428 q 1685 586 1701 565 q 1644 607 1669 607 q 1603 585 1619 607 m 1436 76 q 1395 120 1436 76 q 1354 308 1354 165 q 1436 542 1354 451 q 1644 632 1518 632 q 1853 542 1771 632 q 1935 308 1935 451 q 1853 76 1935 165 q 1644 -14 1771 -14 q 1436 76 1518 -14 m 977 585 q 969 575 977 585 q 949 495 961 564 q 938 308 938 426 q 949 120 938 189 q 977 31 961 51 q 1018 11 993 11 q 1059 32 1043 11 q 1087 122 1075 53 q 1099 309 1099 190 q 1087 497 1099 428 q 1059 586 1075 565 q 1018 607 1043 607 q 977 585 993 607 m 810 76 q 769 120 810 76 q 728 308 728 165 q 810 542 728 451 q 1018 632 892 632 q 1226 542 1144 632 q 1308 308 1308 451 q 1226 76 1308 165 q 1018 -14 1144 -14 q 810 76 892 -14 m 318 326 q 255 326 318 326 q 110 416 192 326 q 28 648 28 506 q 108 881 28 790 q 311 972 188 972 q 492 908 397 972 q 580 865 528 885 q 685 846 632 846 q 856 894 789 846 q 944 988 922 942 l 957 1010 l 981 1000 l 393 -24 l 374 -11 l 885 882 q 685 821 793 821 q 553 849 621 821 q 608 649 608 763 q 526 416 608 506 q 318 326 444 326 m 277 926 q 269 915 277 926 q 249 835 261 904 q 238 648 238 767 q 249 460 238 529 q 277 372 261 392 q 318 351 293 351 q 359 372 343 351 q 387 462 375 393 q 399 649 399 531 q 387 837 399 768 q 359 926 375 906 q 318 947 343 947 q 277 926 293 947 z "},"‹":{"ha":279,"x_min":69,"x_max":272,"o":"m 272 329 l 93 90 l 69 108 l 235 329 l 69 550 l 93 568 l 272 329 z "},"›":{"ha":279,"x_min":7,"x_max":210,"o":"m 44 329 l 7 329 l 186 568 l 210 550 l 44 329 m 7 329 l 44 329 l 210 108 l 186 90 l 7 329 z "},"⁄":{"ha":408,"x_min":-147,"x_max":635,"o":"m -147 -286 l 610 999 l 635 982 l -122 -304 l -147 -286 z "},"€":{"ha":743,"x_min":14,"x_max":674,"o":"m 647 214 l 649 228 l 674 228 q 618 81 663 138 q 522 5 574 24 q 407 -14 469 -14 q 194 72 279 -14 q 94 306 108 157 l 14 306 l 14 328 l 92 328 l 92 389 l 14 389 l 14 411 l 94 411 q 213 628 111 550 q 458 706 314 706 q 575 676 507 706 q 608 671 590 671 q 642 706 642 671 l 664 706 l 664 438 l 642 438 q 630 499 633 479 q 613 559 626 518 q 586 621 600 600 q 547 660 572 642 q 490 678 522 678 q 399 617 425 678 q 371 411 374 556 l 546 411 l 546 389 l 371 389 l 371 328 l 546 328 l 546 306 l 371 306 q 419 44 371 92 q 475 25 442 25 q 593 88 544 25 q 647 214 642 151 z "},"™":{"ha":1613,"x_min":81,"x_max":1535,"o":"m 769 564 q 778 524 769 547 l 933 121 l 961 201 l 801 618 q 769 564 769 606 m 385 11 l 385 36 l 451 36 l 451 614 q 367 583 401 614 q 318 503 332 551 q 294 358 294 418 l 268 358 l 268 639 l 821 639 l 974 239 l 1100 639 l 1338 639 l 1338 614 l 1281 614 l 1281 36 l 1338 36 l 1338 11 l 1044 11 l 1044 36 l 1103 36 l 1103 531 l 1093 531 l 926 11 l 863 11 l 663 531 l 657 531 l 657 36 l 714 36 l 714 11 l 385 11 m 1257 36 l 1257 611 q 1208 569 1224 611 q 1201 532 1201 554 l 1201 36 l 1257 36 m 632 544 q 578 613 632 604 l 578 36 l 632 36 l 632 544 m 1370 -45 q 1288 -102 1370 -45 q 807 -158 1206 -158 q 244 -45 408 -158 q 81 340 81 68 q 244 726 81 613 q 807 839 408 839 q 1370 726 1206 839 q 1535 340 1535 613 q 1370 -45 1535 68 m 119 340 q 119 213 119 340 q 273 -18 119 86 q 808 -122 426 -122 q 1342 -18 1189 -122 q 1496 340 1496 86 q 1342 699 1496 594 q 808 803 1189 803 q 273 699 426 803 q 119 340 119 594 z "},"Ω":{"ha":1197,"x_min":83,"x_max":1114,"o":"m 249 887 q 305 943 249 887 q 599 999 361 999 q 949 887 836 999 q 1061 583 1061 775 q 1032 449 1061 508 q 958 352 1003 390 q 869 284 914 314 q 781 223 824 254 q 724 161 739 192 l 735 153 q 919 204 807 204 l 989 204 q 1078 317 1057 204 l 1114 317 l 1069 13 l 657 13 l 633 44 q 669 161 639 88 q 753 571 753 360 q 717 877 753 782 q 599 972 681 972 q 481 877 517 972 q 444 611 444 782 q 471 337 444 440 q 528 160 497 233 q 564 44 558 88 l 540 13 l 128 13 l 83 317 l 119 317 q 208 204 140 204 l 278 204 q 463 153 390 204 l 474 161 q 416 223 458 192 q 328 284 374 254 q 239 352 283 314 q 165 449 194 390 q 136 583 136 508 q 249 887 136 775 z "},"∂":{"ha":936,"x_min":35,"x_max":864,"o":"m 364 1032 q 214 967 263 1032 q 206 946 206 954 q 218 933 206 933 q 232 942 225 933 q 240 954 239 951 q 301 982 261 982 q 367 953 342 982 q 393 881 393 925 q 362 808 393 838 q 281 779 331 779 q 199 815 231 779 q 167 909 167 851 q 226 1014 167 967 q 397 1061 286 1061 q 600 1018 508 1061 q 749 901 692 975 q 864 536 864 753 q 786 232 864 372 q 558 19 700 78 q 392 -14 481 -14 q 129 79 224 -14 q 35 286 35 172 q 88 476 35 400 q 372 619 186 619 q 593 511 525 619 q 610 717 610 625 q 364 1032 610 1032 m 356 18 q 457 85 410 18 q 583 456 540 203 q 542 522 571 493 q 475 551 513 551 q 338 438 394 551 q 281 179 281 325 q 301 51 281 85 q 356 18 321 18 z "},"∆":{"ha":939,"x_min":63,"x_max":897,"o":"m 897 13 l 63 13 l 63 39 l 400 985 l 510 985 l 897 39 l 897 13 m 588 39 l 326 697 l 90 39 l 588 39 z "},"∏":{"ha":1115,"x_min":69,"x_max":1046,"o":"m 433 953 l 433 -112 l 522 -112 l 522 -132 l 69 -132 l 69 -112 l 158 -112 l 158 953 l 69 953 l 69 972 l 1046 972 l 1046 953 l 957 953 l 957 -112 l 1046 -112 l 1046 -132 l 593 -132 l 593 -112 l 682 -112 l 682 953 l 433 953 z "},"∑":{"ha":951,"x_min":56,"x_max":896,"o":"m 800 972 l 817 726 l 794 726 q 732 875 760 838 q 557 953 675 953 l 364 953 l 558 572 l 260 115 l 696 115 q 813 142 779 115 q 875 233 851 171 l 896 233 l 778 -132 l 61 -132 l 61 -112 l 368 338 l 56 953 l 56 972 l 800 972 z "},"−":{"ha":882,"x_min":140,"x_max":799,"o":"m 799 343 l 799 314 l 140 314 l 140 343 l 799 343 z "},"√":{"ha":769,"x_min":-76,"x_max":796,"o":"m -76 611 q 193 697 96 697 q 310 664 261 697 q 392 551 358 631 l 542 206 l 769 1167 l 796 1161 l 522 13 l 343 13 l 100 546 q 68 594 89 574 q 22 614 47 614 q -65 588 -4 614 l -76 611 z "},"∞":{"ha":794,"x_min":32,"x_max":760,"o":"m 32 374 q 32 425 32 374 q 90 535 32 476 q 228 594 149 594 q 367 514 307 594 q 543 593 446 593 q 700 528 640 593 q 760 362 760 464 q 701 201 760 260 q 563 142 643 142 q 425 221 483 142 q 248 143 344 143 q 92 208 151 143 q 32 374 32 272 m 347 493 q 233 569 299 569 q 122 530 168 569 q 75 447 75 490 q 103 377 75 404 q 183 350 132 350 q 292 424 235 350 l 313 451 q 347 493 331 476 m 444 242 q 558 167 493 167 q 670 206 624 167 q 717 289 717 246 q 688 359 717 332 q 608 386 660 386 q 499 311 557 386 q 478 283 494 304 l 444 242 z "},"∫":{"ha":635,"x_min":-69,"x_max":751,"o":"m 201 657 q 311 1057 201 897 q 608 1217 421 1217 q 710 1178 669 1217 q 751 1086 751 1140 q 719 996 751 1032 q 638 960 688 960 q 556 989 588 960 q 525 1062 525 1018 q 551 1134 525 1106 q 615 1163 576 1163 q 678 1135 654 1163 q 701 1114 689 1114 q 713 1126 713 1114 q 704 1147 713 1135 q 610 1192 671 1192 q 454 885 454 1192 q 471 547 454 797 q 488 263 488 297 q 378 -121 488 14 q 74 -256 268 -256 q -28 -217 13 -256 q -69 -125 -69 -179 q -37 -35 -69 -71 q 44 1 -6 1 q 126 -28 94 1 q 157 -101 157 -57 q 131 -173 157 -144 q 67 -201 106 -201 q 4 -174 28 -201 q -18 -153 -6 -153 q -31 -165 -31 -153 q -22 -186 -31 -174 q 72 -231 11 -231 q 172 -183 133 -231 q 224 -72 211 -136 q 238 81 238 -8 q 219 349 238 171 q 201 657 201 526 z "},"≈":{"ha":778,"x_min":65,"x_max":732,"o":"m 732 450 q 640 399 675 413 q 554 386 606 386 q 401 417 503 386 q 256 447 299 447 q 76 382 169 447 l 65 404 q 258 472 169 472 q 408 442 311 472 q 557 411 504 411 q 715 469 643 411 l 732 450 m 732 257 q 640 206 675 219 q 554 193 606 193 q 401 224 503 193 q 256 254 299 254 q 76 189 169 254 l 65 211 q 258 279 169 279 q 408 249 311 279 q 557 218 504 218 q 715 276 643 218 l 732 257 z "},"≠":{"ha":892,"x_min":75,"x_max":733,"o":"m 503 658 l 533 658 l 311 0 l 281 0 l 503 658 m 75 200 l 75 229 l 733 229 l 733 200 l 75 200 m 733 458 l 733 429 l 75 429 l 75 458 l 733 458 z "},"≤":{"ha":686,"x_min":-8,"x_max":657,"o":"m 656 69 l 656 40 l -8 40 l -8 69 l 656 69 m -8 301 l -8 338 l 647 528 l 657 500 l 33 319 l 657 139 l 647 111 l -8 301 z "},"≥":{"ha":719,"x_min":-8,"x_max":657,"o":"m 656 69 l 656 40 l -8 40 l -8 69 l 656 69 m 657 338 l 657 301 l 1 111 l -8 139 l 615 319 l -8 500 l 1 528 l 657 338 z "},"◊":{"ha":758,"x_min":97,"x_max":619,"o":"m 619 468 l 365 11 l 350 11 l 97 468 l 350 926 l 365 926 l 619 468 m 126 468 l 358 50 l 590 468 l 358 888 l 126 468 z "},"":{"ha":972,"x_min":0,"x_max":0,"o":""},"ﬀ":{"ha":953,"x_min":14,"x_max":929,"o":"m 869 865 q 882 851 869 851 q 897 879 897 851 q 858 962 897 929 q 769 994 819 994 q 676 953 718 994 q 633 844 633 911 q 699 699 633 747 q 861 651 765 651 l 929 651 l 929 629 l 825 629 l 825 35 l 929 35 l 929 13 l 499 13 l 499 35 l 563 35 l 563 738 l 554 738 l 540 717 q 509 676 526 694 q 452 640 492 657 q 363 622 413 622 l 363 35 l 431 35 l 431 13 l 14 13 l 14 35 l 100 35 l 100 629 l 14 629 l 14 651 l 100 651 l 100 704 q 143 883 100 797 q 209 954 165 926 q 313 982 253 982 q 417 938 372 982 q 461 839 461 894 q 426 742 461 783 q 335 701 390 701 q 247 736 281 701 q 213 815 213 771 q 241 890 213 858 q 313 922 269 922 q 378 899 356 922 q 406 846 401 876 l 407 828 q 419 814 407 814 q 435 842 435 814 q 396 924 435 892 q 306 957 357 957 q 213 913 256 957 q 171 796 171 868 q 224 687 171 724 q 357 650 276 650 q 480 689 438 650 q 565 830 522 728 q 655 976 607 932 q 769 1019 703 1019 q 879 976 835 1019 q 924 876 924 932 q 888 780 924 821 q 798 739 853 739 q 709 774 743 739 q 675 852 675 808 q 703 928 675 896 q 775 960 732 960 q 841 937 818 960 q 868 883 864 914 l 869 865 z "},"ﬁ":{"ha":961,"x_min":14,"x_max":950,"o":"m 601 575 q 864 650 799 575 l 864 35 l 950 35 l 950 13 l 515 13 l 515 35 l 601 35 l 601 575 m 643 844 l 644 863 q 672 916 649 893 q 738 939 694 939 q 809 907 781 939 q 838 831 838 875 q 803 753 838 788 q 715 718 769 718 q 624 759 660 718 q 589 857 589 800 q 629 956 589 914 q 740 999 669 999 q 857 951 810 999 q 904 833 904 903 q 829 679 904 732 q 583 626 754 626 l 363 626 l 363 35 l 467 35 l 467 13 l 14 13 l 14 35 l 100 35 l 100 629 l 14 629 l 14 651 l 100 651 l 100 726 q 143 903 100 819 q 209 972 165 946 q 313 999 253 999 q 417 955 372 999 q 461 856 461 911 q 426 759 461 800 q 335 718 390 718 q 247 753 281 718 q 213 831 213 788 q 241 907 213 875 q 313 939 269 939 q 378 916 356 939 q 406 863 401 893 l 407 844 q 419 831 407 831 q 435 858 435 831 q 396 941 435 908 q 306 974 357 974 q 213 932 256 974 q 171 824 171 890 q 399 651 171 651 l 567 651 q 856 739 800 651 q 879 833 879 776 q 839 932 879 890 q 742 974 799 974 q 650 942 685 974 q 615 858 615 911 q 631 831 615 831 q 643 844 643 831 z "},"ﬂ":{"ha":974,"x_min":22,"x_max":960,"o":"m 343 974 q 230 930 269 974 q 190 816 190 886 q 247 699 190 746 q 396 651 303 651 l 475 651 l 475 629 l 371 629 l 371 35 l 475 35 l 475 13 l 22 13 l 22 35 l 108 35 l 108 629 l 22 629 l 22 651 l 108 651 l 108 706 q 167 922 108 846 q 343 999 226 999 q 444 972 400 999 l 510 972 l 510 950 l 476 950 q 524 839 524 906 q 483 735 524 772 q 386 699 442 699 q 292 735 331 699 q 254 826 254 771 q 389 968 254 947 q 343 974 361 974 m 499 836 q 435 950 499 911 q 279 829 279 944 q 307 755 279 786 q 383 724 335 724 q 465 755 432 724 q 499 836 499 786 m 608 35 l 608 950 l 510 950 l 510 972 l 593 972 q 871 999 744 972 l 871 35 l 960 35 l 960 13 l 522 13 l 522 35 l 608 35 z "},"ﬆ":{"ha":1224,"x_min":53,"x_max":1204,"o":"m 1100 65 q 1168 204 1153 65 l 1193 201 q 1135 42 1181 99 q 999 -14 1089 -14 q 813 189 813 -14 l 813 632 l 740 632 l 740 651 l 779 651 q 939 716 878 651 q 1000 867 1000 781 q 931 1016 1000 953 q 723 1079 863 1079 q 511 1010 583 1079 q 439 853 439 942 q 458 772 439 810 q 499 713 478 733 q 559 660 521 692 q 614 614 597 629 l 519 654 l 521 658 q 410 849 410 740 q 494 1031 410 957 q 721 1106 579 1106 q 985 1003 894 1106 q 1075 651 1075 901 l 1204 651 l 1204 632 l 1075 632 l 1075 122 q 1100 65 1075 65 m 594 603 q 586 611 594 603 q 535 634 578 619 q 432 649 493 649 q 331 622 371 649 q 290 551 290 594 q 331 474 290 507 q 428 416 371 442 q 542 360 485 390 q 640 285 600 331 q 681 181 681 239 q 590 39 681 92 q 317 -14 499 -14 q 150 15 235 -14 q 80 63 107 31 q 53 144 53 96 q 85 228 53 193 q 167 264 117 264 q 247 235 217 264 q 278 163 278 207 q 252 91 278 118 q 190 64 226 64 q 126 90 153 64 q 122 95 124 93 q 119 99 121 97 q 117 101 118 100 q 107 104 111 104 q 96 92 96 104 q 117 61 96 79 q 189 28 139 43 q 302 13 239 13 q 410 34 365 13 q 456 97 456 56 q 415 173 456 138 q 317 238 375 208 q 201 300 260 268 q 103 377 143 332 q 63 475 63 422 q 144 619 63 563 q 397 676 225 676 q 589 634 525 676 q 653 522 653 592 q 621 435 653 471 q 540 400 589 400 q 460 429 490 400 q 429 502 429 458 q 454 574 429 546 q 517 601 479 601 q 573 581 556 601 q 599 561 590 561 q 611 574 611 561 q 594 603 611 586 z "}}}
